<svg width="33" height="37" viewBox="0 0 33 37" fill="none" xmlns="http://www.w3.org/2000/svg">
<g id="Frame 19">
<path id="Vector" d="M30.988 27.193C30.9807 27.2003 30.974 27.2082 30.9674 27.2161L29.4667 26.2138C29.5779 25.9813 29.5378 25.6942 29.3453 25.5017C29.1005 25.2571 28.7046 25.2571 28.4598 25.5017C28.4519 25.5096 28.4446 25.5181 28.4374 25.5266L26.9361 24.5237C27.046 24.2912 27.006 24.0059 26.8134 23.8135C26.5687 23.5688 26.1727 23.5688 25.928 23.8135C25.9207 23.8208 25.914 23.8287 25.9073 23.8365L24.4061 22.8337C24.516 22.6012 24.4759 22.3159 24.2834 22.1234C24.0387 21.8788 23.6427 21.8788 23.398 22.1234C23.3026 22.2187 23.2449 22.3377 23.2237 22.4615L22.5356 22.447C22.5192 22.314 22.4603 22.1847 22.3577 22.0827C22.1129 21.8381 21.717 21.8381 21.4722 22.0827C21.2275 22.3274 21.2275 22.7232 21.4722 22.9678C21.5743 23.0698 21.7036 23.1287 21.8366 23.1457L21.8512 23.8335C21.8056 23.8414 21.7607 23.8535 21.7164 23.8718C21.5913 23.9234 21.4929 24.0114 21.4261 24.1176L20.7957 23.8408C20.8315 23.7115 20.8261 23.5694 20.7708 23.4359C20.6384 23.1166 20.2722 22.9648 19.9528 23.0971C19.6333 23.2295 19.4815 23.5955 19.6139 23.9149C19.6692 24.0484 19.7657 24.1522 19.8829 24.2184L19.6333 24.8594C19.5884 24.8491 19.5416 24.8431 19.4937 24.8431C19.3588 24.8431 19.2337 24.8862 19.1317 24.959L18.6556 24.4624C18.7382 24.3562 18.7874 24.2238 18.7874 24.0788C18.7874 23.7333 18.5074 23.4529 18.1612 23.4529C17.8151 23.4529 17.5351 23.7327 17.5351 24.0788C17.5351 24.2232 17.5849 24.3562 17.6669 24.4624L17.1908 24.959C17.1531 24.9323 17.1124 24.9092 17.0681 24.891C16.943 24.8394 16.8112 24.8315 16.6891 24.8594L16.4395 24.2184C16.5561 24.1522 16.6527 24.0484 16.7086 23.9149C16.841 23.5955 16.6891 23.2295 16.3697 23.0971C16.0503 22.9648 15.6841 23.1166 15.5517 23.4359C15.4964 23.5694 15.4915 23.7115 15.5268 23.8408L14.897 24.1176C14.8727 24.0788 14.8436 24.0417 14.8095 24.0077C14.7142 23.9124 14.5952 23.8548 14.4713 23.8335L14.4859 23.1457C14.6189 23.1293 14.7482 23.0704 14.8502 22.9678C15.095 22.7232 15.095 22.3274 14.8502 22.0827C14.6055 21.8381 14.2095 21.8381 13.9648 22.0827C13.8622 22.1847 13.8039 22.314 13.7869 22.447L13.0988 22.4615C13.0909 22.416 13.0787 22.3711 13.0605 22.3268C13.0089 22.2017 12.9208 22.1034 12.8146 22.0366L13.0915 21.4065C13.2208 21.4423 13.363 21.4368 13.4966 21.3816C13.816 21.2492 13.9678 20.8832 13.8354 20.5639C13.703 20.2446 13.3368 20.0928 13.0174 20.2251C12.8838 20.2804 12.7799 20.3769 12.7138 20.4941L12.0724 20.2446C12.0828 20.1996 12.0888 20.1529 12.0888 20.1049C12.0888 19.9702 12.0457 19.8451 11.9728 19.7431L12.4696 19.2672C12.5759 19.3497 12.7083 19.3989 12.8534 19.3989C13.199 19.3989 13.4796 19.1191 13.4796 18.773C13.4796 18.427 13.1996 18.1472 12.8534 18.1472C12.7089 18.1472 12.5759 18.1969 12.4696 18.2789L11.9728 17.803C11.9996 17.7653 12.0226 17.7246 12.0409 17.6803C12.0925 17.5553 12.1004 17.4235 12.0724 17.3015L12.7138 17.052C12.7799 17.1686 12.8838 17.2651 13.0174 17.3209C13.3368 17.4533 13.703 17.3015 13.8354 16.9822C13.9678 16.6629 13.816 16.2968 13.4966 16.1645C13.363 16.1092 13.2208 16.1044 13.0915 16.1396L12.8146 15.5101C12.8534 15.4858 12.8905 15.4567 12.9245 15.4227C13.0198 15.3274 13.0775 15.2084 13.0988 15.0845L13.7869 15.0991C13.8032 15.232 13.8622 15.3613 13.9648 15.4633C14.2095 15.708 14.6055 15.708 14.8502 15.4633C15.095 15.2187 15.095 14.8229 14.8502 14.5782C14.7476 14.4763 14.6189 14.4174 14.4859 14.4004L14.4713 13.7126C14.5168 13.7047 14.5618 13.6925 14.6061 13.6743C14.7312 13.6227 14.8296 13.5347 14.8964 13.4285L15.5268 13.7053C15.4909 13.8346 15.4964 13.9766 15.5517 14.1102C15.6841 14.4295 16.0503 14.5813 16.3697 14.4489C16.6891 14.3166 16.841 13.9505 16.7086 13.6312C16.6533 13.4977 16.5567 13.3939 16.4395 13.3277L16.6891 12.6866C16.7341 12.697 16.7808 12.703 16.8288 12.703C16.9636 12.703 17.0887 12.6599 17.1908 12.5871L17.6669 13.0836C17.5843 13.1899 17.5351 13.3222 17.5351 13.4673C17.5351 13.8127 17.8151 14.0932 18.1612 14.0932C18.5074 14.0932 18.7874 13.8133 18.7874 13.4673C18.7874 13.3228 18.7376 13.1899 18.6556 13.0836L19.1317 12.5871C19.1694 12.6138 19.21 12.6369 19.2544 12.6551C19.3795 12.7067 19.5113 12.7146 19.6333 12.6866L19.8829 13.3277C19.7663 13.3939 19.6698 13.4977 19.6139 13.6312C19.4815 13.9505 19.6333 14.3166 19.9528 14.4489C20.2722 14.5813 20.6384 14.4295 20.7708 14.1102C20.8261 13.9766 20.8309 13.8346 20.7957 13.7053L21.4255 13.4285C21.4498 13.4673 21.4789 13.5043 21.5129 13.5383C21.6083 13.6336 21.7273 13.6913 21.8512 13.7126L21.8366 14.4004C21.7036 14.4168 21.5743 14.4756 21.4722 14.5782C21.2275 14.8229 21.2275 15.2187 21.4722 15.4633C21.717 15.708 22.1129 15.708 22.3577 15.4633C22.4597 15.3613 22.5186 15.232 22.5356 15.0991L23.2237 15.0845C23.2443 15.2084 23.302 15.3274 23.398 15.4227C23.6427 15.6673 24.0387 15.6673 24.2834 15.4227C24.4759 15.2302 24.516 14.9449 24.4061 14.7124L25.9073 13.7095C25.9146 13.7174 25.9207 13.7253 25.928 13.7326C26.1727 13.9772 26.5687 13.9772 26.8134 13.7326C27.006 13.5402 27.046 13.2548 26.9361 13.0223L28.4374 12.0195C28.4446 12.028 28.4519 12.0365 28.4598 12.0444C28.7046 12.289 29.1005 12.289 29.3453 12.0444C29.5378 11.8519 29.5779 11.5648 29.4667 11.3323L30.9674 10.33C30.974 10.3379 30.9807 10.3458 30.988 10.3531C31.2328 10.5977 31.6287 10.5977 31.8735 10.3531C32.1182 10.1084 32.1182 9.71263 31.8735 9.46799C31.7338 9.32836 31.5449 9.26887 31.3633 9.2889L30.7657 6.99542C30.838 6.96507 30.9054 6.92075 30.9637 6.86187C31.2085 6.61722 31.2085 6.22142 30.9637 5.97677C30.719 5.73213 30.323 5.73213 30.0783 5.97677C30.0194 6.03566 29.9756 6.10304 29.9447 6.17468L27.6503 5.57733C27.6697 5.39521 27.6102 5.20641 27.4711 5.06739C27.2695 4.86585 26.9659 4.83125 26.7278 4.96116L25.2976 3.07077C25.3523 3.01492 25.3978 2.94814 25.43 2.87165C25.5624 2.55234 25.4106 2.18628 25.0911 2.05394C24.7717 1.9216 24.4055 2.07336 24.2731 2.39268C24.2415 2.46917 24.2263 2.54869 24.2257 2.627L21.8767 2.95239C21.8251 2.77695 21.6981 2.62518 21.516 2.54991C21.253 2.44124 20.9585 2.52502 20.7884 2.73628L18.743 1.53672C18.7722 1.46448 18.7886 1.38556 18.7886 1.30239C18.7886 0.956976 18.5086 0.676514 18.1624 0.676514C17.8163 0.676514 17.5363 0.956369 17.5363 1.30239C17.5363 1.38556 17.5527 1.46448 17.5819 1.53672L15.5365 2.73628C15.4217 2.59362 15.2462 2.50256 15.0488 2.50256C14.764 2.50256 14.5241 2.69257 14.4482 2.953L12.0992 2.62761C12.0986 2.5493 12.0834 2.47038 12.0518 2.39329C11.9194 2.07397 11.5532 1.92221 11.2338 2.05454C10.9143 2.18688 10.7625 2.55294 10.8949 2.87226C10.9265 2.94875 10.972 3.01552 11.0273 3.07137L9.59709 4.96177C9.43676 4.87374 9.23939 4.85674 9.0572 4.93202C8.79424 5.04068 8.64545 5.3084 8.6746 5.57793L6.38022 6.17528C6.34986 6.10304 6.30552 6.03566 6.24662 5.97738C6.00187 5.73273 5.60592 5.73273 5.36117 5.97738C5.11643 6.22203 5.11643 6.61783 5.36117 6.86248C5.42008 6.92136 5.48749 6.96507 5.55915 6.99603L4.96157 9.28951C4.77938 9.27009 4.59051 9.32958 4.45144 9.4686C4.24981 9.67014 4.2152 9.97367 4.34516 10.2116L2.45403 11.6413C2.39816 11.5866 2.33135 11.5411 2.25483 11.5089C1.93539 11.3766 1.56919 11.5284 1.4368 11.8477C1.30441 12.167 1.45624 12.533 1.77567 12.6654C1.85219 12.697 1.93175 12.7121 2.01009 12.7127L2.33561 15.0609C2.1601 15.1125 2.00827 15.2393 1.93297 15.4214C1.82426 15.6843 1.90807 15.9787 2.11941 16.1487L0.919382 18.1933C0.847113 18.1642 0.768164 18.1478 0.684964 18.1478C0.33941 18.1478 0.0588379 18.4276 0.0588379 18.7736C0.0588379 19.1197 0.338803 19.3995 0.684964 19.3995C0.768164 19.3995 0.847113 19.3831 0.919382 19.354L2.11941 21.3986C1.97669 21.5133 1.8856 21.6888 1.8856 21.8861C1.8856 22.1708 2.07568 22.4106 2.33621 22.4864L2.0107 24.8346C1.93236 24.8352 1.85341 24.8503 1.77628 24.8819C1.45684 25.0142 1.30502 25.3803 1.43741 25.6996C1.5698 26.0189 1.936 26.1707 2.25544 26.0384C2.33196 26.0068 2.39876 25.9613 2.45464 25.906L4.34577 27.3356C4.25771 27.4959 4.24071 27.6932 4.31601 27.8753C4.42472 28.1382 4.69254 28.2869 4.96218 28.2578L5.55976 30.5513C5.48749 30.5816 5.42008 30.6259 5.36178 30.6848C5.11704 30.9295 5.11704 31.3253 5.36178 31.5699C5.60652 31.8146 6.00248 31.8146 6.24722 31.5699C6.30613 31.511 6.34986 31.4436 6.38083 31.372L8.67521 31.9694C8.65578 32.1515 8.71529 32.3403 8.85436 32.4793C9.05599 32.6808 9.35964 32.7154 9.5977 32.5855L11.0279 34.4759C10.9732 34.5318 10.9277 34.5985 10.8961 34.675C10.7637 34.9943 10.9155 35.3604 11.235 35.4927C11.5544 35.6251 11.9206 35.4733 12.053 35.154C12.0846 35.0775 12.0998 34.998 12.1004 34.9197L14.4494 34.5937C14.501 34.7691 14.628 34.9209 14.8102 34.9962C15.0731 35.1048 15.3677 35.0211 15.5377 34.8098L17.5831 36.0094C17.5539 36.0816 17.5375 36.1605 17.5375 36.2437C17.5375 36.5891 17.8175 36.8696 18.1637 36.8696C18.5098 36.8696 18.7898 36.5897 18.7898 36.2437C18.7898 36.1605 18.7734 36.0816 18.7442 36.0094L20.7896 34.8098C20.9044 34.9525 21.0799 35.0435 21.2773 35.0435C21.5621 35.0435 21.802 34.8535 21.8779 34.5931L24.2269 34.9191C24.2276 34.9974 24.2427 35.0763 24.2743 35.1534C24.4067 35.4727 24.7729 35.6245 25.0924 35.4921C25.4118 35.3598 25.5636 34.9937 25.4312 34.6744C25.3996 34.5979 25.3541 34.5312 25.2994 34.4753L26.7296 32.5849C26.89 32.6729 27.0873 32.6899 27.2695 32.6147C27.5325 32.506 27.6813 32.2383 27.6521 31.9688L29.9465 31.3714C29.9769 31.4436 30.0212 31.511 30.0801 31.5693C30.3248 31.8139 30.7208 31.8139 30.9655 31.5693C31.2103 31.3247 31.2103 30.9289 30.9655 30.6842C30.9066 30.6253 30.8392 30.5816 30.7676 30.5507L31.3651 28.2572C31.5473 28.2766 31.7362 28.2171 31.8753 28.0781C32.12 27.8334 32.12 27.4376 31.8753 27.193C31.6305 26.9483 31.2346 26.9483 30.9898 27.193H30.988ZM30.8653 27.3678C30.801 27.5038 30.7882 27.6574 30.8271 27.8001L28.8995 28.6445C28.8746 28.605 28.8461 28.568 28.8121 28.534C28.7404 28.4624 28.656 28.4126 28.5661 28.3828L28.8843 26.5689C29.0507 26.5738 29.2183 26.5131 29.3453 26.3868C29.3519 26.3801 29.358 26.3722 29.3647 26.365L30.8659 27.3678H30.8653ZM28.4592 11.1605C28.4106 11.209 28.3718 11.2643 28.3426 11.3226L26.8341 10.8278C26.8626 10.6627 26.8244 10.4891 26.7193 10.3488L27.9958 9.07279C28.1112 9.15839 28.2485 9.19967 28.3857 9.19602L28.704 11.0099C28.6147 11.0397 28.5303 11.0895 28.4592 11.1605ZM25.928 12.8487C25.8575 12.9191 25.8084 13.0023 25.778 13.0903L24.6915 12.8924C24.6964 12.754 24.6551 12.615 24.5682 12.4984L25.8448 11.2224C25.9401 11.2934 26.0507 11.3341 26.163 11.3438L26.242 12.6787C26.1266 12.7024 26.0167 12.7589 25.9274 12.8487H25.928ZM23.8158 14.3567C23.664 14.3627 23.514 14.4228 23.398 14.5388C23.296 14.6408 23.237 14.7701 23.22 14.903L22.532 14.9176C22.5162 14.8223 22.4773 14.73 22.4172 14.6493L23.6937 13.3732C23.7599 13.4224 23.8334 13.457 23.9099 13.4764L23.8158 14.3561V14.3567ZM23.398 23.0085C23.514 23.1245 23.664 23.1846 23.8158 23.1906L23.9099 24.0703C23.8334 24.0903 23.7599 24.1243 23.6937 24.1735L22.4172 22.8974C22.4773 22.8167 22.5162 22.7244 22.532 22.6291L23.22 22.6437C23.2364 22.7766 23.2953 22.9059 23.398 23.0079V23.0085ZM25.928 24.6986C26.0173 24.7878 26.1272 24.8443 26.2426 24.8685L26.1636 26.2035C26.0507 26.2132 25.9401 26.2539 25.8454 26.3249L24.5689 25.0488C24.6557 24.9323 24.6964 24.7933 24.6921 24.6549L25.7786 24.457C25.8084 24.545 25.8582 24.6282 25.9286 24.6986H25.928ZM28.4592 26.3868C28.5303 26.4578 28.6147 26.5076 28.704 26.5374L28.3857 28.3513C28.2485 28.3476 28.1112 28.3889 27.9958 28.4745L26.7193 27.1985C26.8238 27.0582 26.862 26.8846 26.8341 26.7195L28.3426 26.2247C28.3718 26.283 28.4106 26.3382 28.4592 26.3868ZM26.4072 31.9578L24.3029 32.0003C24.295 31.9548 24.2828 31.9093 24.2646 31.8643C24.2257 31.7708 24.1668 31.6925 24.0952 31.6306L25.0832 30.0765C25.2351 30.1445 25.413 30.153 25.5788 30.0844C25.5879 30.0808 25.5964 30.0759 25.6049 30.0717L26.6082 31.5723C26.497 31.6731 26.426 31.8103 26.4072 31.9572V31.9578ZM21.6587 33.9241C21.553 33.8421 21.42 33.7924 21.2755 33.7924C21.2651 33.7924 21.2548 33.7936 21.2445 33.7942L20.8923 32.0246C21.0647 31.9639 21.2026 31.8297 21.2682 31.6591L23.0628 32.0586C23.0561 32.1527 23.0694 32.2504 23.1083 32.3433C23.1265 32.3876 23.1502 32.4289 23.1769 32.4665L21.6587 33.9235V33.9241ZM14.6662 33.9241L13.148 32.4671C13.1747 32.4295 13.1984 32.3882 13.2166 32.3439C13.2555 32.2504 13.2688 32.1533 13.2621 32.0592L15.0604 31.6585C15.1193 31.8139 15.2395 31.9457 15.4053 32.0143C15.4144 32.0179 15.4235 32.021 15.4326 32.024L15.0804 33.7942C14.9304 33.7869 14.7834 33.8336 14.6662 33.9241ZM9.91714 31.9578C9.90013 31.8249 9.84122 31.6962 9.7392 31.5942C9.73191 31.5869 9.72402 31.5802 9.71612 31.5736L10.7188 30.0735C10.884 30.1524 11.0759 30.1548 11.2429 30.0808L12.2291 31.6318C12.1575 31.6937 12.0986 31.7721 12.0597 31.8655C12.0415 31.9099 12.0287 31.9554 12.0208 32.0015L9.91653 31.959L9.91714 31.9578ZM3.13603 21.8545L4.90631 21.5024C4.96704 21.6748 5.10125 21.8126 5.2719 21.8782L4.8723 23.672C4.77817 23.6654 4.68039 23.6787 4.58747 23.7176C4.54314 23.7358 4.50184 23.7594 4.46419 23.7862L3.00667 22.2685C3.08866 22.1629 3.13846 22.0299 3.13846 21.8854C3.13846 21.8751 3.13724 21.8648 3.13663 21.8545H3.13603ZM3.00606 15.2788L4.46358 13.7611C4.50124 13.7878 4.54253 13.8115 4.58687 13.8297C4.68039 13.8686 4.77756 13.8819 4.87169 13.8753L5.27251 15.6728C5.11704 15.7317 4.98526 15.8519 4.91663 16.0176C4.91299 16.0267 4.90995 16.0358 4.90691 16.0449L3.13603 15.6928C3.14331 15.5429 3.09655 15.3959 3.00606 15.2788ZM9.91774 5.58947L12.022 5.54697C12.0299 5.5925 12.0421 5.63803 12.0609 5.68296C12.0998 5.77644 12.1587 5.85475 12.2303 5.91667L11.2423 7.47075C11.0904 7.40276 10.9125 7.39426 10.7467 7.46286C10.7376 7.4665 10.7291 7.47136 10.7206 7.47561L9.71734 5.97495C9.82847 5.87418 9.89953 5.73698 9.91835 5.59008L9.91774 5.58947ZM14.6662 3.62319C14.7719 3.70515 14.9049 3.75493 15.0494 3.75493C15.0598 3.75493 15.0701 3.75371 15.0804 3.7531L15.4326 5.52269C15.2602 5.5834 15.1223 5.71756 15.0567 5.88814L13.2621 5.4887C13.2688 5.3946 13.2555 5.29686 13.2166 5.20398C13.1984 5.15967 13.1747 5.11839 13.148 5.08075L14.6662 3.6238V3.62319ZM21.6587 3.62319L23.1769 5.08014C23.1502 5.11778 23.1265 5.15906 23.1083 5.20338C23.0694 5.29686 23.0561 5.39399 23.0628 5.48809L21.2645 5.88875C21.2056 5.73334 21.0854 5.60161 20.9196 5.53301C20.9105 5.52937 20.9014 5.52633 20.8923 5.5233L21.2445 3.7531C21.3945 3.76039 21.5415 3.71365 21.6587 3.62319ZM26.4072 5.58947C26.4242 5.72241 26.4831 5.85111 26.5851 5.9531C26.5924 5.96038 26.6003 5.96706 26.6082 5.97374L25.6055 7.47379C25.4403 7.39487 25.2484 7.39244 25.0814 7.4665L24.0952 5.91546C24.1668 5.85354 24.2257 5.77523 24.2646 5.68174C24.2828 5.63743 24.2956 5.5919 24.3035 5.54576L26.4078 5.58825L26.4072 5.58947ZM27.8671 8.94349L26.5906 10.2195C26.4503 10.1151 26.2766 10.0769 26.1114 10.1048L25.6164 8.59685C25.6747 8.56771 25.73 8.52886 25.7786 8.4803C25.8497 8.40927 25.8995 8.32489 25.9292 8.23565L27.7438 8.55375C27.7402 8.69095 27.7815 8.82814 27.8671 8.94349ZM24.4395 12.3697C24.3229 12.2829 24.1838 12.2423 24.0454 12.2465L23.8474 11.1605C23.9354 11.1307 24.0186 11.081 24.0891 11.0111C24.1784 10.9219 24.2348 10.812 24.2591 10.6967L25.5946 10.7762C25.6043 10.8891 25.645 10.9996 25.716 11.0943L24.4395 12.3704V12.3697ZM22.5617 12.941C22.535 12.836 22.481 12.737 22.399 12.6551C22.3917 12.6478 22.3838 12.6411 22.3759 12.6344L23.3792 11.1338C23.4702 11.1769 23.5692 11.1969 23.6682 11.1933L23.8662 12.2793C23.7782 12.309 23.695 12.3588 23.6245 12.4292C23.5085 12.5452 23.4484 12.6951 23.4423 12.8469L22.5623 12.941H22.5617ZM19.1772 11.5393L18.6216 10.8509C18.7248 10.7392 18.788 10.5904 18.788 10.4271C18.788 10.3276 18.7643 10.2341 18.723 10.1503L19.6309 9.52202C19.6898 9.58515 19.7633 9.63797 19.8483 9.67317C19.858 9.67742 19.8677 9.67985 19.8775 9.68349L19.5252 11.4537C19.4019 11.4476 19.2811 11.478 19.1766 11.5393H19.1772ZM17.147 11.5393C17.0541 11.484 16.9454 11.4519 16.8294 11.4519C16.8191 11.4519 16.8088 11.4531 16.7985 11.4537L16.4462 9.68349C16.541 9.6495 16.6254 9.59365 16.6928 9.52141L17.6013 10.1497C17.56 10.2335 17.5363 10.327 17.5363 10.4265C17.5363 10.5904 17.6001 10.7392 17.7027 10.8509L17.147 11.5393ZM13.7626 12.9404L12.8826 12.8463C12.8765 12.6945 12.8164 12.5446 12.7004 12.4286C12.6299 12.3582 12.5467 12.309 12.4587 12.2787L12.6567 11.1927C12.7435 11.1957 12.8322 11.1811 12.9172 11.1459C12.9269 11.1417 12.936 11.1368 12.9451 11.1326L13.9484 12.6332C13.8567 12.7158 13.7929 12.8232 13.7626 12.9404ZM12.0409 14.5382C12.0336 14.5455 12.0269 14.5533 12.0202 14.5612L10.519 13.5584C10.5621 13.4673 10.5821 13.3684 10.5785 13.2694L11.6649 13.0715C11.6947 13.1595 11.7445 13.2427 11.8149 13.3131C11.9309 13.4291 12.0809 13.4892 12.2328 13.4952L12.3269 14.3749C12.2218 14.4016 12.1229 14.4556 12.0409 14.5376V14.5382ZM10.9253 17.7586L10.2366 18.3141C10.1248 18.2109 9.97605 18.1478 9.81268 18.1478C9.71309 18.1478 9.61956 18.1714 9.53575 18.2127L8.9072 17.3052C8.97036 17.2463 9.02319 17.1728 9.05841 17.0878C9.06267 17.0781 9.0651 17.0684 9.06874 17.0587L10.8396 17.4108C10.8336 17.534 10.8639 17.6548 10.9253 17.7592V17.7586ZM10.8396 20.1359L9.06874 20.488C9.03473 20.3933 8.97886 20.3089 8.90659 20.2415L9.53515 19.3334C9.61895 19.3746 9.71248 19.3983 9.81207 19.3983C9.97604 19.3983 10.1248 19.3346 10.236 19.232L10.9246 19.7874C10.8694 19.8803 10.8378 19.989 10.8378 20.1049C10.8378 20.1153 10.839 20.1256 10.8396 20.1359ZM12.3269 23.1706L12.2328 24.0502C12.0809 24.0563 11.9309 24.1164 11.8149 24.2323C11.7445 24.3028 11.6953 24.3859 11.6649 24.474L10.5785 24.2761C10.5815 24.1892 10.5669 24.1006 10.5317 24.0156C10.5275 24.0059 10.5226 23.9968 10.5184 23.9877L12.0196 22.9848C12.1022 23.0765 12.2097 23.1402 12.3269 23.1706ZM13.7626 24.6051C13.7893 24.7101 13.8433 24.8091 13.9253 24.891C13.9326 24.8983 13.9405 24.905 13.9484 24.9116L12.9451 26.4123C12.854 26.3692 12.755 26.3492 12.6561 26.3522L12.4581 25.2662C12.5461 25.2364 12.6293 25.1866 12.6998 25.1162C12.8158 25.0003 12.8759 24.8503 12.882 24.6986L13.762 24.6045L13.7626 24.6051ZM17.147 26.0068L17.7027 26.6952C17.5995 26.8069 17.5363 26.9556 17.5363 27.1195C17.5363 27.2191 17.56 27.3126 17.6013 27.3964L16.6934 28.0247C16.6345 27.9615 16.561 27.9087 16.476 27.8735C16.4663 27.8693 16.4565 27.8668 16.4468 27.8632L16.7991 26.093C16.9223 26.0991 17.0432 26.0687 17.1477 26.0074L17.147 26.0068ZM19.1766 26.0068C19.2696 26.062 19.3783 26.0942 19.4943 26.0942C19.5046 26.0942 19.5149 26.093 19.5252 26.0924L19.8775 27.8626C19.7827 27.8966 19.6983 27.9524 19.6309 28.0247L18.7224 27.3964C18.7637 27.3126 18.7874 27.2191 18.7874 27.1195C18.7874 26.9556 18.7236 26.8069 18.621 26.6952L19.1766 26.0068ZM22.5611 24.6057L23.4411 24.6998C23.4472 24.8516 23.5073 25.0015 23.6233 25.1174C23.6937 25.1879 23.7769 25.237 23.865 25.2674L23.667 26.3534C23.5802 26.3504 23.4915 26.365 23.4065 26.4002C23.3968 26.4044 23.3877 26.4093 23.3785 26.4135L22.3753 24.9129C22.467 24.8303 22.5308 24.7229 22.5611 24.6057ZM25.7154 26.453C25.6444 26.5483 25.6037 26.6582 25.594 26.7711L24.2585 26.8506C24.2506 26.813 24.2397 26.7753 24.2245 26.7389C24.1529 26.5653 24.012 26.4421 23.8468 26.3862L24.0448 25.3002C24.1832 25.305 24.3223 25.2637 24.4389 25.1769L25.7154 26.453ZM25.775 10.2784C25.6857 10.3677 25.6292 10.4775 25.6049 10.5929L24.2695 10.5133C24.2573 10.3719 24.1972 10.2335 24.0885 10.1254C24.0812 10.1182 24.0733 10.1115 24.0654 10.1048L25.0687 8.60353C25.1859 8.65877 25.3164 8.67577 25.4422 8.65392L25.9371 10.1613C25.8782 10.1904 25.8229 10.2292 25.7743 10.2784H25.775ZM23.8862 27.5566C23.896 27.5524 23.9051 27.5475 23.9142 27.5433L24.9174 29.0445C24.8215 29.1319 24.7559 29.2461 24.728 29.3699L23.1453 29.2503C23.1405 29.1848 23.1259 29.1192 23.0998 29.0555C23.0512 28.9383 22.9711 28.8442 22.8739 28.778L23.4581 27.5754C23.5935 27.6185 23.7441 27.6155 23.8856 27.5572L23.8862 27.5566ZM21.9435 29.5338C21.9702 29.5976 22.0061 29.6546 22.0492 29.7044L21.0162 30.9058C20.9196 30.8451 20.806 30.8093 20.6834 30.8093C20.6724 30.8093 20.6615 30.8105 20.6499 30.8111L20.2977 29.0409C20.4471 28.9875 20.5698 28.88 20.6427 28.741L21.9065 29.1787C21.8846 29.2946 21.8943 29.4173 21.9429 29.5344L21.9435 29.5338ZM19.5647 28.7944L18.5645 29.6819C18.4776 29.6091 18.3708 29.5599 18.2535 29.5429V27.7381C18.3969 27.7169 18.5244 27.6477 18.6191 27.5469L19.5277 28.1752C19.4864 28.259 19.4627 28.3525 19.4627 28.452C19.4627 28.5783 19.5003 28.6961 19.5653 28.7944H19.5647ZM18.0707 27.7381V29.5429C17.9535 29.5599 17.8467 29.6091 17.7598 29.6819L16.7596 28.7944C16.7808 28.7622 16.7991 28.7283 16.8142 28.6912C16.8859 28.5176 16.8738 28.3312 16.7966 28.1752L17.7052 27.5469C17.7999 27.6477 17.9274 27.7175 18.0707 27.7381ZM15.9968 29.03C16.0065 29.0342 16.0163 29.0366 16.026 29.0403L15.6737 30.8111C15.5444 30.805 15.4175 30.8396 15.31 30.9076L14.2757 29.7044C14.3188 29.6546 14.3547 29.5982 14.3814 29.5338C14.43 29.4167 14.4397 29.294 14.4178 29.1781L15.6816 28.7404C15.7472 28.8667 15.8553 28.9711 15.9974 29.03H15.9968ZM13.2245 29.0548C13.1978 29.1186 13.1832 29.1848 13.1789 29.2497L11.5988 29.3693C11.5732 29.2582 11.518 29.1526 11.4317 29.0658C11.4238 29.0579 11.4153 29.0512 11.4068 29.0433L12.4101 27.5427C12.5534 27.6106 12.7168 27.621 12.8662 27.5742L13.4504 28.7768C13.3532 28.843 13.2731 28.9371 13.2245 29.0542V29.0548ZM12.2352 26.5355C12.1459 26.6248 12.0894 26.7353 12.0652 26.85L10.7303 26.7705C10.7206 26.6576 10.6799 26.5471 10.6089 26.4524L11.8854 25.1763C12.002 25.2631 12.1411 25.3038 12.2795 25.2996L12.4775 26.3856C12.3895 26.4153 12.3063 26.4651 12.2358 26.5355H12.2352ZM11.756 25.0476L10.4795 26.3237C10.3842 26.2527 10.2742 26.212 10.1613 26.2023L10.0817 24.8673C10.1194 24.8594 10.1564 24.8485 10.1935 24.8333C10.3671 24.7617 10.4904 24.6209 10.5463 24.4557L11.6328 24.6536C11.6279 24.7921 11.6692 24.9311 11.756 25.0476ZM9.37543 24.4946C9.37968 24.5043 9.38453 24.5134 9.38879 24.5225L7.88693 25.5254C7.79948 25.4295 7.68531 25.3639 7.56142 25.336L7.68106 23.754C7.74665 23.7491 7.81224 23.7346 7.87661 23.7085C7.99382 23.6599 8.08795 23.5798 8.15415 23.4826L9.35721 24.0666C9.31409 24.202 9.31712 24.3525 9.37543 24.494V24.4946ZM7.39745 22.5526C7.33368 22.5793 7.2766 22.6151 7.2268 22.6582L6.02495 21.6256C6.08568 21.5291 6.12151 21.4156 6.12151 21.293C6.12151 21.282 6.1203 21.2711 6.11969 21.2596L7.89058 20.9075C7.94402 21.0568 8.05151 21.1794 8.19058 21.2523L7.75272 22.5156C7.63673 22.4937 7.51405 22.5034 7.39684 22.552L7.39745 22.5526ZM8.47966 20.0721C8.35334 20.0721 8.23552 20.1098 8.13714 20.1747L7.24927 19.1749C7.32214 19.0881 7.37134 18.9813 7.38834 18.8641H9.19384C9.2151 19.0074 9.28433 19.1348 9.38514 19.2295L8.75659 20.1377C8.67278 20.0964 8.57926 20.0728 8.47966 20.0728V20.0721ZM9.19324 18.6814H7.38773C7.37073 18.5642 7.32154 18.4574 7.24866 18.3706L8.13653 17.3707C8.16872 17.392 8.20273 17.4102 8.23977 17.4254C8.41346 17.497 8.5999 17.4849 8.75598 17.4078L9.38453 18.3159C9.28372 18.4106 9.21388 18.5381 9.19324 18.6814ZM7.9009 16.6083C7.89665 16.618 7.89422 16.6277 7.89058 16.6374L6.11908 16.2853C6.12516 16.156 6.09054 16.0291 6.02252 15.9217L7.22619 14.8878C7.27599 14.9309 7.33247 14.9668 7.39684 14.9935C7.51405 15.042 7.63673 15.0517 7.75272 15.0299L8.19058 16.2932C8.06427 16.3588 7.95981 16.4668 7.9009 16.6089V16.6083ZM7.876 13.837C7.81224 13.8103 7.74604 13.7957 7.68106 13.7915L7.56142 12.2119C7.67256 12.1864 7.77823 12.1312 7.86507 12.045C7.87297 12.0371 7.87965 12.0286 7.88754 12.0201L9.38879 13.0229C9.32077 13.1662 9.31044 13.3295 9.35721 13.4788L8.15415 14.0628C8.08795 13.9657 7.99382 13.8856 7.87661 13.837H7.876ZM10.3963 12.8481C10.307 12.7589 10.1971 12.7024 10.0817 12.6781L10.1613 11.3432C10.2742 11.3335 10.3848 11.2928 10.4795 11.2218L11.756 12.4978C11.6692 12.6144 11.6285 12.7534 11.6328 12.8918L10.5463 13.0897C10.5165 13.0017 10.4667 12.9185 10.3963 12.8481ZM11.8848 12.3691L10.6082 11.0931C10.6793 10.9978 10.72 10.8879 10.7297 10.775L12.0652 10.6961C12.0731 10.7337 12.084 10.7707 12.0992 10.8078C12.1708 10.9814 12.3117 11.1046 12.4769 11.1605L12.2789 12.2465C12.1405 12.2417 12.0014 12.2829 11.8848 12.3697V12.3691ZM12.438 9.98945C12.4283 9.9937 12.4192 9.99856 12.4101 10.0028L11.4068 8.50154C11.5028 8.41413 11.5684 8.3 11.5963 8.17616L13.1789 8.29575C13.1838 8.36131 13.1984 8.42688 13.2245 8.49122C13.2731 8.60839 13.3532 8.70248 13.4504 8.76865L12.8662 9.97124C12.7308 9.92814 12.5801 9.93118 12.4386 9.98945H12.438ZM14.3808 8.01225C14.3541 7.94851 14.3182 7.89145 14.2751 7.84167L15.3081 6.64029C15.4047 6.701 15.5183 6.73682 15.6409 6.73682C15.6519 6.73682 15.6628 6.7356 15.6743 6.73499L16.0266 8.50519C15.8772 8.55861 15.7545 8.66606 15.6816 8.80508L14.4178 8.36738C14.4397 8.25144 14.43 8.12881 14.3814 8.01165L14.3808 8.01225ZM16.7596 8.75165L17.7598 7.86413C17.8467 7.93698 17.9535 7.98615 18.0707 8.00315V9.80794C17.9274 9.82919 17.7999 9.89839 17.7052 9.99917L16.7966 9.37086C16.8379 9.28708 16.8616 9.19359 16.8616 9.09404C16.8616 8.96777 16.824 8.85 16.759 8.75165H16.7596ZM18.2535 9.80794V8.00315C18.3708 7.98615 18.4776 7.93698 18.5645 7.86413L19.5647 8.75165C19.5434 8.78383 19.5252 8.81782 19.51 8.85486C19.4384 9.02847 19.4505 9.21484 19.5277 9.37086L18.6191 9.99917C18.5244 9.89839 18.3969 9.82858 18.2535 9.80794ZM20.3275 8.51611C20.3178 8.51187 20.308 8.50944 20.2983 8.50579L20.6506 6.73499C20.7799 6.74107 20.9068 6.70646 21.0143 6.63847L22.0486 7.84167C22.0054 7.89145 21.9696 7.9479 21.9429 8.01225C21.8943 8.12942 21.8846 8.25204 21.9065 8.36799L20.6427 8.80568C20.5771 8.67941 20.469 8.575 20.3269 8.51611H20.3275ZM23.0998 8.49122C23.1265 8.42748 23.1411 8.36131 23.1453 8.29575L24.7255 8.17616C24.751 8.28725 24.8063 8.39288 24.8925 8.47969C24.9004 8.48758 24.9089 8.49426 24.9174 8.50215L23.9142 10.0028C23.7709 9.93482 23.6075 9.9245 23.4581 9.97124L22.8739 8.76865C22.9711 8.70248 23.0512 8.60839 23.0998 8.49122ZM24.8925 7.59459C24.7814 7.70569 24.7213 7.84895 24.711 7.99404L23.1314 8.11363C23.0943 7.95033 22.9923 7.80464 22.8423 7.71479L23.5334 6.0478C23.6725 6.08301 23.8152 6.06844 23.9409 6.01259L24.9272 7.56363C24.9156 7.57335 24.9041 7.58367 24.8932 7.59459H24.8925ZM23.3646 5.97799L22.6735 7.64498C22.504 7.60188 22.3285 7.63345 22.187 7.72268L21.1522 6.51888C21.1947 6.46971 21.2311 6.41264 21.2572 6.3489C21.2955 6.25602 21.3095 6.15889 21.3028 6.0654L23.101 5.66474C23.1502 5.79283 23.2407 5.90393 23.364 5.97738L23.3646 5.97799ZM20.4398 6.68825C20.4501 6.6925 20.4605 6.69554 20.4714 6.69918L20.1192 8.46937C19.9607 8.46148 19.8058 8.51429 19.6856 8.61446L18.6853 7.72693C18.7497 7.62859 18.788 7.51082 18.788 7.38455C18.788 7.31535 18.7764 7.24918 18.7558 7.18665L20.1702 6.47153C20.2358 6.56441 20.3275 6.6409 20.4404 6.68764L20.4398 6.68825ZM17.6383 7.72754L16.6381 8.61507C16.5294 8.5234 16.3891 8.46816 16.2361 8.46816C16.2258 8.46816 16.2154 8.46937 16.2051 8.46998L15.8529 6.69918C15.975 6.65547 16.0788 6.57473 16.1523 6.47092L17.5685 7.18726C17.5479 7.24978 17.5363 7.31595 17.5363 7.38516C17.5363 7.51143 17.574 7.6292 17.639 7.72754H17.6383ZM15.1691 6.52192L14.1367 7.72329C13.9952 7.63405 13.8196 7.60309 13.6502 7.64559L12.9591 5.97859C13.0824 5.90514 13.1729 5.79344 13.2221 5.66596L15.0166 6.0654C15.0154 6.08058 15.0142 6.09576 15.0142 6.11154C15.0142 6.26877 15.0725 6.41264 15.1685 6.52252L15.1691 6.52192ZM12.7903 6.04841L13.4814 7.7154C13.3314 7.80524 13.2294 7.95094 13.1923 8.11424L11.6091 7.99465C11.6042 7.92969 11.5896 7.86413 11.5635 7.80039C11.5253 7.70751 11.4664 7.6292 11.3953 7.56788L12.3834 6.0138C12.5085 6.06965 12.6512 6.08422 12.7909 6.04901L12.7903 6.04841ZM11.2247 8.6181C11.235 8.61385 11.2447 8.60839 11.2544 8.60414L12.2577 10.1048C12.1399 10.211 12.0676 10.3579 12.0542 10.514L10.7188 10.5935C10.6951 10.4781 10.6386 10.3683 10.5487 10.279C10.4995 10.2299 10.4443 10.1916 10.386 10.1619L10.8803 8.65695C10.9927 8.67638 11.1117 8.66545 11.2247 8.61871V8.6181ZM9.66389 11.1635C9.75317 11.2528 9.86309 11.3092 9.97847 11.3335L9.89892 12.6684C9.75742 12.6806 9.61895 12.7407 9.51085 12.8493C9.50357 12.8566 9.49689 12.8645 9.4902 12.8724L7.98835 11.8695C8.04362 11.7524 8.06062 11.6218 8.03876 11.4968L9.54668 11.002C9.57583 11.0609 9.6147 11.1162 9.66389 11.1647V11.1635ZM6.97963 12.045C7.09076 12.1561 7.23409 12.2162 7.37923 12.2265L7.49887 13.8054C7.33551 13.8425 7.18975 13.9445 7.09987 14.0944L5.43223 13.4036C5.46745 13.2646 5.45288 13.1219 5.397 12.9962L6.94866 12.0104C6.95837 12.0219 6.9687 12.0334 6.97963 12.0444V12.045ZM5.36239 13.5723L7.03003 14.2632C6.98692 14.4325 7.0185 14.608 7.10777 14.7494L5.90349 15.7839C5.8543 15.7414 5.79721 15.7049 5.73345 15.6788C5.64053 15.6406 5.54336 15.6266 5.44984 15.6333L5.04902 13.8358C5.17716 13.7866 5.2883 13.6962 5.36178 13.5729L5.36239 13.5723ZM6.07293 16.4959C6.07718 16.4856 6.08022 16.4753 6.08386 16.4644L7.85475 16.8165C7.84685 16.9749 7.89969 17.1297 7.99989 17.2499L7.11202 18.2498C7.01364 18.1854 6.89582 18.1472 6.7695 18.1472C6.70027 18.1472 6.63407 18.1587 6.57152 18.1793L5.85612 16.7655C5.94904 16.6999 6.02556 16.6083 6.07232 16.4953L6.07293 16.4959ZM6.7695 19.3989C6.89582 19.3989 7.01364 19.3613 7.11202 19.2963L7.99989 20.2962C7.90819 20.4048 7.85292 20.5451 7.85292 20.698C7.85292 20.7084 7.85414 20.7187 7.85475 20.729L6.08325 21.0811C6.03953 20.9591 5.95876 20.8553 5.85491 20.7818L6.57152 19.3661C6.63407 19.3868 6.70027 19.3983 6.7695 19.3983V19.3989ZM5.49539 21.9194C5.65268 21.9194 5.79661 21.8612 5.90653 21.7646L7.10838 22.7966C7.0191 22.9381 6.98813 23.1135 7.03064 23.2829L5.363 23.9737C5.28951 23.8505 5.17777 23.7601 5.05024 23.7109L5.44984 21.917C5.46502 21.9182 5.4802 21.9194 5.49599 21.9194H5.49539ZM5.43223 24.1425L7.09987 23.4517C7.18975 23.6016 7.33551 23.7036 7.49887 23.7406L7.37923 25.3232C7.31425 25.3281 7.24866 25.3427 7.1849 25.3688C7.09198 25.407 7.01364 25.4659 6.9523 25.5369L5.39761 24.5492C5.45348 24.4242 5.46806 24.2815 5.43284 24.1419L5.43223 24.1425ZM8.00293 25.7075C7.99868 25.6972 7.99321 25.6875 7.98896 25.6778L9.4902 24.6749C9.59648 24.7921 9.74345 24.8649 9.89953 24.8783L9.97908 26.2132C9.86369 26.2369 9.75377 26.2933 9.6645 26.3832C9.61531 26.4323 9.57705 26.4876 9.54729 26.5459L8.0418 26.0517C8.06123 25.9394 8.0503 25.8204 8.00353 25.7075H8.00293ZM10.5493 27.2677C10.6386 27.1784 10.6951 27.0685 10.7194 26.9532L12.0548 27.0327C12.067 27.1742 12.1271 27.3126 12.2358 27.4206C12.2431 27.4279 12.251 27.4346 12.2589 27.4413L11.2556 28.9425C11.1384 28.8873 11.0078 28.8703 10.8821 28.8922L10.3872 27.3848C10.4461 27.3557 10.5014 27.3168 10.5499 27.2677H10.5493ZM11.4311 29.9509C11.5423 29.8398 11.6024 29.6965 11.6127 29.5514L13.1923 29.4318C13.2294 29.5951 13.3314 29.7408 13.4814 29.8307L12.7903 31.4977C12.6512 31.4625 12.5085 31.477 12.3828 31.5329L11.3965 29.9818C11.4081 29.9721 11.4196 29.9618 11.4305 29.9509H11.4311ZM12.9591 31.5675L13.6502 29.9005C13.8196 29.9436 13.9952 29.912 14.1367 29.8228L15.1715 31.0266C15.129 31.0758 15.0925 31.1328 15.0664 31.196C15.0282 31.2888 15.0142 31.386 15.0209 31.4795L13.2227 31.8801C13.1735 31.752 13.083 31.6409 12.9597 31.5675H12.9591ZM15.8839 30.8572C15.8735 30.853 15.8632 30.8499 15.8523 30.8463L16.2045 29.0761C16.363 29.084 16.5179 29.0312 16.6381 28.931L17.6383 29.8185C17.574 29.9169 17.5357 30.0346 17.5357 30.1609C17.5357 30.2301 17.5473 30.2963 17.5679 30.3588L16.1535 31.0739C16.0879 30.9811 15.9962 30.9046 15.8833 30.8578L15.8839 30.8572ZM18.6853 29.8179L19.6856 28.9304C19.7943 29.0221 19.9346 29.0773 20.0876 29.0773C20.0979 29.0773 20.1082 29.0761 20.1186 29.0755L20.4708 30.8463C20.3487 30.89 20.2449 30.9707 20.1714 31.0745L18.7552 30.3582C18.7758 30.2957 18.7874 30.2295 18.7874 30.1603C18.7874 30.034 18.7497 29.9163 18.6847 29.8179H18.6853ZM21.1546 31.0236L22.187 29.8222C22.3285 29.9114 22.504 29.9424 22.6735 29.8999L23.3646 31.5669C23.2413 31.6403 23.1508 31.752 23.1016 31.8795L21.307 31.4801C21.3083 31.4649 21.3095 31.4497 21.3095 31.4339C21.3095 31.2767 21.2512 31.1328 21.1546 31.0229V31.0236ZM23.5334 31.4971L22.8423 29.8301C22.9923 29.7402 23.0943 29.5945 23.1314 29.4312L24.7146 29.5508C24.7195 29.6158 24.734 29.6813 24.7602 29.7451C24.7984 29.838 24.8573 29.9163 24.9284 29.9782L23.9403 31.5323C23.8152 31.4764 23.6725 31.4619 23.5328 31.4971H23.5334ZM25.099 28.9274C25.0887 28.9316 25.079 28.9371 25.0693 28.9413L24.066 27.4407C24.1838 27.3344 24.2561 27.1875 24.2695 27.0315L25.6049 26.952C25.6286 27.0673 25.6851 27.1772 25.775 27.2664C25.8241 27.3156 25.8794 27.3539 25.9377 27.3836L25.4434 28.8885C25.331 28.8691 25.212 28.88 25.099 28.9268V28.9274ZM23.0676 27.2167C23.1162 27.3338 23.1964 27.4279 23.2935 27.4941L22.7093 28.6967C22.6012 28.6627 22.4834 28.6578 22.3686 28.687L21.6775 27.02C21.802 26.9459 21.8931 26.833 21.9417 26.7031L23.0215 26.9362C23.0154 27.0291 23.0294 27.125 23.067 27.2167H23.0676ZM21.5093 27.0898L22.2004 28.7568C22.0984 28.8175 22.0188 28.9037 21.9666 29.0045L20.7028 28.5668C20.7101 28.5291 20.7137 28.4903 20.7137 28.4502C20.7137 28.2626 20.6305 28.0945 20.4999 27.9797L21.0987 27.0522C21.2251 27.1092 21.369 27.125 21.5099 27.0892L21.5093 27.0898ZM15.6573 28.211C15.6088 28.3282 15.599 28.4508 15.6209 28.5668L14.3571 29.0045C14.3049 28.9037 14.2247 28.8175 14.1233 28.7568L14.8144 27.0898C14.9553 27.125 15.0992 27.1098 15.2255 27.0528L15.8243 27.9804C15.7539 28.0417 15.6962 28.1194 15.6579 28.211H15.6573ZM14.645 27.02L13.9539 28.687C13.8391 28.6578 13.7213 28.6627 13.6132 28.6967L13.0289 27.4941C13.0605 27.4722 13.0909 27.448 13.1194 27.42C13.2524 27.2871 13.3119 27.1098 13.301 26.9362L14.3808 26.7031C14.4294 26.8324 14.5205 26.9453 14.645 27.02ZM9.71369 23.6769C9.59648 23.7255 9.50235 23.8056 9.43616 23.9027L8.23309 23.3187C8.2671 23.2107 8.27196 23.0929 8.24281 22.9782L9.91046 22.2873C9.98455 22.4118 10.0975 22.5028 10.2275 22.5514L9.99426 23.6307C9.90135 23.6247 9.80539 23.6386 9.71369 23.6763V23.6769ZM9.84062 22.1192L8.17297 22.81C8.11224 22.708 8.02601 22.6285 7.92519 22.5763L8.36306 21.313C8.40071 21.3203 8.43958 21.3239 8.47966 21.3239C8.66731 21.3239 8.83554 21.2407 8.95032 21.1102L9.87827 21.7088C9.82118 21.8351 9.80539 21.9789 9.84122 22.1198L9.84062 22.1192ZM8.71893 16.2695C8.60173 16.2209 8.47905 16.2112 8.36306 16.2331L7.92519 14.9698C8.02601 14.9176 8.11224 14.8375 8.17297 14.7361L9.84062 15.4269C9.80539 15.5677 9.82058 15.7116 9.87766 15.8379L8.94971 16.4365C8.88837 16.366 8.81064 16.3084 8.71893 16.2701V16.2695ZM9.91046 15.2575L8.24281 14.5667C8.27196 14.452 8.2671 14.3342 8.23309 14.2261L9.43616 13.6421C9.45802 13.6737 9.48231 13.7041 9.51025 13.7326C9.64324 13.8655 9.82058 13.925 9.99426 13.9141L10.2275 14.9935C10.0981 15.042 9.98516 15.1331 9.91046 15.2575ZM13.2549 10.3282C13.2063 10.211 13.1261 10.1169 13.0289 10.0508L13.6132 8.84818C13.7213 8.88217 13.8391 8.88703 13.9539 8.85789L14.645 10.5249C14.5205 10.5989 14.4294 10.7119 14.3808 10.8418L13.301 10.6087C13.3071 10.5158 13.2931 10.4199 13.2555 10.3282H13.2549ZM14.8132 10.4551L14.1221 8.78808C14.2241 8.72737 14.3037 8.64117 14.3559 8.5404L15.6197 8.97809C15.6124 9.01573 15.6088 9.05458 15.6088 9.09464C15.6088 9.28223 15.692 9.45038 15.8225 9.56512L15.2237 10.4927C15.0974 10.4356 14.9535 10.4199 14.8126 10.4557L14.8132 10.4551ZM20.6651 9.33383C20.7137 9.21666 20.7234 9.09404 20.7016 8.97809L21.9654 8.5404C22.0176 8.64117 22.0978 8.72737 22.1992 8.78808L21.5081 10.4551C21.3672 10.4199 21.2232 10.435 21.0969 10.4921L20.4981 9.56451C20.5686 9.5032 20.6263 9.42549 20.6645 9.33383H20.6651ZM21.6775 10.5249L22.3686 8.85789C22.4834 8.88703 22.6012 8.88217 22.7093 8.84818L23.2935 10.0508C23.2619 10.0726 23.2316 10.0969 23.203 10.1248C23.07 10.2578 23.0105 10.435 23.0215 10.6087L21.9417 10.8418C21.8931 10.7125 21.802 10.5996 21.6775 10.5249ZM20.1003 5.87054C20.0402 6.01623 20.039 6.17103 20.0858 6.30944L18.672 7.02396C18.5754 6.88737 18.4254 6.79145 18.2523 6.76595V4.96116C18.3944 4.94052 18.5208 4.87192 18.6149 4.77297L20.1198 5.82865C20.1131 5.84201 20.1058 5.85597 20.1003 5.86993V5.87054ZM18.0695 4.96177V6.76656C17.8965 6.79206 17.7464 6.88737 17.6499 7.02456L16.2331 6.30823C16.2537 6.24631 16.2652 6.18014 16.2652 6.11154C16.2652 6.01077 16.241 5.91607 16.1984 5.83229L17.7064 4.77418C17.8005 4.87374 17.9268 4.94173 18.0689 4.96237L18.0695 4.96177ZM10.4054 8.27875C10.4655 8.42445 10.5748 8.53433 10.7054 8.59928L10.2111 10.1042C10.0459 10.0757 9.8722 10.1139 9.73191 10.2189L8.45537 8.94288C8.541 8.82754 8.58229 8.69034 8.57865 8.55315L10.3896 8.23565C10.3945 8.25022 10.3993 8.26479 10.4048 8.27875H10.4054ZM8.32662 9.07158L9.60316 10.3476C9.49871 10.4879 9.46045 10.6615 9.48838 10.8266L7.97985 11.3213C7.9507 11.2631 7.91183 11.2078 7.86325 11.1593C7.79219 11.0882 7.70778 11.0385 7.61851 11.0087L7.93673 9.19481C8.07398 9.19845 8.21123 9.15717 8.32662 9.07158ZM6.84967 11.8562L5.29801 12.842C5.23607 12.7704 5.15773 12.7115 5.0642 12.6727C5.01987 12.6545 4.97432 12.6417 4.92817 12.6344L4.97068 10.531C5.10368 10.514 5.23243 10.4551 5.33445 10.3531C5.34174 10.3458 5.34842 10.3379 5.3551 10.33L6.85574 11.3323C6.77679 11.4974 6.77436 11.6892 6.84845 11.8562H6.84967ZM5.25368 16.8341C5.39943 16.8942 5.5543 16.8954 5.69276 16.8487L6.40755 18.2619C6.27091 18.3584 6.17496 18.5084 6.14945 18.6814H4.34395C4.3233 18.5393 4.25467 18.413 4.15568 18.319L5.21178 16.8147C5.22514 16.8213 5.23911 16.8286 5.25307 16.8341H5.25368ZM4.34455 18.8641H6.15006C6.17556 19.0371 6.27091 19.1871 6.40816 19.2836L5.69154 20.6999C5.6296 20.6792 5.5634 20.6677 5.49478 20.6677C5.39397 20.6677 5.29923 20.692 5.21542 20.7345L4.1569 19.2271C4.25649 19.133 4.32451 19.0068 4.34516 18.8647L4.34455 18.8641ZM4.97129 27.0145L4.92878 24.911C4.97432 24.9032 5.01987 24.891 5.06481 24.8722C5.15834 24.8333 5.23668 24.7745 5.29862 24.7028L6.85331 25.6905C6.78529 25.8423 6.77679 26.0201 6.84541 26.1859C6.84906 26.195 6.85392 26.2035 6.85817 26.212L5.35692 27.2148C5.25611 27.1038 5.11886 27.0327 4.97189 27.0139L4.97129 27.0145ZM7.66284 26.5252C7.80859 26.4651 7.91851 26.3559 7.98349 26.2253L9.48899 26.7195C9.46045 26.8846 9.49871 27.0582 9.60377 27.1985L8.32723 28.4745C8.21184 28.3889 8.07459 28.3476 7.93734 28.3513L7.61972 26.541C7.6343 26.5361 7.64887 26.5313 7.66284 26.5258V26.5252ZM8.45597 28.6032L9.73252 27.3272C9.8728 27.4316 10.0465 27.4698 10.2117 27.4419L10.7066 28.9498C10.6483 28.979 10.5931 29.0178 10.5445 29.0664C10.4734 29.1374 10.4236 29.2218 10.3939 29.311L8.57926 28.9929C8.5829 28.8557 8.5416 28.7185 8.45597 28.6032ZM16.2215 31.6749C16.2816 31.5292 16.2829 31.3744 16.2361 31.236L17.6499 30.5215C17.7464 30.6581 17.8965 30.754 18.0695 30.7795V32.5843C17.9274 32.6049 17.8011 32.6735 17.707 32.7725L16.2021 31.7168C16.2088 31.7035 16.2161 31.6895 16.2215 31.6755V31.6749ZM18.2523 32.5837V30.7789C18.4254 30.7534 18.5754 30.6581 18.672 30.5209L20.0888 31.2372C20.0682 31.2992 20.0566 31.3653 20.0566 31.4339C20.0566 31.5347 20.0809 31.6294 20.1234 31.7138L18.6155 32.7719C18.5214 32.6723 18.395 32.6043 18.2529 32.5837H18.2523ZM25.9165 29.2667C25.8563 29.121 25.747 29.0111 25.6164 28.9462L26.1108 27.4413C26.276 27.4698 26.4497 27.4316 26.5899 27.3265L27.8665 28.6026C27.7809 28.7179 27.7396 28.8551 27.7432 28.9923L25.9322 29.3098C25.9274 29.2952 25.9225 29.2807 25.9171 29.2667H25.9165ZM22.2872 23.0261L23.5638 24.3022C23.5146 24.3683 23.48 24.4418 23.4605 24.5183L22.5806 24.4242C22.5775 24.3525 22.5629 24.2797 22.5338 24.2093C22.4445 23.9944 22.249 23.8554 22.0334 23.828L22.0188 23.1402C22.1141 23.1245 22.2059 23.0856 22.2872 23.0255V23.0261ZM22.1949 25.027C22.2046 25.0227 22.2137 25.0179 22.2229 25.0136L23.2261 26.5143C23.1514 26.5817 23.0949 26.6661 23.0603 26.7583L21.9805 26.5252C21.9866 26.4323 21.9726 26.3364 21.935 26.2448C21.8724 26.0936 21.7565 25.9801 21.6186 25.9169L21.8682 25.0683C21.9751 25.0834 22.0874 25.0719 22.1949 25.0276V25.027ZM20.7781 26.7237C20.8163 26.8154 20.874 26.8931 20.9445 26.9544L20.3457 27.882C20.2667 27.8462 20.1793 27.8255 20.087 27.8255C20.0767 27.8255 20.0663 27.8268 20.056 27.8274L19.7038 26.0572C19.8198 26.0159 19.92 25.9412 19.9929 25.8447L20.7696 26.2684C20.7174 26.4111 20.7155 26.5726 20.7781 26.7237ZM19.0339 25.8921L18.4782 26.5805C18.4102 26.5404 18.3337 26.5125 18.2523 26.5009V24.6961C18.3525 24.6816 18.4442 24.6433 18.5232 24.5875L18.9993 25.0841C18.9167 25.1903 18.8675 25.3226 18.8675 25.4677C18.8675 25.6316 18.9313 25.7804 19.0339 25.8914V25.8921ZM18.0695 24.6961V26.5009C17.9882 26.5131 17.9116 26.5404 17.8436 26.5805L17.2879 25.8921C17.3365 25.8392 17.3778 25.7779 17.407 25.7075C17.4962 25.4926 17.4562 25.2565 17.3226 25.0847L17.7987 24.5881C17.8776 24.6439 17.9693 24.6822 18.0695 24.6968V24.6961ZM16.5889 26.0456C16.5987 26.0499 16.6084 26.0523 16.6181 26.056L16.2659 27.8262C16.165 27.8213 16.066 27.8407 15.9762 27.8814L15.3774 26.9538C15.4478 26.8925 15.5055 26.8148 15.5438 26.7231C15.6063 26.572 15.6045 26.4099 15.5523 26.2678L16.329 25.8441C16.394 25.9303 16.482 26.0019 16.5889 26.0462V26.0456ZM14.3869 26.2442C14.3486 26.3364 14.3346 26.4317 14.3413 26.5246L13.2621 26.7577C13.2318 26.6764 13.1844 26.5999 13.1188 26.5349C13.1115 26.5277 13.1036 26.521 13.0957 26.5143L14.099 25.0136C14.2107 25.0665 14.334 25.0847 14.4537 25.0677L14.7033 25.9163C14.5654 25.9801 14.45 26.093 14.3869 26.2442ZM13.9241 24.0059C13.8081 24.1219 13.748 24.2718 13.7419 24.4236L12.8619 24.5177C12.8419 24.4412 12.8079 24.3677 12.7587 24.3016L14.0352 23.0255C14.116 23.0856 14.2083 23.1245 14.3037 23.1402L14.2891 23.828C14.1561 23.8444 14.0267 23.9033 13.9247 24.0059H13.9241ZM13.9059 22.8962L12.6293 24.1722C12.5631 24.1231 12.4897 24.0885 12.4131 24.069L12.5073 23.1894C12.5789 23.1864 12.6518 23.1718 12.7223 23.1427C12.9372 23.0534 13.0763 22.858 13.1036 22.6425L13.7917 22.6279C13.8075 22.7232 13.8464 22.8155 13.9065 22.8962H13.9059ZM11.9042 22.8039C11.9085 22.8136 11.9133 22.8228 11.9176 22.8319L10.4163 23.8347C10.3489 23.7601 10.2645 23.7036 10.1722 23.669L10.4054 22.5896C10.4983 22.5957 10.5943 22.5817 10.686 22.5441C10.8372 22.4816 10.9508 22.3656 11.0139 22.2278L11.8629 22.4773C11.8477 22.5842 11.8593 22.6965 11.9036 22.8039H11.9042ZM10.2068 21.3877C10.1151 21.4259 10.0374 21.4836 9.97604 21.554L9.04809 20.9554C9.08392 20.8765 9.10457 20.7891 9.10457 20.6968C9.10457 20.6865 9.10336 20.6762 9.10275 20.6659L10.8736 20.3138C10.9149 20.4297 10.9896 20.5299 11.0862 20.6027L10.6623 21.3792C10.5196 21.3263 10.358 21.3251 10.2068 21.3877ZM11.4627 19.4778C11.2987 19.4778 11.15 19.5416 11.0388 19.6442L10.3501 19.0887C10.3902 19.0207 10.4182 18.9442 10.4297 18.8629H12.2352C12.2498 18.963 12.288 19.0547 12.3439 19.1336L11.8471 19.6096C11.7409 19.527 11.6085 19.4778 11.4633 19.4778H11.4627ZM12.2346 18.6808H10.4291C10.4169 18.5994 10.3896 18.5229 10.3495 18.4549L11.0382 17.8995C11.091 17.948 11.1524 17.9893 11.2228 18.0185C11.4378 18.1077 11.6741 18.0676 11.8459 17.9341L12.3427 18.41C12.2868 18.4889 12.2486 18.5806 12.234 18.6808H12.2346ZM10.8846 17.2007C10.8803 17.2105 10.8779 17.2202 10.8742 17.2299L9.10336 16.8778C9.10821 16.777 9.08878 16.6781 9.04809 16.5882L9.97604 15.9897C10.0374 16.0601 10.1151 16.1177 10.2068 16.156C10.358 16.2185 10.5202 16.2167 10.6623 16.1645L11.0862 16.9409C11 17.0059 10.9283 17.0939 10.884 17.2007H10.8846ZM10.686 14.9995C10.5943 14.9613 10.4983 14.9473 10.4054 14.954L10.1722 13.8753C10.2536 13.8449 10.3295 13.7976 10.3951 13.732C10.4024 13.7247 10.409 13.7168 10.4157 13.7089L11.917 14.7118C11.8641 14.8235 11.8459 14.9467 11.8629 15.0663L11.0139 15.3158C10.9502 15.178 10.8372 15.0627 10.686 14.9995ZM12.9251 14.537C12.8091 14.421 12.6591 14.3609 12.5073 14.3548L12.4131 13.4752C12.4897 13.4552 12.5631 13.4212 12.6293 13.372L13.9059 14.648C13.8458 14.7288 13.8069 14.8211 13.7911 14.9164L13.103 14.9018C13.0866 14.7689 13.0277 14.6396 12.9251 14.5376V14.537ZM14.0352 14.5187L12.7587 13.2427C12.8079 13.1765 12.8425 13.1031 12.8619 13.0266L13.7419 13.1207C13.7449 13.1923 13.7595 13.2652 13.7887 13.335C13.8779 13.5499 14.0735 13.6889 14.2891 13.7162L14.3037 14.404C14.2083 14.4198 14.116 14.4586 14.0352 14.5187ZM14.1275 12.5179C14.1178 12.5221 14.1087 12.527 14.0996 12.5312L13.0964 11.0306C13.1711 10.9632 13.2275 10.8788 13.2621 10.7865L14.3419 11.0196C14.3359 11.1125 14.3498 11.2084 14.3875 11.3001C14.45 11.4513 14.566 11.5648 14.7039 11.6279L14.4543 12.4766C14.3474 12.4614 14.235 12.4729 14.1275 12.5173V12.5179ZM15.5444 10.8211C15.5061 10.7295 15.4484 10.6518 15.378 10.5904L15.9768 9.66286C16.0557 9.69867 16.1432 9.71931 16.2355 9.71931C16.2458 9.71931 16.2561 9.7181 16.2665 9.71749L16.6187 11.4877C16.5027 11.529 16.4025 11.6036 16.3296 11.7002L15.5529 11.2764C15.6057 11.1338 15.6069 10.9723 15.5444 10.8211ZM17.2885 11.6528L17.8442 10.9644C17.9122 11.0045 17.9888 11.0324 18.0701 11.0439V12.8487C17.9699 12.8633 17.8782 12.9015 17.7993 12.9574L17.3232 12.4608C17.4058 12.3546 17.4549 12.2222 17.4549 12.0771C17.4549 11.9132 17.3912 11.7645 17.2885 11.6534V11.6528ZM18.2529 12.8481V11.0433C18.3343 11.0312 18.4108 11.0039 18.4789 10.9638L19.0345 11.6522C18.9859 11.705 18.9447 11.7663 18.9155 11.8367C18.8262 12.0516 18.8663 12.2878 18.9999 12.4596L18.5238 12.9562C18.4448 12.9003 18.3531 12.8621 18.2529 12.8475V12.8481ZM19.7335 11.4986C19.7238 11.4944 19.7141 11.4919 19.7044 11.4883L20.0566 9.7181C20.1574 9.72295 20.2564 9.70353 20.3463 9.66286L20.9451 10.5904C20.8747 10.6518 20.817 10.7295 20.7787 10.8211C20.7161 10.9723 20.718 11.1344 20.7702 11.2764L19.9935 11.7002C19.9285 11.614 19.8404 11.5429 19.7335 11.498V11.4986ZM21.9356 11.3001C21.9739 11.2084 21.9878 11.1125 21.9812 11.0196L23.0603 10.7871C23.0907 10.8685 23.1381 10.9444 23.2036 11.0099C23.2109 11.0172 23.2188 11.0239 23.2267 11.0306L22.2235 12.5312C22.1123 12.4784 21.9884 12.4602 21.8688 12.4772L21.6192 11.6285C21.7571 11.5648 21.8724 11.4519 21.9356 11.3007V11.3001ZM22.3984 13.5383C22.5144 13.4224 22.5745 13.2724 22.5806 13.1207L23.4605 13.0266C23.4806 13.1031 23.5146 13.1765 23.5638 13.2427L22.2872 14.5187C22.2065 14.4586 22.1141 14.4198 22.0188 14.404L22.0334 13.7162C22.1664 13.6998 22.2957 13.6409 22.3978 13.5383H22.3984ZM27.926 8.12638C27.8543 8.19801 27.8046 8.2824 27.7748 8.37224L25.9602 8.05414C25.965 7.8878 25.9043 7.72026 25.778 7.59338C25.7713 7.5867 25.7634 7.58063 25.7561 7.57395L26.7594 6.0733C26.8954 6.13765 27.0491 6.15039 27.1918 6.11154L28.0365 8.03836C27.9971 8.06325 27.96 8.09178 27.926 8.12577V8.12638ZM26.4102 5.40492L24.3059 5.36243C24.2822 5.17606 24.1747 5.00487 24.0065 4.9047L24.6976 3.23771C24.8543 3.27717 25.0152 3.2541 25.1507 3.18004L26.5808 5.07043C26.4873 5.16574 26.4308 5.2829 26.4102 5.40492ZM24.5288 3.16729L23.8377 4.83428C23.6476 4.78632 23.4508 4.83125 23.302 4.94598L21.7838 3.48903C21.8105 3.45139 21.8342 3.41011 21.8524 3.3658C21.884 3.28931 21.8992 3.20978 21.8998 3.13147L24.2488 2.80609C24.2919 2.95421 24.3897 3.08412 24.5282 3.16729H24.5288ZM21.035 3.70454C21.0447 3.70879 21.0544 3.71122 21.0641 3.71486L20.7119 5.48445C20.5291 5.47473 20.3505 5.54576 20.2248 5.67871L18.7199 4.62302C18.7625 4.53864 18.7868 4.44333 18.7868 4.34256C18.7868 4.2946 18.7807 4.24725 18.7704 4.20233L20.7307 3.43683C20.7969 3.55338 20.9008 3.6499 21.0344 3.70515L21.035 3.70454ZM17.6025 4.62302L16.0946 5.68053C15.9804 5.55972 15.8189 5.48384 15.6397 5.48384C15.63 5.48384 15.6203 5.48505 15.6106 5.48505L15.2583 3.71486C15.3998 3.66447 15.5177 3.56492 15.5911 3.43622L17.5515 4.20172C17.5412 4.24665 17.5351 4.29339 17.5351 4.34195C17.5351 4.44273 17.5594 4.53804 17.6019 4.62242L17.6025 4.62302ZM14.5387 3.48903L13.0204 4.94598C12.8717 4.83064 12.6749 4.78632 12.4848 4.83428L11.7937 3.16729C11.9322 3.08473 12.0299 2.95421 12.0731 2.80609L14.4221 3.13147C14.4233 3.26442 14.4664 3.38765 14.5381 3.48843L14.5387 3.48903ZM11.6255 3.2371L12.3166 4.90409C12.1484 5.00426 12.0409 5.17545 12.0172 5.36182L9.91289 5.40431C9.90499 5.35878 9.89285 5.31325 9.87402 5.26833C9.84244 5.19184 9.79689 5.12507 9.74163 5.06922L11.1718 3.17882C11.3072 3.25289 11.4682 3.27595 11.6249 3.23649L11.6255 3.2371ZM9.53515 6.08665C9.54486 6.0824 9.55397 6.07755 9.56308 6.0733L10.5657 7.57335C10.4297 7.69597 10.3538 7.87202 10.3586 8.05475L8.54768 8.37224C8.51792 8.2824 8.46812 8.19801 8.39646 8.12638C8.36245 8.09239 8.3248 8.06325 8.28593 8.03896L9.13068 6.11215C9.26004 6.14736 9.40154 6.1425 9.53515 6.08726V6.08665ZM7.51162 9.01087C7.58328 9.0825 7.6677 9.13228 7.75758 9.16203L7.43935 10.9759C7.27295 10.9711 7.10534 11.0318 6.97841 11.158C6.97173 11.1647 6.96566 11.1726 6.95898 11.1799L5.45773 10.177C5.52211 10.0411 5.53486 9.88747 5.49599 9.74481L7.42356 8.90038C7.44846 8.93984 7.47701 8.97687 7.51101 9.01087H7.51162ZM4.7891 10.5261L4.74659 12.6296C4.56014 12.6532 4.38889 12.7607 4.28868 12.9288L2.62104 12.238C2.66051 12.0814 2.63743 11.9205 2.56334 11.7851L4.45447 10.3555C4.54921 10.449 4.66703 10.5055 4.7891 10.5261ZM2.55059 12.4068L4.21824 13.0976C4.17026 13.2876 4.2152 13.4843 4.32998 13.633L2.87246 15.1507C2.83481 15.124 2.79351 15.1003 2.74918 15.0821C2.67266 15.0505 2.5931 15.0354 2.51476 15.0347L2.18925 12.6866C2.33743 12.6435 2.46739 12.5458 2.55059 12.4074V12.4068ZM3.08805 15.8992C3.0923 15.8895 3.09473 15.8798 3.09837 15.8701L4.86865 16.2222C4.85894 16.4049 4.9306 16.5834 5.06299 16.709L4.00689 18.2133C3.92248 18.1708 3.82713 18.1465 3.72632 18.1465C3.67835 18.1465 3.63098 18.1526 3.58604 18.1629L2.82023 16.2033C2.93683 16.1372 3.03339 16.0334 3.08866 15.8998L3.08805 15.8992ZM3.72571 19.3977C3.82653 19.3977 3.92187 19.3734 4.00629 19.3309L5.0642 20.8383C4.94335 20.9524 4.86744 21.1139 4.86744 21.293C4.86744 21.3027 4.86865 21.3124 4.86865 21.3221L3.09777 21.6742C3.04736 21.5327 2.94776 21.415 2.81902 21.3415L3.58482 19.3819C3.62976 19.3922 3.67652 19.3983 3.72511 19.3983L3.72571 19.3977ZM2.87246 22.393L4.32998 23.9106C4.21459 24.0593 4.17026 24.256 4.21824 24.446L2.55059 25.1369C2.468 24.9985 2.33743 24.9007 2.18925 24.8576L2.51476 22.5095C2.64776 22.5083 2.77104 22.4652 2.87185 22.3936L2.87246 22.393ZM2.62043 25.305L4.28807 24.6142C4.38828 24.7823 4.55954 24.8898 4.74598 24.9135L4.78849 27.0169C4.74294 27.0248 4.69739 27.037 4.65245 27.0558C4.57593 27.0874 4.50913 27.1329 4.45326 27.1881L2.56213 25.7585C2.63622 25.6231 2.6593 25.4623 2.61982 25.3056L2.62043 25.305ZM5.4711 27.3945C5.46684 27.3848 5.46199 27.3757 5.45773 27.3666L6.95837 26.3644C7.08105 26.5003 7.25716 26.5762 7.43996 26.5714L7.75758 28.3816C7.6677 28.4114 7.58328 28.4611 7.51162 28.5328C7.47761 28.5668 7.44846 28.6044 7.42417 28.6433L5.4966 27.7988C5.53182 27.6695 5.52697 27.5281 5.4717 27.3945H5.4711ZM8.39646 29.4173C8.46812 29.3456 8.51792 29.2613 8.54768 29.1714L10.3623 29.4895C10.3574 29.6558 10.4182 29.8234 10.5445 29.9503C10.5512 29.9569 10.5591 29.963 10.5663 29.9697L9.56308 31.4704C9.42705 31.406 9.2734 31.3933 9.13068 31.4321L8.28593 29.5053C8.3254 29.4804 8.36245 29.4519 8.39646 29.4179V29.4173ZM9.91167 32.1387L12.016 32.1812C12.0397 32.3676 12.1471 32.5388 12.3154 32.6389L11.6243 34.3059C11.4676 34.2665 11.3066 34.2895 11.1712 34.3636L9.74102 32.4732C9.83454 32.3785 9.89102 32.2607 9.91167 32.1387ZM11.7931 34.3757L12.4842 32.7088C12.6743 32.7567 12.871 32.7118 13.0198 32.5971L14.5381 34.054C14.5114 34.0916 14.4877 34.1329 14.4695 34.1772C14.4379 34.2537 14.4227 34.3333 14.4221 34.4116L12.0731 34.7376C12.0299 34.5894 11.9322 34.4595 11.7937 34.3764L11.7931 34.3757ZM15.2869 33.8385C15.2772 33.8343 15.2674 33.8318 15.2577 33.8282L15.61 32.0586C15.7928 32.0683 15.9713 31.9967 16.097 31.8643L17.6019 32.92C17.5594 33.0044 17.5351 33.0997 17.5351 33.2005C17.5351 33.2484 17.5412 33.2952 17.5515 33.3407L15.5911 34.1062C15.5249 33.9897 15.4211 33.8931 15.2875 33.8379L15.2869 33.8385ZM18.7193 32.92L20.2273 31.8625C20.3414 31.9833 20.503 32.0592 20.6821 32.0592C20.6919 32.0592 20.7016 32.058 20.7113 32.058L21.0635 33.8282C20.922 33.8786 20.8042 33.9781 20.7307 34.1068L18.7704 33.3413C18.7807 33.2964 18.7868 33.2496 18.7868 33.2011C18.7868 33.1003 18.7625 33.005 18.7199 32.9206L18.7193 32.92ZM21.7832 34.054L23.3014 32.5971C23.4502 32.7124 23.647 32.7567 23.8371 32.7088L24.5282 34.3757C24.3897 34.4583 24.2919 34.5888 24.2488 34.7369L21.8998 34.411C21.8986 34.278 21.8554 34.1548 21.7838 34.054H21.7832ZM24.6964 34.3059L24.0053 32.6389C24.1735 32.5388 24.281 32.3676 24.3047 32.1812L26.409 32.1387C26.4169 32.1843 26.429 32.2298 26.4472 32.2741C26.4788 32.3506 26.5244 32.4174 26.5796 32.4732L25.1494 34.3636C25.014 34.2895 24.8531 34.2665 24.6964 34.3059ZM26.7867 31.4564C26.777 31.4606 26.7679 31.4655 26.7588 31.4697L25.7561 29.9697C25.8922 29.8471 25.9681 29.671 25.9632 29.4883L27.7742 29.1708C27.8039 29.2606 27.8537 29.345 27.9254 29.4167C27.9594 29.4507 27.9971 29.4798 28.0359 29.5041L27.1912 31.4309C27.0618 31.3957 26.9203 31.4005 26.7867 31.4558V31.4564ZM28.3341 25.6765C28.2789 25.7937 28.2618 25.9242 28.2837 26.0499L26.7758 26.5446C26.7466 26.4858 26.7078 26.4305 26.6586 26.382C26.5693 26.2927 26.4594 26.2363 26.344 26.212L26.4229 24.877C26.5644 24.8649 26.7029 24.8048 26.811 24.6961C26.8183 24.6889 26.825 24.681 26.8317 24.6731L28.3335 25.6759L28.3341 25.6765ZM25.8035 23.9865C25.7604 24.0775 25.7403 24.1765 25.744 24.2754L24.6575 24.4734C24.6278 24.3853 24.578 24.3022 24.5075 24.2317C24.3915 24.1158 24.2415 24.0557 24.0897 24.0496L23.9956 23.17C24.1006 23.1433 24.1996 23.0892 24.2816 23.0073C24.2889 23 24.2956 22.9921 24.3023 22.9842L25.8035 23.9871V23.9865ZM21.3514 24.2827C21.3155 24.412 21.321 24.5541 21.3763 24.6876C21.4388 24.8388 21.5542 24.9517 21.6927 25.0155L21.4431 25.8641C21.3647 25.8532 21.2834 25.8568 21.2038 25.8769L20.5127 24.2099C20.5995 24.1583 20.67 24.0879 20.7216 24.0059L21.352 24.2827H21.3514ZM20.0518 24.2827C20.1459 24.3046 20.2455 24.304 20.3439 24.2797L21.035 25.9467C20.9639 25.9892 20.9044 26.0438 20.8564 26.107L20.0797 25.6832C20.1046 25.6158 20.1186 25.543 20.1186 25.4671C20.1186 25.234 19.991 25.0312 19.8022 24.9238L20.0518 24.2827ZM16.5185 24.9238C16.4019 24.99 16.3053 25.0938 16.2495 25.2273C16.1869 25.3785 16.1887 25.54 16.241 25.6826L15.4642 26.1063C15.4168 26.0432 15.3567 25.9886 15.2857 25.9461L15.9768 24.2791C16.0746 24.304 16.1741 24.304 16.2689 24.2821L16.5185 24.9232V24.9238ZM15.5996 24.0053C15.6513 24.0873 15.7217 24.1577 15.8086 24.2093L15.1174 25.8763C15.0373 25.8562 14.9565 25.8526 14.8782 25.8635L14.6286 25.0149C14.6942 24.9845 14.7555 24.9432 14.8089 24.8898C14.9735 24.7253 15.027 24.4916 14.9699 24.2821L15.5996 24.0053ZM12.6476 21.9613C12.5182 21.9255 12.3761 21.931 12.2425 21.9862C12.0913 22.0487 11.9783 22.1647 11.9145 22.3025L11.0655 22.053C11.0765 21.9747 11.0728 21.8933 11.0528 21.8138L12.7204 21.123C12.7721 21.2098 12.8425 21.2802 12.9245 21.3318L12.6476 21.9619V21.9613ZM12.6476 20.6622C12.6257 20.7563 12.6263 20.8559 12.6506 20.9542L10.9829 21.645C10.9404 21.574 10.8858 21.5145 10.8226 21.4666L11.2465 20.6901C11.3139 20.715 11.3868 20.729 11.4627 20.729C11.6959 20.729 11.8988 20.6015 12.0062 20.4127L12.6476 20.6622ZM12.0062 17.1303C11.9401 17.0138 11.8362 16.9172 11.7026 16.8614C11.5514 16.7989 11.3898 16.8007 11.2471 16.8529L10.8232 16.0765C10.8864 16.0291 10.941 15.969 10.9836 15.898L12.6512 16.5888C12.6263 16.6866 12.6263 16.7861 12.6482 16.8808L12.0069 17.1303H12.0062ZM12.9251 16.2118C12.8431 16.2628 12.7727 16.3339 12.721 16.4207L11.0534 15.7298C11.0734 15.6497 11.0771 15.569 11.0661 15.4907L11.9152 15.2411C11.9455 15.3067 11.9868 15.368 12.0403 15.4214C12.2048 15.586 12.4386 15.6394 12.6482 15.5823L12.9251 16.2118ZM14.9699 13.2609C15.0057 13.1316 15.0002 12.9896 14.945 12.856C14.8824 12.7048 14.767 12.5919 14.6286 12.5282L14.8782 11.6795C14.9565 11.6904 15.0379 11.6868 15.1174 11.6668L15.8086 13.3338C15.7217 13.3854 15.6513 13.4558 15.5996 13.5377L14.9693 13.2609H14.9699ZM16.2695 13.2609C16.1754 13.2391 16.0758 13.2397 15.9774 13.2639L15.2863 11.597C15.3573 11.5545 15.4168 11.4998 15.4648 11.4367L16.2416 11.8604C16.2167 11.9278 16.2027 12.0007 16.2027 12.0765C16.2027 12.3096 16.3302 12.5124 16.5191 12.6199L16.2695 13.2609ZM19.8028 12.6199C19.9194 12.5537 20.0159 12.4499 20.0718 12.3163C20.1344 12.1652 20.1325 12.0037 20.0803 11.861L20.857 11.4373C20.9044 11.5004 20.9645 11.5551 21.0356 11.5976L20.3445 13.2646C20.2467 13.2397 20.1471 13.2397 20.0524 13.2615L19.8028 12.6205V12.6199ZM20.7216 13.5383C20.67 13.4564 20.5995 13.386 20.5127 13.3344L21.2038 11.6674C21.284 11.6874 21.3647 11.691 21.4431 11.6801L21.6927 12.5288C21.6277 12.5591 21.5658 12.6004 21.5123 12.6538C21.3477 12.8184 21.2943 13.0521 21.3514 13.2615L20.7216 13.5383ZM24.3029 14.56C24.2962 14.5521 24.2895 14.5442 24.2822 14.537C24.2002 14.455 24.1006 14.401 23.9962 14.3743L24.0903 13.4946C24.2421 13.4886 24.3921 13.4285 24.5081 13.3125C24.5786 13.2421 24.6278 13.1589 24.6581 13.0709L25.7446 13.2688C25.7416 13.3678 25.761 13.4667 25.8041 13.5578L24.3029 14.5606V14.56ZM26.8329 12.87C26.8256 12.8621 26.8195 12.8542 26.8122 12.8469C26.7041 12.7388 26.5657 12.6787 26.4242 12.666L26.3452 11.3311C26.4606 11.3074 26.5705 11.2509 26.6598 11.1611C26.709 11.1119 26.7472 11.0567 26.777 10.9984L28.2849 11.4931C28.2631 11.6188 28.2801 11.7487 28.3353 11.8665L26.8335 12.8694L26.8329 12.87ZM29.3629 11.1799C29.3562 11.1726 29.3501 11.1653 29.3434 11.158C29.2165 11.0312 29.0489 10.9711 28.8825 10.9759L28.5643 9.16203C28.6542 9.13228 28.7386 9.0825 28.8102 9.01087C28.8442 8.97687 28.8734 8.93924 28.8977 8.90038L30.8253 9.74481C30.7864 9.88807 30.7991 10.0417 30.8635 10.177L29.3623 11.1799H29.3629ZM31.1848 9.33383C31.1125 9.36418 31.0451 9.4085 30.9868 9.46738C30.9528 9.50138 30.9236 9.53901 30.8994 9.57787L28.9718 8.73344C29.021 8.55193 28.987 8.35282 28.8704 8.19619L30.1469 6.92015C30.2763 7.01667 30.4342 7.05674 30.5878 7.04035L31.1854 9.33383H31.1848ZM29.8973 6.35072C29.8809 6.5037 29.921 6.66154 30.0175 6.79084L28.741 8.06689C28.5837 7.94973 28.3851 7.91634 28.2035 7.96551L27.3588 6.03869C27.3983 6.0138 27.4353 5.98527 27.4693 5.95128C27.5282 5.89239 27.572 5.82501 27.6029 5.75338L29.8973 6.35072ZM20.6943 2.8929C20.6445 3.01613 20.6372 3.14665 20.6651 3.26745L18.7048 4.03296C18.6112 3.86966 18.4467 3.7531 18.2529 3.72457V1.91978C18.4127 1.8961 18.5529 1.81354 18.6495 1.69334L20.6949 2.8929H20.6943ZM17.6736 1.69334C17.7701 1.81354 17.9104 1.89671 18.0701 1.91978V3.72457C17.8764 3.7531 17.7118 3.86966 17.6183 4.03296L15.6579 3.26745C15.6683 3.22253 15.6743 3.17579 15.6743 3.12722C15.6743 3.04406 15.6579 2.96514 15.6288 2.8929L17.6742 1.69334H17.6736ZM8.71954 5.75338C8.77177 5.876 8.85861 5.97313 8.96368 6.03869L8.11892 7.96551C7.93734 7.91634 7.73815 7.95033 7.58146 8.06689L6.30492 6.79084C6.40148 6.66154 6.44156 6.5037 6.42516 6.35012L8.71954 5.75277V5.75338ZM5.73527 7.04035C5.88831 7.05674 6.04621 7.01667 6.17556 6.92015L7.45211 8.19619C7.3349 8.35342 7.3015 8.55193 7.35069 8.73344L5.42312 9.57787C5.39822 9.53841 5.36968 9.50138 5.33567 9.46738C5.27676 9.4085 5.20935 9.36479 5.13769 9.33383L5.73527 7.04035ZM2.27609 16.2398C2.39937 16.2895 2.52994 16.2968 2.65079 16.2689L3.4166 18.2285C3.25324 18.322 3.13663 18.4865 3.10809 18.6802H1.30259C1.2789 18.5205 1.19631 18.3803 1.07607 18.2837L2.27609 16.2392V16.2398ZM1.07607 19.2593C1.19631 19.1628 1.27951 19.0225 1.30259 18.8629H3.10809C3.13663 19.0565 3.25324 19.2211 3.4166 19.3145L2.65079 21.2741C2.60585 21.2638 2.55909 21.2577 2.51051 21.2577C2.42731 21.2577 2.34836 21.2741 2.27609 21.3033L1.07607 19.2587V19.2593ZM5.13769 28.2098C5.26036 28.1576 5.35753 28.0708 5.42312 27.9658L7.35069 28.8102C7.3015 28.9917 7.33551 29.1908 7.45211 29.3475L6.17556 30.6235C6.04621 30.527 5.88831 30.4869 5.73466 30.5033L5.13708 28.2098H5.13769ZM6.42516 31.1929C6.44156 31.0399 6.40148 30.8821 6.30492 30.7522L7.58146 29.4762C7.73875 29.5933 7.93734 29.6267 8.11892 29.5775L8.96368 31.5043C8.9242 31.5292 8.88716 31.5578 8.85315 31.5918C8.79424 31.6506 8.75051 31.718 8.71954 31.7897L6.42516 31.1923V31.1929ZM15.6282 34.6507C15.678 34.5275 15.6853 34.397 15.6573 34.2762L17.6177 33.5107C17.7112 33.674 17.8758 33.7905 18.0695 33.8191V35.6239C17.9098 35.6475 17.7695 35.7301 17.673 35.8503L15.6276 34.6507H15.6282ZM18.6489 35.8503C18.5523 35.7301 18.4121 35.6469 18.2523 35.6239V33.8191C18.4461 33.7905 18.6106 33.674 18.7042 33.5107L20.6645 34.2762C20.6542 34.3211 20.6481 34.3679 20.6481 34.4164C20.6481 34.4996 20.6645 34.5785 20.6937 34.6507L18.6483 35.8503H18.6489ZM27.6029 31.7903C27.5507 31.6676 27.4639 31.5705 27.3588 31.505L28.2035 29.5781C28.3851 29.6273 28.5843 29.5933 28.741 29.4768L30.0175 30.7528C29.921 30.8821 29.8809 31.0399 29.8973 31.1935L27.6029 31.7909V31.7903ZM30.5872 30.5033C30.4342 30.4869 30.2763 30.527 30.1463 30.6235L28.8698 29.3475C28.987 29.1902 29.021 28.9917 28.9712 28.8102L30.8987 27.9658C30.9236 28.0052 30.9522 28.0423 30.9862 28.0763C31.0451 28.1352 31.1125 28.1789 31.1842 28.2098L30.5866 30.5033H30.5872Z" fill="url(#paint0_linear_1301_5518)"/>
</g>
<defs>
<linearGradient id="paint0_linear_1301_5518" x1="13.4711" y1="5.24526" x2="21.2127" y2="34.8665" gradientUnits="userSpaceOnUse">
<stop stop-color="#19FFAB"/>
<stop offset="1" stop-color="#136EFF"/>
</linearGradient>
</defs>
</svg>
