<svg width="150" height="150" viewBox="0 0 212 112" fill="none" xmlns="http://www.w3.org/2000/svg" >
<g clip-path="url(#clip0_685_53425)">
<path d="M60.6274 72.2204C60.6132 72.2346 60.6002 72.25 60.5872 72.2653L57.6699 70.3168C57.886 69.8648 57.808 69.3066 57.4338 68.9325C56.958 68.4569 56.1882 68.4569 55.7124 68.9325C55.6971 68.9478 55.6829 68.9644 55.6687 68.9809L52.7502 67.0312C52.9639 66.5792 52.886 66.0246 52.5117 65.6504C52.0359 65.1748 51.2662 65.1748 50.7904 65.6504C50.7762 65.6646 50.7632 65.6799 50.7502 65.6953L47.8317 63.7457C48.0454 63.2936 47.9675 62.739 47.5932 62.3648C47.1174 61.8892 46.3477 61.8892 45.8719 62.3648C45.6865 62.5501 45.5743 62.7815 45.533 63.0222L44.1954 62.9939C44.1635 62.7354 44.049 62.484 43.8494 62.2858C43.3736 61.8102 42.6039 61.8102 42.1281 62.2858C41.6523 62.7614 41.6523 63.5309 42.1281 64.0065C42.3264 64.2047 42.5779 64.3192 42.8365 64.3523L42.8648 65.6894C42.7762 65.7047 42.6889 65.7283 42.6027 65.7637C42.3595 65.8641 42.1682 66.0352 42.0384 66.2417L40.8129 65.7035C40.8825 65.4522 40.8719 65.176 40.7645 64.9164C40.5071 64.2956 39.7952 64.0006 39.1741 64.2578C38.5531 64.5151 38.258 65.2268 38.5154 65.8475C38.6228 66.1072 38.8105 66.309 39.0384 66.4376L38.5531 67.6839C38.4658 67.6638 38.3749 67.652 38.2816 67.652C38.0195 67.652 37.7763 67.7358 37.5779 67.8774L36.6523 66.912C36.8129 66.7055 36.9085 66.4482 36.9085 66.1662C36.9085 65.4947 36.3642 64.9494 35.6913 64.9494C35.0183 64.9494 34.474 65.4935 34.474 66.1662C34.474 66.4471 34.5709 66.7055 34.7302 66.912L33.8046 67.8774C33.7314 67.8255 33.6523 67.7806 33.5661 67.7452C33.3229 67.6449 33.0667 67.6296 32.8294 67.6839L32.3442 66.4376C32.5709 66.309 32.7586 66.1072 32.8672 65.8475C33.1246 65.2268 32.8294 64.5151 32.2084 64.2578C31.5874 64.0006 30.8755 64.2956 30.6181 64.9164C30.5107 65.176 30.5012 65.4522 30.5697 65.7035L29.3454 66.2417C29.2982 66.1662 29.2415 66.0942 29.1754 66.0281C28.99 65.8428 28.7586 65.7307 28.5178 65.6894L28.5461 64.3523C28.8047 64.3204 29.0561 64.2059 29.2545 64.0065C29.7303 63.5309 29.7303 62.7614 29.2545 62.2858C28.7787 61.8102 28.0089 61.8102 27.5331 62.2858C27.3336 62.484 27.2202 62.7354 27.1872 62.9939L25.8495 63.0222C25.8342 62.9337 25.8106 62.8464 25.7752 62.7602C25.6748 62.5171 25.5036 62.3259 25.297 62.1961L25.8354 60.9711C26.0868 61.0407 26.3631 61.0301 26.6228 60.9227C27.2439 60.6654 27.539 59.9538 27.2816 59.333C27.0243 58.7122 26.3123 58.4172 25.6913 58.6745C25.4316 58.7819 25.2297 58.9695 25.101 59.1973L23.8543 58.7122C23.8743 58.6249 23.8861 58.534 23.8861 58.4408C23.8861 58.1788 23.8023 57.9357 23.6606 57.7374L24.6264 56.8122C24.833 56.9727 25.0904 57.0683 25.3726 57.0683C26.0443 57.0683 26.5898 56.5242 26.5898 55.8515C26.5898 55.1788 26.0455 54.6347 25.3726 54.6347C25.0916 54.6347 24.833 54.7315 24.6264 54.8908L23.6606 53.9656C23.7126 53.8924 23.7575 53.8133 23.7929 53.7272C23.8932 53.4841 23.9086 53.228 23.8543 52.9908L25.101 52.5057C25.2297 52.7323 25.4316 52.92 25.6913 53.0285C26.3123 53.2858 27.0243 52.9908 27.2816 52.37C27.539 51.7492 27.2439 51.0376 26.6228 50.7803C26.3631 50.6729 26.0868 50.6635 25.8354 50.7319L25.297 49.5081C25.3726 49.4609 25.4446 49.4042 25.5107 49.3381C25.6961 49.1529 25.8082 48.9215 25.8495 48.6808L27.1872 48.7091C27.2191 48.9676 27.3336 49.2189 27.5331 49.4172C28.0089 49.8928 28.7787 49.8928 29.2545 49.4172C29.7303 48.9416 29.7303 48.1721 29.2545 47.6965C29.055 47.4983 28.8047 47.3838 28.5461 47.3507L28.5178 46.0136C28.6063 45.9983 28.6937 45.9747 28.7799 45.9393C29.0231 45.8389 29.2143 45.6678 29.3442 45.4613L30.5697 45.9994C30.5 46.2508 30.5107 46.527 30.6181 46.7866C30.8755 47.4074 31.5874 47.7024 32.2084 47.4452C32.8294 47.1879 33.1246 46.4762 32.8672 45.8555C32.7598 45.5958 32.5721 45.394 32.3442 45.2654L32.8294 44.0191C32.9168 44.0392 33.0077 44.051 33.101 44.051C33.3631 44.051 33.6063 43.9672 33.8046 43.8256L34.7302 44.791C34.5697 44.9975 34.474 45.2548 34.474 45.5368C34.474 46.2083 35.0183 46.7536 35.6913 46.7536C36.3642 46.7536 36.9085 46.2095 36.9085 45.5368C36.9085 45.2559 36.8117 44.9975 36.6523 44.791L37.5779 43.8256C37.6511 43.8775 37.7302 43.9223 37.8164 43.9578C38.0596 44.0581 38.3158 44.0734 38.5531 44.0191L39.0384 45.2654C38.8117 45.394 38.624 45.5958 38.5154 45.8555C38.258 46.4762 38.5531 47.1879 39.1741 47.4452C39.7952 47.7024 40.5071 47.4074 40.7645 46.7866C40.8719 46.527 40.8813 46.2508 40.8129 45.9994L42.0372 45.4613C42.0844 45.5368 42.1411 45.6088 42.2072 45.6749C42.3925 45.8602 42.6239 45.9723 42.8648 46.0136L42.8365 47.3507C42.5779 47.3826 42.3264 47.4971 42.1281 47.6965C41.6523 48.1721 41.6523 48.9416 42.1281 49.4172C42.6039 49.8928 43.3736 49.8928 43.8494 49.4172C44.0478 49.2189 44.1623 48.9676 44.1954 48.7091L45.533 48.6808C45.5732 48.9215 45.6853 49.1529 45.8719 49.3381C46.3477 49.8137 47.1174 49.8137 47.5932 49.3381C47.9675 48.964 48.0454 48.4093 47.8317 47.9573L50.7502 46.0077C50.7644 46.023 50.7762 46.0384 50.7904 46.0526C51.2662 46.5282 52.0359 46.5282 52.5117 46.0526C52.886 45.6784 52.9639 45.1238 52.7502 44.6718L55.6687 42.7221C55.6829 42.7386 55.6971 42.7552 55.7124 42.7705C56.1882 43.2461 56.958 43.2461 57.4338 42.7705C57.808 42.3964 57.886 41.8382 57.6699 41.3862L60.5872 39.4377C60.6002 39.453 60.6132 39.4684 60.6274 39.4825C61.1032 39.9582 61.873 39.9582 62.3488 39.4825C62.8245 39.0069 62.8245 38.2375 62.3488 37.7619C62.0772 37.4904 61.71 37.3748 61.357 37.4137L60.1953 32.955C60.3358 32.896 60.4668 32.8099 60.5802 32.6954C61.056 32.2198 61.056 31.4503 60.5802 30.9747C60.1044 30.4991 59.3346 30.4991 58.8588 30.9747C58.7443 31.0892 58.6593 31.2202 58.5991 31.3594L54.1386 30.1982C54.1764 29.8441 54.0607 29.4771 53.7904 29.2068C53.3984 28.815 52.8081 28.7477 52.3453 29.0003L49.5649 25.3252C49.6711 25.2167 49.7597 25.0868 49.8223 24.9381C50.0796 24.3174 49.7845 23.6057 49.1635 23.3485C48.5424 23.0912 47.8305 23.3862 47.5732 24.007C47.5118 24.1557 47.4822 24.3103 47.4811 24.4625L42.9144 25.0951C42.814 24.754 42.5673 24.459 42.2131 24.3127C41.7019 24.1014 41.1293 24.2643 40.7987 24.675L36.8223 22.343C36.879 22.2025 36.9109 22.0491 36.9109 21.8874C36.9109 21.2159 36.3666 20.6707 35.6936 20.6707C35.0207 20.6707 34.4764 21.2147 34.4764 21.8874C34.4764 22.0491 34.5083 22.2025 34.565 22.343L30.5886 24.675C30.3655 24.3976 30.0243 24.2206 29.6405 24.2206C29.0868 24.2206 28.6205 24.59 28.4729 25.0963L23.9062 24.4637C23.905 24.3115 23.8755 24.1581 23.8141 24.0082C23.5568 23.3874 22.8448 23.0924 22.2238 23.3496C21.6028 23.6069 21.3076 24.3186 21.565 24.9393C21.6264 25.088 21.715 25.2178 21.8224 25.3264L19.042 29.0015C18.7303 28.8303 18.3466 28.7973 17.9924 28.9436C17.4812 29.1549 17.192 29.6753 17.2486 30.1993L12.7882 31.3606C12.7292 31.2202 12.643 31.0892 12.5285 30.9759C12.0527 30.5003 11.2829 30.5003 10.8071 30.9759C10.3313 31.4515 10.3313 32.221 10.8071 32.6966C10.9216 32.8111 11.0527 32.896 11.192 32.9562L10.0303 37.4149C9.67607 37.3771 9.30889 37.4928 9.03853 37.763C8.64656 38.1549 8.57926 38.7449 8.83192 39.2076L5.15543 41.9869C5.04681 41.8807 4.91695 41.7921 4.76819 41.7296C4.14717 41.4723 3.43525 41.7674 3.17788 42.3881C2.9205 43.0089 3.21566 43.7205 3.83667 43.9778C3.98543 44.0392 4.14009 44.0687 4.29239 44.0699L4.92521 48.6348C4.58401 48.7351 4.28885 48.9817 4.14245 49.3358C3.93112 49.8468 4.09405 50.4192 4.5049 50.7496L2.17198 54.7244C2.03148 54.6678 1.878 54.6359 1.71625 54.6359C1.04448 54.6359 0.499023 55.18 0.499023 55.8527C0.499023 56.5254 1.04329 57.0694 1.71625 57.0694C1.878 57.0694 2.03148 57.0376 2.17198 56.9809L4.5049 60.9557C4.22746 61.1788 4.05036 61.5198 4.05036 61.9034C4.05036 62.4569 4.4199 62.9231 4.92639 63.0706L4.29357 67.6355C4.14127 67.6367 3.98779 67.6662 3.83785 67.7275C3.21684 67.9848 2.92168 68.6965 3.17906 69.3172C3.43643 69.938 4.14835 70.233 4.76937 69.9758C4.91813 69.9144 5.048 69.8259 5.15661 69.7185L8.8331 72.4978C8.66191 72.8093 8.62885 73.1929 8.77525 73.547C8.98658 74.058 9.50724 74.3471 10.0314 74.2905L11.1932 78.7491C11.0527 78.8081 10.9216 78.8943 10.8083 79.0088C10.3325 79.4844 10.3325 80.2539 10.8083 80.7295C11.2841 81.2051 12.0539 81.2051 12.5297 80.7295C12.6442 80.615 12.7292 80.484 12.7894 80.3447L17.2498 81.506C17.212 81.8601 17.3277 82.2271 17.5981 82.4974C17.9901 82.8892 18.5804 82.9564 19.0432 82.7039L21.8236 86.3789C21.7173 86.4875 21.6288 86.6173 21.5674 86.766C21.31 87.3868 21.6052 88.0984 22.2262 88.3557C22.8472 88.613 23.5591 88.3179 23.8165 87.6972C23.8779 87.5485 23.9074 87.3939 23.9086 87.2416L28.4753 86.6079C28.5756 86.949 28.8224 87.244 29.1766 87.3903C29.6878 87.6016 30.2604 87.4387 30.591 87.028L34.5673 89.36C34.5106 89.5005 34.4788 89.6539 34.4788 89.8156C34.4788 90.4871 35.023 91.0323 35.696 91.0323C36.369 91.0323 36.9132 90.4883 36.9132 89.8156C36.9132 89.6539 36.8814 89.5005 36.8247 89.36L40.8011 87.028C41.0242 87.3054 41.3654 87.4824 41.7491 87.4824C42.3028 87.4824 42.7692 87.113 42.9167 86.6067L47.4834 87.2405C47.4846 87.3927 47.5141 87.5461 47.5755 87.696C47.8329 88.3168 48.5448 88.6118 49.1658 88.3545C49.7868 88.0973 50.082 87.3856 49.8246 86.7649C49.7632 86.6161 49.6747 86.4863 49.5684 86.3778L52.3488 82.7027C52.6605 82.8738 53.0442 82.9069 53.3984 82.7605C53.9096 82.5493 54.1989 82.0288 54.1422 81.5048L58.6026 80.3435C58.6616 80.484 58.7478 80.615 58.8623 80.7283C59.3381 81.2039 60.1079 81.2039 60.5837 80.7283C61.0595 80.2527 61.0595 79.4832 60.5837 79.0076C60.4692 78.8931 60.3381 78.8081 60.1988 78.748L61.3606 74.2893C61.7148 74.327 62.0819 74.2114 62.3523 73.9411C62.8281 73.4655 62.8281 72.6961 62.3523 72.2204C61.8765 71.7448 61.1067 71.7448 60.6309 72.2204H60.6274ZM60.3889 72.5603C60.2638 72.8247 60.239 73.1233 60.3145 73.4006L56.5672 75.0422C56.5188 74.9655 56.4633 74.8935 56.3972 74.8274C56.2579 74.6882 56.0938 74.5914 55.919 74.5336L56.5377 71.0072C56.8612 71.0167 57.187 70.8987 57.4338 70.6532C57.4468 70.6402 57.4586 70.6249 57.4716 70.6107L60.3901 72.5603H60.3889ZM55.7112 41.0522C55.6168 41.1466 55.5412 41.254 55.4846 41.3673L52.5519 40.4054C52.6074 40.0844 52.533 39.7469 52.3287 39.4743L54.8104 36.9936C55.0347 37.16 55.3016 37.2402 55.5684 37.2331L56.187 40.7595C56.0135 40.8173 55.8494 40.9141 55.7112 41.0522ZM50.7904 44.3342C50.6534 44.4711 50.5578 44.6328 50.4988 44.8039L48.3866 44.4192C48.3961 44.1501 48.3158 43.8799 48.1469 43.6533L50.6286 41.1726C50.814 41.3106 51.0289 41.3897 51.2473 41.4086L51.4008 44.0038C51.1764 44.0498 50.9627 44.1596 50.7892 44.3342H50.7904ZM46.6841 47.2658C46.389 47.2776 46.0974 47.3944 45.8719 47.6198C45.6735 47.8181 45.559 48.0695 45.5259 48.3279L44.1883 48.3562C44.1576 48.171 44.082 47.9916 43.9651 47.8346L46.4468 45.3539C46.5755 45.4495 46.7184 45.5168 46.8671 45.5545L46.6841 47.2646V47.2658ZM45.8719 64.0855C46.0974 64.3109 46.389 64.4278 46.6841 64.4396L46.8671 66.1497C46.7184 66.1886 46.5755 66.2547 46.4468 66.3503L43.9651 63.8696C44.082 63.7126 44.1576 63.5332 44.1883 63.3479L45.5259 63.3763C45.5578 63.6347 45.6723 63.8861 45.8719 64.0844V64.0855ZM50.7904 67.3711C50.9639 67.5446 51.1776 67.6544 51.4019 67.7016L51.2485 70.2968C51.0289 70.3157 50.814 70.3947 50.6298 70.5328L48.1481 68.0521C48.3169 67.8255 48.396 67.5552 48.3878 67.2862L50.4999 66.9014C50.5578 67.0725 50.6546 67.2342 50.7916 67.3711H50.7904ZM55.7112 70.6532C55.8494 70.7913 56.0135 70.888 56.187 70.9459L55.5684 74.4722C55.3016 74.4651 55.0347 74.5454 54.8104 74.7118L52.3287 72.2311C52.5318 71.9584 52.6062 71.6209 52.5519 71.2999L55.4846 70.3381C55.5412 70.4514 55.6168 70.5588 55.7112 70.6532ZM51.7219 81.4836L47.631 81.5662C47.6157 81.4777 47.592 81.3892 47.5566 81.3018C47.4811 81.1201 47.3665 80.9679 47.2272 80.8475L49.1481 77.8262C49.4433 77.9584 49.7892 77.9749 50.1115 77.8416C50.1292 77.8345 50.1457 77.8251 50.1623 77.8168L52.1127 80.7342C51.8966 80.9301 51.7585 81.1968 51.7219 81.4824V81.4836ZM42.4905 85.3062C42.2851 85.1468 42.0265 85.0501 41.7456 85.0501C41.7255 85.0501 41.7054 85.0524 41.6853 85.0536L41.0006 81.6134C41.3359 81.4954 41.6039 81.2346 41.7314 80.9029L45.2202 81.6795C45.2072 81.8624 45.2331 82.0524 45.3087 82.233C45.3441 82.3192 45.3902 82.3994 45.4421 82.4726L42.4905 85.305V85.3062ZM28.8967 85.3062L25.9452 82.4738C25.9971 82.4006 26.0432 82.3203 26.0786 82.2342C26.1541 82.0524 26.1801 81.8636 26.1671 81.6807L29.663 80.9018C29.7775 81.2039 30.0113 81.46 30.3336 81.5933C30.3513 81.6004 30.369 81.6063 30.3867 81.6122L29.7019 85.0536C29.4103 85.0394 29.1246 85.1303 28.8967 85.3062ZM19.6642 81.4836C19.6312 81.2251 19.5166 80.9749 19.3183 80.7767C19.3041 80.7625 19.2888 80.7495 19.2734 80.7365L21.2226 77.8203C21.5438 77.9738 21.9169 77.9785 22.2415 77.8345L24.1589 80.8498C24.0196 80.9702 23.905 81.1225 23.8295 81.3042C23.7941 81.3904 23.7693 81.4789 23.7539 81.5686L19.663 81.486L19.6642 81.4836ZM6.48128 61.842L9.92282 61.1575C10.0409 61.4927 10.3018 61.7606 10.6336 61.8881L9.85671 65.3755C9.67371 65.3625 9.48363 65.3884 9.30299 65.464C9.2168 65.4994 9.13652 65.5454 9.06332 65.5973L6.22981 62.6469C6.38919 62.4416 6.486 62.1831 6.486 61.9022C6.486 61.8822 6.48364 61.8621 6.48246 61.842H6.48128ZM6.22863 49.0584L9.06214 46.108C9.13534 46.1599 9.21562 46.206 9.30181 46.2414C9.48363 46.3169 9.67253 46.3429 9.85553 46.3299L10.6347 49.8244C10.3325 49.9388 10.0763 50.1725 9.94289 50.4947C9.93581 50.5124 9.92991 50.5301 9.924 50.5478L6.48128 49.8633C6.49545 49.5718 6.40454 49.2862 6.22863 49.0584ZM19.6654 30.2218L23.7563 30.1392C23.7716 30.2277 23.7952 30.3162 23.8318 30.4035C23.9074 30.5853 24.0219 30.7375 24.1612 30.8579L22.2403 33.8791C21.9452 33.7469 21.5993 33.7304 21.277 33.8638C21.2592 33.8708 21.2427 33.8803 21.2262 33.8885L19.2758 30.9712C19.4918 30.7753 19.63 30.5085 19.6666 30.2229L19.6654 30.2218ZM28.8967 26.3992C29.1022 26.5585 29.3607 26.6553 29.6417 26.6553C29.6618 26.6553 29.6819 26.6529 29.7019 26.6518L30.3867 30.0919C30.0514 30.21 29.7834 30.4708 29.6559 30.8024L26.1671 30.0259C26.1801 29.8429 26.1541 29.6529 26.0786 29.4724C26.0432 29.3862 25.9971 29.306 25.9452 29.2328L28.8967 26.4004V26.3992ZM42.4905 26.3992L45.4421 29.2316C45.3902 29.3048 45.3441 29.385 45.3087 29.4712C45.2331 29.6529 45.2072 29.8417 45.2202 30.0247L41.7243 30.8036C41.6098 30.5015 41.376 30.2454 41.0537 30.112C41.036 30.1049 41.0183 30.099 41.0006 30.0931L41.6853 26.6518C41.977 26.6659 42.2627 26.575 42.4905 26.3992ZM51.7219 30.2218C51.7549 30.4802 51.8695 30.7304 52.0678 30.9287C52.082 30.9428 52.0973 30.9558 52.1127 30.9688L50.1635 33.885C49.8423 33.7316 49.4692 33.7269 49.1446 33.8708L47.2272 30.8555C47.3665 30.7351 47.4811 30.5829 47.5566 30.4011C47.592 30.315 47.6168 30.2265 47.6322 30.1368L51.7231 30.2194L51.7219 30.2218ZM54.5601 36.7422L52.0784 39.2229C51.8057 39.0199 51.4681 38.9456 51.1469 38.9999L50.1847 36.0683C50.298 36.0117 50.4055 35.9361 50.4999 35.8417C50.6381 35.7036 50.7349 35.5396 50.7927 35.3661L54.3205 35.9845C54.3134 36.2512 54.3937 36.518 54.5601 36.7422ZM47.8966 43.4031C47.67 43.2343 47.3996 43.1552 47.1304 43.1635L46.7455 41.0522C46.9167 40.9943 47.0785 40.8976 47.2154 40.7619C47.389 40.5884 47.4988 40.3748 47.546 40.1505L50.1422 40.3051C50.1611 40.5246 50.2402 40.7394 50.3783 40.9235L47.8966 43.4043V43.4031ZM44.2461 44.5136C44.1942 44.3094 44.0891 44.1171 43.9297 43.9578C43.9156 43.9436 43.9002 43.9306 43.8849 43.9176L45.8353 41.0002C46.0124 41.084 46.2048 41.123 46.3972 41.1159L46.7821 43.2272C46.6109 43.2851 46.4492 43.3818 46.3122 43.5187C46.0867 43.7441 45.9699 44.0356 45.958 44.3307L44.2473 44.5136H44.2461ZM37.6665 41.7886L36.5862 40.4503C36.7869 40.2331 36.9097 39.944 36.9097 39.6265C36.9097 39.433 36.8636 39.2512 36.7834 39.0884L38.5484 37.8669C38.6629 37.9896 38.8058 38.0923 38.9711 38.1608C38.99 38.169 39.0089 38.1737 39.0277 38.1808L38.343 41.6222C38.1033 41.6104 37.8684 41.6694 37.6653 41.7886H37.6665ZM33.7196 41.7886C33.539 41.6812 33.3277 41.6187 33.1022 41.6187C33.0821 41.6187 33.062 41.621 33.0419 41.6222L32.3572 38.1808C32.5414 38.1147 32.7055 38.0062 32.8365 37.8657L34.6027 39.0872C34.5225 39.2501 34.4764 39.4318 34.4764 39.6254C34.4764 39.944 34.6004 40.2331 34.7999 40.4503L33.7196 41.7886ZM27.14 44.5124L25.4292 44.3295C25.4174 44.0345 25.3005 43.743 25.075 43.5175C24.9381 43.3806 24.7763 43.2851 24.6052 43.226L24.99 41.1147C25.1589 41.1206 25.3312 41.0923 25.4965 41.0238C25.5154 41.0156 25.5331 41.0061 25.5508 40.9979L27.5012 43.9153C27.323 44.0758 27.199 44.2847 27.14 44.5124ZM23.7929 47.6186C23.7787 47.6328 23.7657 47.6481 23.7527 47.6635L20.8342 45.7138C20.918 45.5368 20.957 45.3444 20.9499 45.1521L23.0621 44.7673C23.1199 44.9385 23.2167 45.1002 23.3537 45.2371C23.5792 45.4625 23.8708 45.5793 24.166 45.5911L24.349 47.3012C24.1447 47.3531 23.9523 47.4581 23.7929 47.6175V47.6186ZM21.6241 53.8794L20.2852 54.9593C20.068 54.7587 19.7787 54.6359 19.4611 54.6359C19.2675 54.6359 19.0857 54.6819 18.9228 54.7622L17.7008 52.9978C17.8236 52.8834 17.9263 52.7406 17.9948 52.5753C18.0031 52.5565 18.0078 52.5376 18.0149 52.5187L21.4576 53.2032C21.4458 53.4428 21.5048 53.6776 21.6241 53.8806V53.8794ZM21.4576 58.501L18.0149 59.1855C17.9488 59.0014 17.8401 58.8373 17.6996 58.7063L18.9216 56.9408C19.0845 57.021 19.2663 57.0671 19.46 57.0671C19.7787 57.0671 20.068 56.9432 20.284 56.7437L21.6229 57.8236C21.5154 58.0041 21.454 58.2154 21.454 58.4408C21.454 58.4608 21.4564 58.4809 21.4576 58.501ZM24.349 64.4006L24.166 66.1107C23.8708 66.1225 23.5792 66.2393 23.3537 66.4648C23.2167 66.6017 23.1211 66.7633 23.0621 66.9345L20.9499 66.5497C20.9558 66.381 20.9275 66.2087 20.859 66.0434C20.8507 66.0246 20.8413 66.0069 20.833 65.9892L23.7516 64.0395C23.9121 64.2177 24.1211 64.3416 24.349 64.4006ZM27.14 67.1894C27.1919 67.3936 27.297 67.5859 27.4564 67.7452C27.4705 67.7594 27.4859 67.7724 27.5012 67.7854L25.5508 70.7027C25.3737 70.619 25.1813 70.58 24.9889 70.5859L24.604 68.4746C24.7752 68.4168 24.9369 68.32 25.0739 68.1831C25.2994 67.9577 25.4162 67.6662 25.4281 67.3711L27.1388 67.1882L27.14 67.1894ZM33.7196 69.9144L34.7999 71.2527C34.5992 71.4699 34.4764 71.759 34.4764 72.0776C34.4764 72.2712 34.5225 72.4529 34.6027 72.6158L32.8377 73.8373C32.7232 73.7145 32.5803 73.6119 32.415 73.5434C32.3961 73.5352 32.3772 73.5304 32.3584 73.5233L33.0431 70.082C33.2828 70.0938 33.5177 70.0348 33.7208 69.9156L33.7196 69.9144ZM37.6653 69.9144C37.8459 70.0218 38.0573 70.0843 38.2828 70.0843C38.3028 70.0843 38.3229 70.082 38.343 70.0808L39.0277 73.5222C38.8436 73.5883 38.6795 73.6968 38.5484 73.8373L36.7822 72.6158C36.8625 72.4529 36.9085 72.2712 36.9085 72.0776C36.9085 71.759 36.7845 71.4699 36.585 71.2527L37.6653 69.9144ZM44.245 67.1906L45.9557 67.3735C45.9675 67.6685 46.0844 67.96 46.3099 68.1854C46.4468 68.3223 46.6086 68.4179 46.7798 68.4769L46.3949 70.5883C46.2261 70.5824 46.0537 70.6107 45.8884 70.6791C45.8695 70.6874 45.8518 70.6968 45.8341 70.7051L43.8837 67.7877C44.062 67.6272 44.1859 67.4183 44.245 67.1906ZM50.3772 70.7818C50.239 70.9671 50.1599 71.1807 50.141 71.4002L47.5448 71.5548C47.5295 71.4817 47.5082 71.4085 47.4787 71.3377C47.3394 71.0001 47.0655 70.7606 46.7444 70.652L47.1292 68.5407C47.3984 68.5501 47.6688 68.4699 47.8955 68.3011L50.3772 70.7818ZM50.4929 39.3374C50.3193 39.5109 50.2095 39.7245 50.1623 39.9487L47.5661 39.7941C47.5425 39.5191 47.4256 39.2501 47.2142 39.04C47.2001 39.0258 47.1847 39.0128 47.1694 38.9999L49.1198 36.0813C49.3476 36.1887 49.6015 36.2217 49.8459 36.1793L50.8081 39.1096C50.6936 39.1663 50.5861 39.2418 50.4917 39.3374H50.4929ZM46.8211 72.9274C46.84 72.9191 46.8577 72.9097 46.8754 72.9014L48.8258 75.82C48.6393 75.9899 48.5118 76.2118 48.4574 76.4525L45.3807 76.22C45.3713 76.0926 45.3429 75.9651 45.2922 75.8412C45.1977 75.6134 45.0419 75.4305 44.853 75.3019L45.9887 72.964C46.252 73.0477 46.5448 73.0418 46.8199 72.9285L46.8211 72.9274ZM43.0443 76.7712C43.0962 76.8951 43.1659 77.006 43.2497 77.1028L41.2414 79.4384C41.0537 79.3203 40.8329 79.2507 40.5944 79.2507C40.5732 79.2507 40.5519 79.2531 40.5295 79.2543L39.8447 75.8129C40.1352 75.709 40.3737 75.5001 40.5153 75.2299L42.9722 76.0808C42.9297 76.3062 42.9486 76.5446 43.0431 76.7724L43.0443 76.7712ZM38.4197 75.3337L36.4752 77.0591C36.3064 76.9175 36.0986 76.8219 35.8707 76.7889V73.2802C36.1494 73.2389 36.3973 73.1044 36.5815 72.9085L38.3477 74.13C38.2674 74.2928 38.2214 74.4746 38.2214 74.6681C38.2214 74.9136 38.2946 75.1425 38.4209 75.3337H38.4197ZM35.5154 73.2802V76.7889C35.2875 76.8219 35.0797 76.9175 34.9109 77.0591L32.9664 75.3337C33.0077 75.2712 33.0431 75.2051 33.0726 75.1331C33.212 74.7956 33.1883 74.4333 33.0384 74.13L34.8046 72.9085C34.9888 73.1044 35.2367 73.2401 35.5154 73.2802ZM31.4835 75.7916C31.5024 75.7999 31.5213 75.8046 31.5402 75.8117L30.8554 79.2543C30.6039 79.2425 30.3572 79.3097 30.1482 79.4419L28.1376 77.1028C28.2214 77.006 28.2911 76.8963 28.343 76.7712C28.4375 76.5434 28.4564 76.305 28.4139 76.0796L30.8708 75.2287C30.9983 75.4742 31.2084 75.6772 31.4847 75.7916H31.4835ZM26.0939 75.84C26.042 75.9639 26.0136 76.0926 26.0054 76.2189L22.9334 76.4514C22.8838 76.2354 22.7764 76.03 22.6087 75.8613C22.5934 75.8459 22.5768 75.8329 22.5603 75.8176L24.5107 72.9002C24.7893 73.0324 25.1069 73.0525 25.3974 72.9616L26.5331 75.2995C26.3442 75.4281 26.1884 75.6111 26.0939 75.8388V75.84ZM24.1707 70.9423C23.9971 71.1158 23.8873 71.3306 23.8401 71.5536L21.2451 71.399C21.2262 71.1795 21.1471 70.9647 21.0089 70.7806L23.4906 68.2999C23.7173 68.4687 23.9877 68.5478 24.2569 68.5395L24.6418 70.6508C24.4706 70.7086 24.3088 70.8054 24.1719 70.9423H24.1707ZM23.2392 68.0497L20.7575 70.5304C20.5721 70.3924 20.3584 70.3133 20.1388 70.2944L19.9842 67.6992C20.0574 67.6839 20.1294 67.6626 20.2014 67.6331C20.5391 67.4939 20.7787 67.2201 20.8873 66.8991L22.9995 67.2838C22.99 67.5529 23.0703 67.8231 23.2392 68.0497ZM18.6111 66.9746C18.6194 66.9935 18.6288 67.0112 18.6371 67.0289L15.7174 68.9785C15.5473 68.7921 15.3254 68.6646 15.0845 68.6103L15.3171 65.5348C15.4446 65.5253 15.5721 65.497 15.6973 65.4463C15.9252 65.3519 16.1081 65.1961 16.2368 65.0073L18.5757 66.1426C18.4918 66.4058 18.4977 66.6984 18.6111 66.9734V66.9746ZM14.7658 63.1992C14.6418 63.2512 14.5308 63.3208 14.434 63.4046L12.0975 61.3971C12.2156 61.2095 12.2853 60.9888 12.2853 60.7504C12.2853 60.7291 12.2829 60.7079 12.2817 60.6855L15.7244 60.001C15.8283 60.2913 16.0373 60.5297 16.3077 60.6713L15.4564 63.1272C15.2309 63.0848 14.9925 63.1036 14.7646 63.1981L14.7658 63.1992ZM16.8697 58.3771C16.6241 58.3771 16.395 58.4502 16.2038 58.5765L14.4777 56.6328C14.6194 56.464 14.715 56.2563 14.7481 56.0285H18.2581C18.2994 56.307 18.434 56.5549 18.63 56.739L17.408 58.5045C17.2451 58.4243 17.0633 58.3782 16.8697 58.3782V58.3771ZM18.2569 55.6733H14.7469C14.7138 55.4455 14.6182 55.2378 14.4765 55.069L16.2026 53.1253C16.2652 53.1666 16.3313 53.202 16.4033 53.2315C16.741 53.3708 17.1034 53.3472 17.4068 53.1973L18.6288 54.9628C18.4328 55.1469 18.297 55.3948 18.2569 55.6733ZM15.7445 51.643C15.7362 51.6619 15.7315 51.6808 15.7244 51.6997L12.2805 51.0152C12.2923 50.7638 12.2251 50.5171 12.0928 50.3082L14.4328 48.2984C14.5296 48.3822 14.6394 48.4518 14.7646 48.5038C14.9925 48.5982 15.2309 48.6171 15.4564 48.5746L16.3077 51.0305C16.0621 51.158 15.859 51.368 15.7445 51.6442V51.643ZM15.6961 46.2555C15.5721 46.2036 15.4435 46.1753 15.3171 46.167L15.0845 43.0962C15.3006 43.0467 15.506 42.9393 15.6749 42.7717C15.6902 42.7563 15.7032 42.7398 15.7185 42.7233L18.6371 44.6729C18.5048 44.9515 18.4848 45.2689 18.5757 45.5592L16.2368 46.6946C16.1081 46.5057 15.9252 46.35 15.6973 46.2555H15.6961ZM20.5957 44.333C20.4222 44.1596 20.2085 44.0498 19.9842 44.0026L20.1388 41.4074C20.3584 41.3885 20.5733 41.3095 20.7575 41.1714L23.2392 43.6521C23.0703 43.8787 22.9912 44.1489 22.9995 44.418L20.8873 44.8028C20.8295 44.6316 20.7327 44.4699 20.5957 44.333ZM23.4895 43.4019L21.0078 40.9212C21.1459 40.7359 21.225 40.5223 21.2439 40.3028L23.8401 40.1493C23.8554 40.2225 23.8767 40.2945 23.9062 40.3665C24.0455 40.704 24.3194 40.9436 24.6406 41.0522L24.2557 43.1635C23.9865 43.1541 23.7161 43.2343 23.4895 43.4031V43.4019ZM24.565 38.7756C24.5461 38.7839 24.5284 38.7933 24.5107 38.8016L22.5603 35.883C22.7468 35.7131 22.8743 35.4912 22.9287 35.2505L26.0054 35.483C26.0148 35.6104 26.0432 35.7379 26.0939 35.863C26.1884 36.0907 26.3442 36.2737 26.5331 36.4023L25.3974 38.7402C25.1341 38.6564 24.8413 38.6623 24.5662 38.7756H24.565ZM28.3419 34.9318C28.2899 34.8079 28.2202 34.697 28.1364 34.6002L30.1447 32.2646C30.3324 32.3827 30.5532 32.4523 30.7917 32.4523C30.8129 32.4523 30.8342 32.4499 30.8566 32.4487L31.5414 35.8901C31.2509 35.994 31.0124 36.2029 30.8708 36.4731L28.4139 35.6222C28.4564 35.3968 28.4375 35.1584 28.343 34.9306L28.3419 34.9318ZM32.9664 36.3693L34.9109 34.6439C35.0797 34.7855 35.2875 34.8811 35.5154 34.9141V38.4228C35.2367 38.4641 34.9888 38.5986 34.8046 38.7945L33.0384 37.573C33.1187 37.4102 33.1647 37.2284 33.1647 37.0349C33.1647 36.7894 33.0915 36.5605 32.9652 36.3693H32.9664ZM35.8707 38.4228V34.9141C36.0986 34.8811 36.3064 34.7855 36.4752 34.6439L38.4197 36.3693C38.3784 36.4318 38.343 36.4979 38.3135 36.5699C38.1741 36.9074 38.1978 37.2697 38.3477 37.573L36.5815 38.7945C36.3973 38.5986 36.1494 38.4629 35.8707 38.4228ZM39.9026 35.9114C39.8837 35.9031 39.8648 35.8984 39.8459 35.8913L40.5307 32.4487C40.7822 32.4605 41.0289 32.3933 41.2379 32.2611L43.2485 34.6002C43.1647 34.697 43.095 34.8067 43.0431 34.9318C42.9486 35.1596 42.9297 35.398 42.9722 35.6234L40.5153 36.4743C40.3878 36.2288 40.1777 36.0258 39.9014 35.9114H39.9026ZM45.2922 35.863C45.3441 35.7391 45.3725 35.6104 45.3807 35.483L48.4527 35.2505C48.5023 35.4664 48.6097 35.6718 48.7774 35.8405C48.7927 35.8559 48.8093 35.8689 48.8258 35.8842L46.8754 38.8016C46.5968 38.6694 46.2792 38.6494 45.9887 38.7402L44.853 36.4023C45.0419 36.2737 45.1977 36.0907 45.2922 35.863ZM48.7774 34.1199C48.5613 34.3358 48.4445 34.6144 48.4244 34.8964L45.3536 35.1289C45.2815 34.8114 45.0832 34.5282 44.7916 34.3535L46.1351 31.1128C46.4055 31.1812 46.683 31.1529 46.9273 31.0443L48.8447 34.0597C48.8223 34.0786 48.7998 34.0986 48.7786 34.1199H48.7774ZM45.8069 30.9771L44.4634 34.2178C44.134 34.134 43.7928 34.1954 43.5177 34.3689L41.5059 32.0286C41.5885 31.933 41.6594 31.8221 41.7101 31.6982C41.7845 31.5176 41.8117 31.3288 41.7987 31.147L45.2945 30.3681C45.3902 30.6171 45.5661 30.8331 45.8057 30.9759L45.8069 30.9771ZM40.121 32.3579C40.1411 32.3661 40.1611 32.372 40.1824 32.3791L39.4976 35.8205C39.1895 35.8051 38.8884 35.9078 38.6547 36.1025L36.7102 34.3771C36.8353 34.186 36.9097 33.957 36.9097 33.7115C36.9097 33.577 36.8873 33.4483 36.8471 33.3268L39.5968 31.9365C39.7243 32.1171 39.9026 32.2658 40.1222 32.3567L40.121 32.3579ZM34.6748 34.3783L32.7303 36.1037C32.5189 35.9255 32.2462 35.8181 31.9487 35.8181C31.9286 35.8181 31.9085 35.8205 31.8885 35.8217L31.2037 32.3791C31.441 32.2941 31.6429 32.1372 31.7858 31.9354L34.539 33.328C34.4988 33.4495 34.4764 33.5782 34.4764 33.7127C34.4764 33.9582 34.5496 34.1871 34.6759 34.3783H34.6748ZM29.8743 32.0345L27.8672 34.3701C27.5921 34.1966 27.2509 34.1364 26.9215 34.219L25.578 30.9783C25.8177 30.8355 25.9936 30.6183 26.0892 30.3705L29.578 31.147C29.5756 31.1765 29.5732 31.206 29.5732 31.2367C29.5732 31.5424 29.6866 31.8221 29.8731 32.0357L29.8743 32.0345ZM25.2498 31.114L26.5933 34.3547C26.3017 34.5294 26.1034 34.8126 26.0314 35.1301L22.9534 34.8976C22.944 34.7713 22.9157 34.6439 22.8649 34.5199C22.7905 34.3394 22.676 34.1871 22.5379 34.0679L24.4588 31.0467C24.702 31.1553 24.9794 31.1836 25.251 31.1152L25.2498 31.114ZM22.2061 36.1096C22.2262 36.1014 22.2451 36.0907 22.264 36.0825L24.2144 38.9999C23.9853 39.2064 23.8448 39.492 23.8188 39.7953L21.2226 39.9499C21.1766 39.7257 21.0668 39.5121 20.8921 39.3386C20.7964 39.243 20.689 39.1686 20.5757 39.1108L21.5367 36.1852C21.7551 36.2229 21.9865 36.2017 22.2061 36.1108V36.1096ZM19.1719 41.0581C19.3454 41.2316 19.5591 41.3413 19.7835 41.3885L19.6288 43.9837C19.3537 44.0073 19.0845 44.1242 18.8744 44.3354C18.8602 44.3496 18.8472 44.3649 18.8342 44.3803L15.9145 42.4306C16.022 42.2028 16.055 41.9491 16.0125 41.706L18.944 40.7442C19.0007 40.8586 19.0763 40.966 19.1719 41.0604V41.0581ZM13.9535 42.7717C14.1696 42.9877 14.4482 43.1045 14.7304 43.1246L14.9629 46.1942C14.6453 46.2662 14.362 46.4644 14.1873 46.7559L10.9452 45.4129C11.0137 45.1426 10.9854 44.8653 10.8768 44.621L13.8933 42.7044C13.9122 42.7268 13.9322 42.7493 13.9535 42.7705V42.7717ZM10.8095 45.741L14.0515 47.084C13.9677 47.4133 14.0291 47.7544 14.2026 48.0293L11.8614 50.0403C11.7658 49.9577 11.6548 49.8869 11.5308 49.8362C11.3502 49.7618 11.1613 49.7347 10.9795 49.7477L10.2003 46.2532C10.4494 46.1576 10.6654 45.9817 10.8083 45.7422L10.8095 45.741ZM12.1908 51.4247C12.1991 51.4046 12.205 51.3846 12.2121 51.3633L15.6548 52.0478C15.6394 52.3558 15.7422 52.6568 15.937 52.8905L14.2109 54.8342C14.0196 54.7091 13.7906 54.6347 13.545 54.6347C13.4104 54.6347 13.2817 54.6572 13.1601 54.6973L11.7693 51.9487C11.95 51.8212 12.0987 51.643 12.1896 51.4235L12.1908 51.4247ZM13.545 57.0683C13.7906 57.0683 14.0196 56.9951 14.2109 56.8688L15.937 58.8125C15.7587 59.0238 15.6512 59.2964 15.6512 59.5938C15.6512 59.6139 15.6536 59.6339 15.6548 59.654L12.2109 60.3385C12.1259 60.1013 11.9689 59.8995 11.767 59.7567L13.1601 57.0045C13.2817 57.0446 13.4104 57.0671 13.545 57.0671V57.0683ZM11.068 61.9683C11.3738 61.9683 11.6536 61.855 11.8673 61.6674L14.2038 63.6737C14.0302 63.9486 13.97 64.2897 14.0527 64.619L10.8107 65.962C10.6678 65.7224 10.4506 65.5466 10.2026 65.451L10.9795 61.9636C11.009 61.966 11.0385 61.9683 11.0692 61.9683H11.068ZM10.9452 66.2901L14.1873 64.9471C14.362 65.2386 14.6453 65.4368 14.9629 65.5088L14.7304 68.5855C14.604 68.595 14.4765 68.6233 14.3526 68.674C14.1719 68.7484 14.0196 68.8629 13.9004 69.0009L10.878 67.0808C10.9866 66.8377 11.0149 66.5604 10.9464 66.2889L10.9452 66.2901ZM15.9429 69.3326C15.9346 69.3125 15.924 69.2936 15.9157 69.2747L18.8342 67.3251C19.0408 67.5529 19.3265 67.6945 19.63 67.7205L19.7846 70.3157C19.5603 70.3617 19.3466 70.4714 19.1731 70.6461C19.0774 70.7417 19.0031 70.8491 18.9452 70.9624L16.0184 70.0017C16.0562 69.7834 16.0349 69.5521 15.944 69.3326H15.9429ZM20.8932 72.3656C21.0668 72.1921 21.1766 71.9785 21.2238 71.7543L23.82 71.9089C23.8436 72.1839 23.9605 72.4529 24.1719 72.663C24.186 72.6772 24.2014 72.6902 24.2167 72.7031L22.2663 75.6217C22.0385 75.5143 21.7846 75.4813 21.5402 75.5237L20.578 72.5934C20.6925 72.5367 20.8 72.4612 20.8944 72.3656H20.8932ZM22.6075 77.582C22.8236 77.366 22.9405 77.0875 22.9605 76.8054L26.0314 76.5729C26.1034 76.8904 26.3017 77.1736 26.5933 77.3483L25.2498 80.589C24.9794 80.5206 24.702 80.5489 24.4576 80.6575L22.5402 77.6421C22.5627 77.6233 22.5851 77.6032 22.6063 77.582H22.6075ZM25.578 80.7247L26.9215 77.484C27.2509 77.5678 27.5921 77.5064 27.8672 77.3329L29.879 79.6732C29.7964 79.7688 29.7255 79.8797 29.6748 80.0025C29.6004 80.183 29.5732 80.3719 29.5862 80.5536L26.0904 81.3325C25.9948 81.0835 25.8188 80.8675 25.5792 80.7247H25.578ZM31.2639 79.3439C31.2438 79.3357 31.2238 79.3298 31.2025 79.3227L31.8873 75.8813C32.1954 75.8967 32.4965 75.794 32.7303 75.5993L34.6748 77.3247C34.5496 77.5159 34.4752 77.7448 34.4752 77.9903C34.4752 78.1248 34.4977 78.2535 34.5378 78.375L31.7881 79.7653C31.6606 79.5847 31.4823 79.436 31.2627 79.3451L31.2639 79.3439ZM36.7102 77.3235L38.6547 75.5981C38.866 75.7763 39.1387 75.8837 39.4362 75.8837C39.4563 75.8837 39.4764 75.8813 39.4965 75.8801L40.1812 79.3227C39.9439 79.4077 39.742 79.5646 39.5992 79.7664L36.8459 78.3738C36.8861 78.2523 36.9085 78.1236 36.9085 77.9891C36.9085 77.7436 36.8353 77.5147 36.709 77.3235H36.7102ZM41.5106 79.6673L43.5177 77.3318C43.7928 77.5052 44.134 77.5654 44.4634 77.4828L45.8069 80.7236C45.5673 80.8664 45.3913 81.0835 45.2957 81.3313L41.8069 80.5548C41.8093 80.5253 41.8117 80.4958 41.8117 80.4651C41.8117 80.1594 41.6983 79.8797 41.5106 79.6661V79.6673ZM46.1351 80.5878L44.7916 77.3471C45.0832 77.1724 45.2815 76.8892 45.3536 76.5717L48.4315 76.8042C48.4409 76.9305 48.4693 77.058 48.52 77.1819C48.5944 77.3624 48.7089 77.5147 48.8471 77.6351L46.9262 80.6563C46.683 80.5477 46.4055 80.5194 46.134 80.5878H46.1351ZM49.1788 75.5922C49.1587 75.6004 49.1399 75.6111 49.121 75.6193L47.1706 72.702C47.3996 72.4954 47.5401 72.2098 47.5661 71.9065L50.1623 71.7519C50.2083 71.9762 50.3181 72.1898 50.4929 72.3632C50.5885 72.4588 50.6959 72.5332 50.8093 72.591L49.8482 75.5167C49.6298 75.4789 49.3984 75.5001 49.1788 75.591V75.5922ZM45.2296 72.2665C45.324 72.4942 45.4799 72.6772 45.6688 72.8058L44.533 75.1437C44.3229 75.0776 44.0938 75.0682 43.8707 75.1248L42.5271 71.8841C42.7692 71.7401 42.9463 71.5206 43.0407 71.268L45.1399 71.7212C45.1281 71.9018 45.1552 72.0883 45.2284 72.2665H45.2296ZM42.2001 72.0198L43.5437 75.2606C43.3453 75.3786 43.1907 75.5462 43.0891 75.7421L40.6322 74.8912C40.6464 74.818 40.6535 74.7425 40.6535 74.6646C40.6535 74.2999 40.4917 73.973 40.2379 73.7499L41.402 71.9466C41.6476 72.0576 41.9274 72.0883 42.2013 72.0186L42.2001 72.0198ZM30.8235 74.1996C30.7291 74.4274 30.7102 74.6658 30.7527 74.8912L28.2958 75.7421C28.1943 75.5462 28.0384 75.3786 27.8413 75.2606L29.1848 72.0198C29.4587 72.0883 29.7385 72.0588 29.9841 71.9478L31.1482 73.7511C31.0113 73.8703 30.8991 74.0214 30.8247 74.1996H30.8235ZM28.8554 71.8841L27.5119 75.1248C27.2887 75.0682 27.0597 75.0776 26.8495 75.1437L25.7138 72.8058C25.7752 72.7633 25.8342 72.7161 25.8897 72.6618C26.1482 72.4034 26.2639 72.0588 26.2427 71.7212L28.3419 71.268C28.4363 71.5194 28.6134 71.7389 28.8554 71.8841ZM19.2687 65.3849C19.0408 65.4793 18.8578 65.6351 18.7291 65.8239L16.3903 64.6886C16.4564 64.4785 16.4659 64.2496 16.4092 64.0265L19.6512 62.6835C19.7953 62.9254 20.0149 63.1025 20.2675 63.1969L19.8141 65.2952C19.6335 65.2834 19.447 65.3106 19.2687 65.3837V65.3849ZM19.5154 62.3566L16.2734 63.6996C16.1554 63.5014 15.9877 63.3468 15.7917 63.2453L16.643 60.7893C16.7162 60.8035 16.7917 60.8106 16.8697 60.8106C17.2345 60.8106 17.5615 60.6489 17.7846 60.3951L19.5886 61.5588C19.4777 61.8043 19.447 62.084 19.5166 62.3578L19.5154 62.3566ZM17.3348 50.9845C17.107 50.8901 16.8685 50.8712 16.643 50.9137L15.7917 48.4577C15.9877 48.3562 16.1554 48.2005 16.2734 48.0034L19.5154 49.3464C19.447 49.6202 19.4765 49.8999 19.5875 50.1454L17.7835 51.309C17.6642 51.1721 17.5131 51.06 17.3348 50.9857V50.9845ZM19.6512 49.0171L16.4092 47.6741C16.4659 47.4511 16.4564 47.2221 16.3903 47.012L18.7291 45.8767C18.7717 45.9381 18.8189 45.9971 18.8732 46.0526C19.1317 46.311 19.4765 46.4267 19.8141 46.4054L20.2675 48.5038C20.016 48.5982 19.7964 48.7752 19.6512 49.0171ZM26.153 39.4342C26.0585 39.2064 25.9027 39.0235 25.7138 38.8948L26.8495 36.5569C27.0597 36.623 27.2887 36.6324 27.5119 36.5758L28.8554 39.8165C28.6134 39.9605 28.4363 40.18 28.3419 40.4326L26.2427 39.9794C26.2545 39.7988 26.2273 39.6124 26.1541 39.4342H26.153ZM29.1825 39.6808L27.8389 36.4401C28.0372 36.3221 28.1919 36.1545 28.2934 35.9586L30.7503 36.8095C30.7362 36.8826 30.7291 36.9582 30.7291 37.0361C30.7291 37.4007 30.8908 37.7276 31.1447 37.9507L29.9806 39.754C29.735 39.6431 29.4552 39.6124 29.1813 39.682L29.1825 39.6808ZM40.559 37.501C40.6535 37.2733 40.6724 37.0349 40.6299 36.8095L43.0868 35.9586C43.1883 36.1545 43.3441 36.3221 43.5413 36.4401L42.1977 39.6808C41.9238 39.6124 41.644 39.6419 41.3985 39.7528L40.2343 37.9495C40.3713 37.8303 40.4835 37.6793 40.5578 37.501H40.559ZM42.5271 39.8165L43.8707 36.5758C44.0938 36.6324 44.3229 36.623 44.533 36.5569L45.6688 38.8948C45.6074 38.9373 45.5484 38.9845 45.4929 39.0388C45.2343 39.2973 45.1186 39.6419 45.1399 39.9794L43.0407 40.4326C42.9463 40.1812 42.7692 39.9617 42.5271 39.8165ZM39.461 30.7682C39.3442 31.0514 39.3418 31.3524 39.4327 31.6214L36.6842 33.0105C36.4965 32.745 36.2049 32.5585 35.8684 32.5089V29.0003C36.1446 28.9602 36.3902 28.8268 36.5732 28.6344L39.4988 30.6868C39.4858 30.7127 39.4717 30.7399 39.461 30.767V30.7682ZM35.513 29.0015V32.5101C35.1765 32.5597 34.8849 32.745 34.6972 33.0117L31.9428 31.6191C31.9829 31.4987 32.0054 31.3701 32.0054 31.2367C32.0054 31.0408 31.9581 30.8567 31.8755 30.6938L34.807 28.6368C34.99 28.8303 35.2356 28.9625 35.5118 29.0026L35.513 29.0015ZM20.6134 35.4499C20.7303 35.7332 20.9428 35.9468 21.1967 36.073L20.2356 38.9987C19.9145 38.9432 19.5768 39.0176 19.3041 39.2217L16.8224 36.741C16.9889 36.5168 17.0692 36.2501 17.0621 35.9833L20.5827 35.3661C20.5922 35.3944 20.6016 35.4228 20.6123 35.4499H20.6134ZM16.5721 36.9912L19.0538 39.4719C18.8508 39.7445 18.7764 40.0821 18.8307 40.4031L15.898 41.3649C15.8413 41.2516 15.7658 41.1442 15.6713 41.0498C15.5332 40.9117 15.3691 40.815 15.1955 40.7571L15.8142 37.2308C16.081 37.2379 16.3478 37.1576 16.5721 36.9912ZM13.7008 42.4046L10.6843 44.3212C10.5639 44.182 10.4116 44.0675 10.2298 43.992C10.1436 43.9566 10.0551 43.9318 9.96532 43.9176L10.048 39.8283C10.3065 39.7953 10.5568 39.6808 10.7552 39.4825C10.7693 39.4684 10.7823 39.453 10.7953 39.4377L13.7126 41.3862C13.5592 41.7072 13.5544 42.0801 13.6985 42.4046H13.7008ZM10.5981 52.082C10.8815 52.1989 11.1826 52.2012 11.4517 52.1104L12.8413 54.8578C12.5757 55.0454 12.3892 55.3369 12.3396 55.6733H8.82956C8.78942 55.3971 8.656 55.1517 8.46356 54.9687L10.5167 52.0443C10.5427 52.0573 10.5698 52.0714 10.597 52.082H10.5981ZM8.83074 56.0285H12.3408C12.3903 56.3649 12.5757 56.6564 12.8425 56.844L11.4494 59.5974C11.329 59.5572 11.2003 59.5348 11.0669 59.5348C10.8709 59.5348 10.6867 59.582 10.5238 59.6646L8.46592 56.7343C8.65955 56.5513 8.79178 56.3059 8.83192 56.0297L8.83074 56.0285ZM10.0491 71.8735L9.96651 67.7842C10.0551 67.7688 10.1436 67.7452 10.231 67.7087C10.4128 67.6331 10.5651 67.5186 10.6855 67.3794L13.7079 69.2995C13.5757 69.5946 13.5592 69.9404 13.6926 70.2625C13.6997 70.2802 13.7091 70.2968 13.7174 70.3133L10.7989 72.2629C10.6029 72.047 10.336 71.9089 10.0503 71.8723L10.0491 71.8735ZM15.2817 70.9223C15.5651 70.8054 15.7788 70.593 15.9051 70.3393L18.8319 71.2999C18.7764 71.6209 18.8508 71.9584 19.055 72.2311L16.5733 74.7118C16.349 74.5454 16.0822 74.4651 15.8154 74.4722L15.1979 70.9529C15.2262 70.9435 15.2546 70.9341 15.2817 70.9234V70.9223ZM16.8236 74.962L19.3053 72.4813C19.578 72.6842 19.9157 72.7586 20.2368 72.7043L21.199 75.6359C21.0857 75.6925 20.9783 75.768 20.8838 75.8624C20.7457 76.0005 20.6489 76.1646 20.591 76.3381L17.0633 75.7196C17.0704 75.4529 16.9901 75.1862 16.8236 74.962ZM31.9203 80.9336C32.0372 80.6504 32.0396 80.3494 31.9487 80.0804L34.6972 78.6913C34.8849 78.9568 35.1765 79.1433 35.513 79.1929V82.7015C35.2367 82.7416 34.9912 82.875 34.8082 83.0674L31.8826 81.0151C31.8955 80.9891 31.9097 80.962 31.9203 80.9348V80.9336ZM35.8684 82.7003V79.1917C36.2049 79.1421 36.4965 78.9568 36.6842 78.6901L39.4386 80.0827C39.3985 80.2031 39.376 80.3317 39.376 80.4651C39.376 80.661 39.4233 80.8451 39.5059 81.0092L36.5744 83.0662C36.3914 82.8727 36.1458 82.7405 35.8696 82.7003H35.8684ZM50.7679 76.2519C50.6511 75.9687 50.4385 75.7551 50.1847 75.6288L51.1457 72.7031C51.4669 72.7586 51.8045 72.6842 52.0773 72.4801L54.5589 74.9608C54.3925 75.185 54.3122 75.4517 54.3193 75.7185L50.7986 76.3357C50.7892 76.3074 50.7797 76.279 50.7691 76.2519H50.7679ZM43.7125 64.1198L46.1942 66.6005C46.0985 66.7291 46.0312 66.8719 45.9935 67.0206L44.2827 66.8377C44.2768 66.6984 44.2485 66.5568 44.1918 66.4199C44.0183 66.0021 43.6381 65.7319 43.219 65.6788L43.1907 64.3416C43.376 64.311 43.5543 64.2354 43.7125 64.1186V64.1198ZM43.533 68.0096C43.5519 68.0013 43.5696 67.9919 43.5873 67.9836L45.5377 70.901C45.3925 71.032 45.2827 71.1961 45.2154 71.3754L43.1163 70.9223C43.1281 70.7417 43.1009 70.5552 43.0277 70.377C42.9061 70.0832 42.6806 69.8625 42.4126 69.7397L42.8979 68.0899C43.1056 68.1194 43.3241 68.0969 43.533 68.0108V68.0096ZM40.7786 71.3082C40.853 71.4864 40.9652 71.6374 41.1021 71.7566L39.938 73.5599C39.7845 73.4903 39.6145 73.4502 39.4351 73.4502C39.415 73.4502 39.3949 73.4525 39.3748 73.4537L38.6901 70.0123C38.9156 69.9321 39.1104 69.7869 39.2521 69.5993L40.7621 70.423C40.6606 70.7004 40.657 71.0143 40.7786 71.3082ZM37.3878 69.6913L36.3076 71.0297C36.1753 70.9518 36.0266 70.8975 35.8684 70.8751V67.3664C36.0632 67.3381 36.2415 67.2637 36.3949 67.1552L37.3205 68.1205C37.16 68.3271 37.0644 68.5843 37.0644 68.8664C37.0644 69.185 37.1883 69.4742 37.3878 69.6902V69.6913ZM35.513 67.3664V70.8751C35.3548 70.8987 35.206 70.9518 35.0738 71.0297L33.9935 69.6913C34.088 69.5887 34.1683 69.4695 34.2249 69.3326C34.3985 68.9148 34.3206 68.4557 34.0608 68.1217L34.9864 67.1563C35.1399 67.2649 35.3182 67.3393 35.513 67.3676V67.3664ZM32.6346 69.9899C32.6535 69.9982 32.6724 70.0029 32.6913 70.01L32.0065 73.4514C31.8105 73.4419 31.6181 73.4797 31.4434 73.5588L30.2793 71.7555C30.4162 71.6363 30.5284 71.4852 30.6028 71.307C30.7244 71.0131 30.7208 70.698 30.6193 70.4219L32.1293 69.5981C32.2556 69.7657 32.4268 69.9049 32.6346 69.9911V69.9899ZM28.3537 70.3758C28.2793 70.5552 28.2521 70.7405 28.2651 70.9211L26.1671 71.3743C26.1081 71.2161 26.016 71.0674 25.8885 70.9411C25.8743 70.927 25.859 70.914 25.8436 70.901L27.794 67.9836C28.0113 68.0863 28.2509 68.1217 28.4835 68.0887L28.9688 69.7385C28.7008 69.8625 28.4764 70.082 28.3537 70.3758ZM27.454 66.0246C27.2285 66.25 27.1116 66.5415 27.0998 66.8365L25.3891 67.0194C25.3501 66.8707 25.284 66.7279 25.1884 66.5993L27.6701 64.1186C27.8271 64.2354 28.0065 64.311 28.1919 64.3416L28.1636 65.6788C27.905 65.7106 27.6535 65.8251 27.4552 66.0246H27.454ZM27.4186 63.8672L24.9369 66.3479C24.8082 66.2523 24.6654 66.1851 24.5166 66.1473L24.6996 64.4372C24.8389 64.4313 24.9806 64.403 25.1175 64.3464C25.5355 64.1729 25.8059 63.7929 25.859 63.3739L27.1966 63.3456C27.2273 63.5309 27.3029 63.7102 27.4198 63.8672H27.4186ZM23.5272 63.6878C23.5355 63.7067 23.5449 63.7244 23.5532 63.7421L20.6347 65.6917C20.5036 65.5466 20.3395 65.4368 20.1601 65.3696L20.6134 63.2712C20.7941 63.283 20.9806 63.2559 21.1589 63.1827C21.4529 63.0611 21.6736 62.8357 21.7964 62.5678L23.447 63.0529C23.4174 63.2606 23.4399 63.4789 23.5261 63.6878H23.5272ZM20.2274 60.9345C20.0491 61.0088 19.898 61.121 19.7787 61.2579L17.9747 60.0942C18.0444 59.9408 18.0845 59.7708 18.0845 59.5915C18.0845 59.5714 18.0822 59.5513 18.081 59.5313L21.5237 58.8468C21.604 59.0722 21.7492 59.2669 21.9369 59.4085L21.1128 60.918C20.8354 60.8153 20.5213 60.8129 20.2274 60.9345ZM22.6689 57.2217C22.3501 57.2217 22.0609 57.3456 21.8448 57.545L20.506 56.4652C20.5839 56.333 20.6382 56.1843 20.6607 56.0262H24.1707C24.199 56.2209 24.2734 56.3991 24.382 56.5525L23.4163 57.4778C23.2096 57.3173 22.9523 57.2217 22.6701 57.2217H22.6689ZM24.1695 55.6721H20.6595C20.6359 55.514 20.5827 55.3653 20.5048 55.2331L21.8437 54.1532C21.9464 54.2477 22.0656 54.3279 22.2026 54.3845C22.6205 54.558 23.0798 54.4801 23.4139 54.2205L24.3797 55.1458C24.271 55.2992 24.1967 55.4774 24.1683 55.6721H24.1695ZM21.545 52.7949C21.5367 52.8137 21.532 52.8326 21.5249 52.8515L18.0822 52.167C18.0916 51.9711 18.0538 51.7787 17.9747 51.6041L19.7787 50.4404C19.898 50.5773 20.0491 50.6894 20.2274 50.7638C20.5213 50.8853 20.8366 50.8818 21.1128 50.7803L21.9369 52.2897C21.7693 52.416 21.63 52.5872 21.5438 52.7949H21.545ZM21.1589 48.5156C20.9806 48.4412 20.7941 48.4141 20.6134 48.4271L20.1601 46.3299C20.3183 46.2709 20.4659 46.1788 20.5934 46.0514C20.6075 46.0372 20.6205 46.0219 20.6335 46.0065L23.552 47.9562C23.4493 48.1733 23.4139 48.4129 23.447 48.6454L21.7964 49.1304C21.6725 48.8625 21.4529 48.6383 21.1589 48.5156ZM25.5119 47.6163C25.2864 47.3909 24.9948 47.274 24.6996 47.2622L24.5166 45.5522C24.6654 45.5132 24.8082 45.4471 24.9369 45.3515L27.4186 47.8322C27.3017 47.9892 27.2262 48.1686 27.1955 48.3539L25.8578 48.3256C25.8259 48.0671 25.7114 47.8157 25.5119 47.6175V47.6163ZM27.6701 47.5809L25.1884 45.1002C25.284 44.9715 25.3513 44.8287 25.3891 44.68L27.0998 44.8629C27.1057 45.0022 27.1341 45.1438 27.1907 45.2795C27.3643 45.6973 27.7444 45.9676 28.1636 46.0207L28.1919 47.3578C28.0065 47.3885 27.8271 47.464 27.6701 47.5809ZM27.8495 43.691C27.8306 43.6993 27.8129 43.7087 27.7952 43.717L25.8448 40.7996C25.99 40.6686 26.0998 40.5046 26.1671 40.3252L28.2663 40.7784C28.2545 40.9589 28.2816 41.1454 28.3548 41.3236C28.4764 41.6175 28.7019 41.8382 28.9699 41.9609L28.4847 43.6108C28.2769 43.5813 28.0585 43.6037 27.8495 43.6899V43.691ZM30.6039 40.3925C30.5296 40.2143 30.4174 40.0632 30.2804 39.944L31.4445 38.1407C31.598 38.2103 31.768 38.2505 31.9475 38.2505C31.9676 38.2505 31.9876 38.2481 32.0077 38.2469L32.6925 41.6883C32.467 41.7685 32.2722 41.9137 32.1305 42.1013L30.6205 41.2776C30.7232 41.0002 30.7255 40.6863 30.6039 40.3925ZM33.9947 42.0093L35.075 40.671C35.2072 40.7489 35.356 40.8032 35.5142 40.8256V44.3342C35.3194 44.3625 35.1411 44.4369 34.9876 44.5455L34.062 43.5801C34.2226 43.3736 34.3182 43.1163 34.3182 42.8342C34.3182 42.5156 34.1942 42.2264 33.9947 42.0105V42.0093ZM35.8696 44.333V40.8244C36.0278 40.8008 36.1765 40.7477 36.3088 40.6698L37.389 42.0081C37.2946 42.1108 37.2143 42.23 37.1576 42.3669C36.9841 42.7847 37.062 43.2437 37.3217 43.5777L36.3961 44.5431C36.2426 44.4345 36.0644 44.3602 35.8696 44.3319V44.333ZM38.7479 41.7095C38.729 41.7013 38.7102 41.6965 38.6913 41.6895L39.376 38.2481C39.572 38.2575 39.7645 38.2198 39.9392 38.1407L41.1033 39.944C40.9663 40.0632 40.8542 40.2143 40.7798 40.3925C40.6582 40.6863 40.6617 41.0014 40.7633 41.2776L39.2532 42.1013C39.1269 41.9338 38.9557 41.7957 38.7479 41.7083V41.7095ZM43.0289 41.3236C43.1033 41.1454 43.1304 40.9589 43.1175 40.7784L45.2154 40.3264C45.2745 40.4845 45.3666 40.632 45.4941 40.7595C45.5082 40.7737 45.5236 40.7866 45.5389 40.7996L43.5885 43.717C43.3725 43.6143 43.1316 43.5789 42.899 43.612L42.4138 41.9621C42.6818 41.8382 42.9061 41.6187 43.0289 41.3248V41.3236ZM43.9285 45.6749C44.154 45.4495 44.2709 45.158 44.2827 44.8629L45.9935 44.68C46.0324 44.8287 46.0985 44.9715 46.1942 45.1002L43.7125 47.5809C43.5555 47.464 43.376 47.3885 43.1907 47.3578L43.219 46.0207C43.4775 45.9888 43.729 45.8743 43.9274 45.6749H43.9285ZM54.6746 35.1537C54.5353 35.2929 54.4385 35.457 54.3807 35.6317L50.8529 35.0132C50.8624 34.6899 50.7443 34.3642 50.4988 34.1175C50.4858 34.1045 50.4704 34.0927 50.4563 34.0797L52.4067 31.1624C52.6711 31.2875 52.9698 31.3122 53.2473 31.2367L54.8895 34.9826C54.8128 35.031 54.7408 35.0864 54.6746 35.1525V35.1537ZM51.7278 29.863L47.6369 29.7804C47.5909 29.4181 47.3819 29.0853 47.0549 28.8905L48.3984 25.6498C48.703 25.7265 49.0159 25.6817 49.2792 25.5377L52.0596 29.2127C51.8777 29.398 51.7679 29.6258 51.7278 29.863ZM48.0702 25.5129L46.7266 28.7536C46.3571 28.6604 45.9746 28.7477 45.6853 28.9708L42.7337 26.1384C42.7857 26.0652 42.8317 25.985 42.8672 25.8988C42.9286 25.7501 42.9581 25.5955 42.9592 25.4433L47.5259 24.8107C47.6098 25.0986 47.7998 25.3512 48.069 25.5129H48.0702ZM41.278 26.5573C41.2969 26.5656 41.3158 26.5703 41.3347 26.5774L40.6499 30.0176C40.2946 29.9987 39.9475 30.1368 39.7031 30.3952L36.7775 28.3429C36.8601 28.1789 36.9073 27.9936 36.9073 27.7977C36.9073 27.7045 36.8955 27.6124 36.8755 27.5251L40.6865 26.0369C40.8152 26.2635 41.0171 26.4511 41.2768 26.5585L41.278 26.5573ZM34.6051 28.3429L31.6736 30.3988C31.4516 30.1639 31.1376 30.0164 30.7893 30.0164C30.7704 30.0164 30.7515 30.0188 30.7326 30.0188L30.0479 26.5774C30.3229 26.4794 30.552 26.2859 30.6948 26.0357L34.5059 27.5239C34.4859 27.6112 34.474 27.7021 34.474 27.7965C34.474 27.9924 34.5213 28.1777 34.6039 28.3418L34.6051 28.3429ZM28.6488 26.1384L25.6972 28.9708C25.408 28.7466 25.0255 28.6604 24.6559 28.7536L23.3124 25.5129C23.5815 25.3524 23.7716 25.0986 23.8555 24.8107L28.4221 25.4433C28.4245 25.7017 28.5083 25.9413 28.6476 26.1372L28.6488 26.1384ZM22.9853 25.6486L24.3289 28.8894C24.0018 29.0841 23.7929 29.4169 23.7468 29.7792L19.6559 29.8618C19.6406 29.7733 19.617 29.6848 19.5804 29.5975C19.519 29.4488 19.4304 29.3189 19.323 29.2104L22.1034 25.5353C22.3667 25.6793 22.6795 25.7241 22.9841 25.6474L22.9853 25.6486ZM18.9216 31.1883C18.9405 31.1801 18.9582 31.1706 18.9759 31.1624L20.9251 34.0786C20.6607 34.3169 20.5131 34.6592 20.5225 35.0144L17.0019 35.6317C16.944 35.457 16.8472 35.2929 16.7079 35.1537C16.6418 35.0876 16.5686 35.031 16.493 34.9837L18.1353 31.2379C18.3868 31.3063 18.6619 31.2969 18.9216 31.1895V31.1883ZM14.9877 36.8732C15.127 37.0125 15.2912 37.1092 15.4659 37.1671L14.8472 40.6934C14.5237 40.684 14.1979 40.802 13.9511 41.0475C13.9381 41.0604 13.9263 41.0758 13.9134 41.0899L10.9948 39.1403C11.12 38.8759 11.1448 38.5774 11.0692 38.3L14.8165 36.6584C14.8649 36.7351 14.9204 36.8071 14.9865 36.8732H14.9877ZM9.69496 39.8189L9.61232 43.9082C9.24986 43.9542 8.91692 44.1631 8.72212 44.49L5.48011 43.147C5.55685 42.8425 5.51198 42.5297 5.36795 42.2666L9.04443 39.4873C9.22861 39.669 9.45765 39.7788 9.69496 39.8189ZM5.34315 43.4751L8.58517 44.8181C8.4919 45.1875 8.57926 45.5699 8.8024 45.859L5.96889 48.8094C5.89569 48.7575 5.81541 48.7115 5.72922 48.6761C5.58046 48.6147 5.4258 48.5852 5.2735 48.584L4.64068 44.0191C4.92875 43.9353 5.18141 43.7453 5.34315 43.4762V43.4751ZM6.38801 50.2646C6.39628 50.2457 6.401 50.2268 6.40808 50.2079L9.84962 50.8924C9.83073 51.2477 9.97005 51.5946 10.2274 51.8389L8.17431 54.7634C8.0102 54.6808 7.82484 54.6336 7.62886 54.6336C7.53559 54.6336 7.4435 54.6454 7.35613 54.6654L5.86735 50.8558C6.09403 50.7272 6.28175 50.5254 6.38919 50.2658L6.38801 50.2646ZM7.62767 57.0659C7.82366 57.0659 8.00902 57.0187 8.17313 56.9361L10.2298 59.8664C9.99484 60.0883 9.84726 60.4022 9.84726 60.7504C9.84726 60.7693 9.84962 60.7881 9.84962 60.807L6.4069 61.4915C6.30891 61.2165 6.11529 60.9876 5.86499 60.8448L7.35377 57.0352C7.44113 57.0553 7.53204 57.0671 7.62649 57.0671L7.62767 57.0659ZM5.96889 62.8888L8.8024 65.8393C8.57808 66.1284 8.4919 66.5108 8.58517 66.8802L5.34315 68.2232C5.18259 67.9541 4.92875 67.7641 4.64068 67.6803L5.2735 63.1154C5.53205 63.1131 5.77172 63.0293 5.96771 62.89L5.96889 62.8888ZM5.47893 68.5501L8.72094 67.2071C8.91574 67.534 9.24868 67.7429 9.61114 67.7889L9.69378 71.8782C9.60523 71.8935 9.51668 71.9171 9.42932 71.9537C9.28056 72.0151 9.15069 72.1036 9.04207 72.211L5.36558 69.4317C5.50962 69.1685 5.55449 68.8558 5.47775 68.5513L5.47893 68.5501ZM11.0208 72.6123C11.0125 72.5934 11.0031 72.5757 10.9948 72.558L13.9122 70.6095C14.1507 70.8739 14.493 71.0214 14.8484 71.0119L15.4659 74.5312C15.2912 74.589 15.127 74.6858 14.9877 74.8251C14.9216 74.8912 14.8649 74.9643 14.8177 75.0399L11.0704 73.3983C11.1389 73.1469 11.1294 72.8719 11.022 72.6123H11.0208ZM16.7079 76.5446C16.8472 76.4053 16.944 76.2413 17.0019 76.0666L20.5296 76.685C20.5202 77.0084 20.6382 77.3341 20.8838 77.5808C20.8968 77.5938 20.9121 77.6056 20.9263 77.6185L18.9759 80.5359C18.7114 80.4108 18.4127 80.386 18.1353 80.4616L16.493 76.7157C16.5698 76.6673 16.6418 76.6119 16.7079 76.5458V76.5446ZM19.6536 81.8353L23.7445 81.9179C23.7905 82.2802 23.9995 82.613 24.3265 82.8077L22.983 86.0485C22.6784 85.9718 22.3655 86.0166 22.1022 86.1606L19.3218 82.4856C19.5036 82.3014 19.6134 82.0725 19.6536 81.8353ZM23.3112 86.1842L24.6547 82.9435C25.0243 83.0367 25.4068 82.9494 25.6961 82.7263L28.6476 85.5587C28.5957 85.6319 28.5496 85.7121 28.5142 85.7983C28.4528 85.947 28.4233 86.1016 28.4221 86.2538L23.8555 86.8876C23.7716 86.5996 23.5815 86.3471 23.3124 86.1854L23.3112 86.1842ZM30.1034 85.1398C30.0845 85.1315 30.0656 85.1268 30.0467 85.1197L30.7314 81.6795C31.0868 81.6984 31.4339 81.5591 31.6783 81.3018L34.6039 83.3542C34.5213 83.5182 34.474 83.7035 34.474 83.8994C34.474 83.9926 34.4859 84.0835 34.5059 84.172L30.6948 85.6602C30.5662 85.4336 30.3643 85.246 30.1045 85.1386L30.1034 85.1398ZM36.7763 83.3542L39.7078 81.2983C39.9297 81.5332 40.2438 81.6807 40.5921 81.6807C40.611 81.6807 40.6299 81.6783 40.6488 81.6783L41.3335 85.1197C41.0584 85.2177 40.8294 85.4112 40.6865 85.6614L36.8755 84.1732C36.8955 84.0859 36.9073 83.995 36.9073 83.9006C36.9073 83.7047 36.8601 83.5194 36.7775 83.3553L36.7763 83.3542ZM42.7326 85.5587L45.6841 82.7263C45.9734 82.9505 46.3559 83.0367 46.7255 82.9435L48.069 86.1842C47.7998 86.3447 47.6098 86.5984 47.5259 86.8864L42.9592 86.2527C42.9569 85.9942 42.8731 85.7546 42.7337 85.5587H42.7326ZM48.3961 86.0485L47.0525 82.8077C47.3795 82.613 47.5885 82.2802 47.6345 81.9179L51.7254 81.8353C51.7408 81.9238 51.7644 82.0123 51.7998 82.0985C51.8612 82.2472 51.9498 82.377 52.0572 82.4856L49.2768 86.1606C49.0135 86.0166 48.7007 85.9718 48.3961 86.0485ZM52.4598 80.5088C52.4409 80.517 52.4232 80.5265 52.4055 80.5347L50.4563 77.6185C50.7207 77.3801 50.8683 77.0379 50.8588 76.6827L54.3795 76.0654C54.4373 76.2401 54.5342 76.4041 54.6735 76.5434C54.7396 76.6095 54.8128 76.6661 54.8883 76.7133L53.2461 80.4592C52.9946 80.3908 52.7195 80.4002 52.4598 80.5076V80.5088ZM55.468 69.2724C55.3606 69.5002 55.3275 69.7539 55.37 69.9982L52.4385 70.96C52.3819 70.8455 52.3063 70.7382 52.2107 70.6437C52.0371 70.4703 51.8234 70.3605 51.5991 70.3133L51.7526 67.7181C52.0277 67.6945 52.2969 67.5777 52.507 67.3664C52.5212 67.3522 52.5342 67.3369 52.5471 67.3216L55.4669 69.2712L55.468 69.2724ZM50.5483 65.9868C50.4645 66.1638 50.4256 66.3562 50.4326 66.5486L48.3205 66.9333C48.2626 66.7622 48.1658 66.6005 48.0289 66.4636C47.8034 66.2382 47.5118 66.1213 47.2166 66.1095L47.0336 64.3995C47.2379 64.3475 47.4303 64.2425 47.5897 64.0832C47.6039 64.069 47.6168 64.0537 47.6298 64.0383L50.5483 65.988V65.9868ZM41.8931 66.5627C41.8235 66.8141 41.8341 67.0902 41.9415 67.3499C42.0631 67.6437 42.2875 67.8633 42.5567 67.9872L42.0714 69.6371C41.9191 69.6158 41.7609 69.6229 41.6062 69.6618L40.2627 66.4211C40.4315 66.3208 40.5685 66.1839 40.6688 66.0246L41.8943 66.5627H41.8931ZM39.3666 66.5627C39.5496 66.6052 39.7432 66.604 39.9345 66.5568L41.278 69.7976C41.1399 69.8802 41.0242 69.9864 40.9309 70.1091L39.4209 69.2854C39.4693 69.1544 39.4965 69.0127 39.4965 68.8652C39.4965 68.412 39.2485 68.0179 38.8813 67.809L39.3666 66.5627ZM32.4977 67.809C32.271 67.9376 32.0833 68.1394 31.9747 68.3991C31.853 68.6929 31.8566 69.0068 31.9581 69.2842L30.4481 70.1079C30.356 69.9852 30.2391 69.879 30.101 69.7964L31.4445 66.5556C31.6346 66.604 31.8283 66.604 32.0124 66.5615L32.4977 67.8078V67.809ZM30.7114 66.0234C30.8117 66.1827 30.9487 66.3196 31.1175 66.4199L29.774 69.6607C29.6181 69.6217 29.4611 69.6146 29.3088 69.6359L28.8235 67.986C28.9511 67.927 29.0703 67.8467 29.1742 67.7429C29.4941 67.4231 29.598 66.9687 29.4871 66.5615L30.7114 66.0234ZM24.9723 62.0497C24.7209 61.9801 24.4446 61.9907 24.1848 62.0981C23.8909 62.2197 23.6713 62.4451 23.5473 62.713L21.8968 62.228C21.918 62.0757 21.911 61.9176 21.872 61.763L25.114 60.4199C25.2144 60.5887 25.3513 60.7256 25.5107 60.8259L24.9723 62.0509V62.0497ZM24.9723 59.5242C24.9298 59.7071 24.931 59.9007 24.9782 60.0918L21.7362 61.4349C21.6536 61.2968 21.5473 61.1811 21.4245 61.0879L22.2486 59.5785C22.3797 59.6269 22.5213 59.654 22.6689 59.654C23.1223 59.654 23.5166 59.4062 23.7256 59.0391L24.9723 59.5242ZM23.7256 52.658C23.5969 52.4314 23.395 52.2437 23.1353 52.1351C22.8413 52.0136 22.5272 52.0171 22.2498 52.1186L21.4257 50.6092C21.5485 50.5171 21.6548 50.4003 21.7374 50.2622L24.9794 51.6052C24.931 51.7953 24.931 51.9888 24.9735 52.1729L23.7268 52.658H23.7256ZM25.5119 50.8724C25.3525 50.9715 25.2155 51.1096 25.1152 51.2783L21.8732 49.9353C21.9121 49.7795 21.9192 49.6226 21.898 49.4703L23.5485 48.9853C23.6075 49.1127 23.6878 49.2319 23.7917 49.3358C24.1116 49.6556 24.5662 49.7595 24.9735 49.6485L25.5119 50.8724ZM29.4871 45.1356C29.5567 44.8842 29.5461 44.608 29.4387 44.3484C29.3171 44.0545 29.0927 43.835 28.8235 43.7111L29.3088 42.0612C29.4611 42.0825 29.6193 42.0754 29.774 42.0364L31.1175 45.2772C30.9487 45.3775 30.8117 45.5144 30.7114 45.6737L29.4859 45.1356H29.4871ZM32.0136 45.1356C31.8306 45.0931 31.637 45.0943 31.4457 45.1415L30.1022 41.9007C30.2403 41.8181 30.356 41.7119 30.4493 41.5892L31.9593 42.4129C31.9109 42.5439 31.8837 42.6855 31.8837 42.833C31.8837 43.2862 32.1317 43.6804 32.4989 43.8893L32.0136 45.1356ZM38.8825 43.8893C39.1092 43.7607 39.2969 43.5589 39.4055 43.2992C39.5271 43.0054 39.5236 42.6914 39.4221 42.4141L40.9321 41.5903C41.0242 41.7131 41.1411 41.8193 41.2792 41.9019L39.9356 45.1426C39.7456 45.0943 39.5519 45.0943 39.3678 45.1367L38.8825 43.8905V43.8893ZM40.6688 45.6749C40.5685 45.5156 40.4315 45.3787 40.2627 45.2784L41.6062 42.0376C41.7621 42.0766 41.9191 42.0836 42.0714 42.0624L42.5567 43.7123C42.4303 43.7713 42.3099 43.8515 42.206 43.9554C41.8861 44.2752 41.7822 44.7296 41.8931 45.1367L40.6688 45.6749ZM47.631 47.6611C47.618 47.6458 47.605 47.6304 47.5909 47.6163C47.4315 47.457 47.2379 47.3519 47.0348 47.3L47.2178 45.5899C47.5129 45.5781 47.8046 45.4613 48.0301 45.2359C48.167 45.099 48.2626 44.9373 48.3217 44.7662L50.4338 45.1509C50.4279 45.3433 50.4657 45.5356 50.5495 45.7127L47.631 47.6623V47.6611ZM52.5495 44.3755C52.5353 44.3602 52.5235 44.3448 52.5094 44.3307C52.2992 44.1206 52.03 44.0038 51.7549 43.979L51.6015 41.3838C51.8258 41.3378 52.0395 41.228 52.213 41.0534C52.3087 40.9578 52.383 40.8504 52.4409 40.7371L55.3724 41.6989C55.3299 41.9432 55.363 42.1958 55.4704 42.4247L52.5507 44.3743L52.5495 44.3755ZM57.468 41.0899C57.455 41.0758 57.4432 41.0616 57.4302 41.0475C57.1835 40.8008 56.8576 40.684 56.5341 40.6934L55.9155 37.1671C56.0902 37.1092 56.2543 37.0125 56.3937 36.8732C56.4598 36.8071 56.5164 36.7339 56.5637 36.6584L60.311 38.3C60.2354 38.5785 60.2602 38.8771 60.3854 39.1403L57.4668 41.0899H57.468ZM61.0099 37.501C60.8694 37.5601 60.7384 37.6462 60.625 37.7607C60.5589 37.8268 60.5022 37.8999 60.455 37.9755L56.7077 36.3339C56.8033 35.981 56.7372 35.5939 56.5105 35.2894L58.9922 32.8087C59.2437 32.9963 59.5507 33.0742 59.8494 33.0424L61.0111 37.501H61.0099ZM58.507 31.7017C58.4751 31.9991 58.553 32.3059 58.7407 32.5573L56.2591 35.038C55.9533 34.8103 55.5672 34.7454 55.2142 34.8409L53.5719 31.0951C53.6487 31.0467 53.7207 30.9912 53.7868 30.9251C53.9013 30.8107 53.9863 30.6797 54.0466 30.5404L58.507 31.7017ZM40.6157 24.9795C40.5189 25.219 40.5047 25.4728 40.559 25.7076L36.7479 27.1958C36.5661 26.8783 36.2462 26.6518 35.8696 26.5963V23.0876C36.1801 23.0416 36.4528 22.8811 36.6405 22.6474L40.6169 24.9795H40.6157ZM34.7432 22.6474C34.931 22.8811 35.2037 23.0428 35.5142 23.0876V26.5963C35.1376 26.6518 34.8176 26.8783 34.6358 27.1958L30.8247 25.7076C30.8448 25.6203 30.8566 25.5294 30.8566 25.435C30.8566 25.2733 30.8247 25.1199 30.768 24.9795L34.7444 22.6474H34.7432ZM17.336 30.5404C17.4375 30.7788 17.6064 30.9676 17.8106 31.0951L16.1684 34.8409C15.8154 34.7454 15.4281 34.8114 15.1235 35.038L12.6418 32.5573C12.8295 32.3059 12.9075 31.9991 12.8756 31.7005L17.336 30.5392V30.5404ZM11.5344 33.0424C11.8319 33.0742 12.1389 32.9963 12.3903 32.8087L14.872 35.2894C14.6442 35.5951 14.5792 35.981 14.6749 36.3339L10.9275 37.9755C10.8791 37.8988 10.8236 37.8268 10.7575 37.7607C10.643 37.6462 10.512 37.5612 10.3726 37.501L11.5344 33.0424ZM4.80951 50.9266C5.04918 51.0234 5.30301 51.0376 5.53796 50.9833L7.02673 54.7929C6.70914 54.9746 6.48246 55.2945 6.42697 55.6709H2.91696C2.87091 55.3605 2.71035 55.0879 2.47658 54.9003L4.80951 50.9255V50.9266ZM2.47658 56.7968C2.71035 56.6092 2.87209 56.3365 2.91696 56.0262H6.42697C6.48246 56.4026 6.70914 56.7225 7.02673 56.9042L5.53796 60.7138C5.45059 60.6937 5.35968 60.6819 5.26523 60.6819C5.10349 60.6819 4.95 60.7138 4.80951 60.7704L2.47658 56.7956V56.7968ZM10.3726 74.1972C10.6111 74.0957 10.8 73.927 10.9275 73.7228L14.6749 75.3644C14.5792 75.7173 14.6453 76.1044 14.872 76.4089L12.3903 78.8896C12.1389 78.7019 11.8319 78.624 11.5332 78.6559L10.3715 74.1972H10.3726ZM12.8756 79.9966C12.9075 79.6992 12.8295 79.3923 12.6418 79.1398L15.1235 76.6591C15.4293 76.8868 15.8154 76.9517 16.1684 76.8561L17.8106 80.602C17.7339 80.6504 17.6619 80.7059 17.5957 80.7719C17.4812 80.8864 17.3962 81.0174 17.336 81.1567L12.8756 79.9954V79.9966ZM30.7669 86.7188C30.8637 86.4792 30.8778 86.2255 30.8235 85.9907L34.6346 84.5025C34.8164 84.8199 35.1364 85.0465 35.513 85.102V88.6106C35.2025 88.6567 34.9298 88.8172 34.7421 89.0508L30.7657 86.7188H30.7669ZM36.6393 89.0508C36.4516 88.8172 36.1789 88.6555 35.8684 88.6106V85.102C36.245 85.0465 36.5649 84.8199 36.7468 84.5025L40.5578 85.9907C40.5378 86.078 40.526 86.1689 40.526 86.2633C40.526 86.425 40.5578 86.5784 40.6145 86.7188L36.6381 89.0508H36.6393ZM54.0466 81.1579C53.945 80.9195 53.7762 80.7306 53.5719 80.6032L55.2142 76.8573C55.5672 76.9529 55.9545 76.8868 56.2591 76.6602L58.7407 79.141C58.553 79.3923 58.4751 79.6992 58.507 79.9978L54.0466 81.159V81.1579ZM59.8482 78.6559C59.5507 78.624 59.2437 78.7019 58.991 78.8896L56.5093 76.4089C56.7372 76.1032 56.8033 75.7173 56.7065 75.3644L60.4538 73.7228C60.5022 73.7995 60.5577 73.8715 60.6239 73.9376C60.7384 74.0521 60.8694 74.137 61.0087 74.1972L59.847 78.6559H59.8482Z" fill="url(#paint0_linear_685_53425)"/>
</g>
<path d="M102.582 32.6379H95.4795C95.3498 31.719 95.0849 30.9028 94.6849 30.1893C94.2849 29.465 93.7714 28.8488 93.1444 28.3407C92.5174 27.8326 91.7931 27.4434 90.9715 27.1732C90.1607 26.9029 89.2796 26.7678 88.3283 26.7678C86.6094 26.7678 85.1122 27.1948 83.8365 28.0488C82.5609 28.892 81.5717 30.1244 80.869 31.746C80.1664 33.3568 79.815 35.3135 79.815 37.6161C79.815 39.9836 80.1664 41.9728 80.869 43.5836C81.5825 45.1943 82.5771 46.4105 83.8528 47.2321C85.1284 48.0537 86.604 48.4645 88.2797 48.4645C89.2202 48.4645 90.0904 48.3402 90.8904 48.0915C91.7012 47.8429 92.4201 47.4807 93.0471 47.0051C93.6741 46.5186 94.193 45.9294 94.6038 45.2376C95.0254 44.5457 95.3173 43.7565 95.4795 42.8701L102.582 42.9025C102.398 44.4268 101.939 45.897 101.204 47.3132C100.479 48.7186 99.501 49.978 98.2686 51.0915C97.047 52.1941 95.5876 53.0698 93.8903 53.7184C92.2039 54.3562 90.2958 54.6752 88.1662 54.6752C85.2041 54.6752 82.5555 54.0049 80.2204 52.6644C77.8962 51.3239 76.0584 49.3834 74.707 46.8429C73.3665 44.3025 72.6963 41.2269 72.6963 37.6161C72.6963 33.9946 73.3774 30.9136 74.7395 28.3731C76.1016 25.8327 77.9502 23.8976 80.2853 22.5679C82.6204 21.2274 85.2473 20.5571 88.1662 20.5571C90.0904 20.5571 91.8742 20.8274 93.5174 21.3679C95.1714 21.9084 96.6362 22.6976 97.9118 23.7354C99.1875 24.7624 100.225 26.0219 101.025 27.5137C101.836 29.0056 102.355 30.7136 102.582 32.6379Z" fill="white"/>
<path d="M112.183 54.2211V21.0112H125.286C127.794 21.0112 129.934 21.4598 131.707 22.3571C133.491 23.2435 134.848 24.503 135.777 26.1354C136.718 27.7569 137.188 29.665 137.188 31.8595C137.188 34.0649 136.712 35.9621 135.761 37.5513C134.81 39.1296 133.431 40.3404 131.626 41.1836C129.832 42.0268 127.659 42.4484 125.107 42.4484H116.335V36.8054H123.972C125.313 36.8054 126.426 36.6216 127.313 36.254C128.199 35.8865 128.859 35.3351 129.291 34.6C129.734 33.8649 129.956 32.9514 129.956 31.8595C129.956 30.7569 129.734 29.8272 129.291 29.0704C128.859 28.3137 128.194 27.7407 127.296 27.3515C126.41 26.9516 125.291 26.7516 123.94 26.7516H119.205V54.2211H112.183ZM130.118 39.108L138.372 54.2211H130.621L122.545 39.108H130.118Z" fill="white"/>
<path d="M143.388 21.0112H151.253L158.826 35.3135H159.15L166.723 21.0112H174.587L162.474 42.4809V54.2211H155.501V42.4809L143.388 21.0112Z" fill="white"/>
<path d="M211.5 37.6161C211.5 41.2377 210.814 44.3187 209.441 46.8591C208.079 49.3996 206.219 51.3401 203.863 52.6806C201.517 54.0103 198.879 54.6752 195.949 54.6752C192.998 54.6752 190.349 54.0049 188.004 52.6644C185.658 51.3239 183.804 49.3834 182.442 46.8429C181.079 44.3025 180.398 41.2269 180.398 37.6161C180.398 33.9946 181.079 30.9136 182.442 28.3731C183.804 25.8327 185.658 23.8976 188.004 22.5679C190.349 21.2274 192.998 20.5571 195.949 20.5571C198.879 20.5571 201.517 21.2274 203.863 22.5679C206.219 23.8976 208.079 25.8327 209.441 28.3731C210.814 30.9136 211.5 33.9946 211.5 37.6161ZM204.382 37.6161C204.382 35.2703 204.03 33.2919 203.327 31.6812C202.636 30.0704 201.657 28.8488 200.392 28.0164C199.128 27.184 197.647 26.7678 195.949 26.7678C194.252 26.7678 192.771 27.184 191.506 28.0164C190.241 28.8488 189.258 30.0704 188.555 31.6812C187.863 33.2919 187.517 35.2703 187.517 37.6161C187.517 39.962 187.863 41.9404 188.555 43.5511C189.258 45.1619 190.241 46.3835 191.506 47.2159C192.771 48.0483 194.252 48.4645 195.949 48.4645C197.647 48.4645 199.128 48.0483 200.392 47.2159C201.657 46.3835 202.636 45.1619 203.327 43.5511C204.03 41.9404 204.382 39.962 204.382 37.6161Z" fill="white"/>
<path d="M73.123 91.0317V66.9714H87.0446V68.9451H75.32V78.003H85.9521V79.9767H75.32V91.0317H73.123Z" fill="white"/>
<path d="M111.19 66.9714H113.387V82.902C113.387 84.5389 113.004 86.0035 112.236 87.2958C111.468 88.5802 110.399 89.5945 109.029 90.3386C107.666 91.0748 106.08 91.4429 104.271 91.4429C102.469 91.4429 100.883 91.0709 99.5127 90.3268C98.1421 89.5828 97.073 88.5685 96.3055 87.284C95.5379 85.9996 95.1542 84.5389 95.1542 82.902V66.9714H97.3511V82.7492C97.3511 84.0259 97.6369 85.1654 98.2087 86.168C98.7804 87.1626 99.5832 87.9458 100.617 88.5176C101.659 89.0893 102.877 89.3752 104.271 89.3752C105.665 89.3752 106.883 89.0893 107.924 88.5176C108.966 87.9458 109.769 87.1626 110.333 86.168C110.905 85.1654 111.19 84.0259 111.19 82.7492V66.9714Z" fill="white"/>
<path d="M120.962 68.9451V66.9714H138.408V68.9451H130.784V91.0317H128.587V68.9451H120.962Z" fill="white"/>
<path d="M162.037 66.9714H164.234V82.902C164.234 84.5389 163.85 86.0035 163.083 87.2958C162.315 88.5802 161.246 89.5945 159.876 90.3386C158.513 91.0748 156.927 91.4429 155.118 91.4429C153.316 91.4429 151.73 91.0709 150.36 90.3268C148.989 89.5828 147.92 88.5685 147.152 87.284C146.385 85.9996 146.001 84.5389 146.001 82.902V66.9714H148.198V82.7492C148.198 84.0259 148.484 85.1654 149.055 86.168C149.627 87.1626 150.43 87.9458 151.464 88.5176C152.506 89.0893 153.723 89.3752 155.118 89.3752C156.512 89.3752 157.73 89.0893 158.771 88.5176C159.813 87.9458 160.616 87.1626 161.18 86.168C161.751 85.1654 162.037 84.0259 162.037 82.7492V66.9714Z" fill="white"/>
<path d="M173.266 91.0317V66.9714H181.031C182.739 66.9714 184.164 67.2808 185.308 67.8995C186.459 68.5104 187.325 69.3602 187.904 70.4489C188.492 71.5297 188.785 72.7711 188.785 74.1731C188.785 75.575 188.492 76.8125 187.904 77.8855C187.325 78.9585 186.463 79.7965 185.32 80.3996C184.176 81.0027 182.758 81.3042 181.067 81.3042H174.452V79.2953H181.008C182.261 79.2953 183.303 79.0877 184.133 78.6726C184.971 78.2575 185.594 77.6662 186.001 76.8986C186.416 76.1311 186.624 75.2226 186.624 74.1731C186.624 73.1236 186.416 72.2072 186.001 71.424C185.586 70.633 184.959 70.022 184.121 69.5913C183.291 69.1605 182.242 68.9451 180.973 68.9451H175.463V91.0317H173.266ZM183.875 80.1764L189.796 91.0317H187.258L181.396 80.1764H183.875Z" fill="white"/>
<path d="M196.783 91.0317V66.9714H210.74V68.9451H198.98V78.003H210V79.9767H198.98V89.058H210.975V91.0317H196.783Z" fill="white"/>
<defs>
<linearGradient id="paint0_linear_685_53425" x1="26.5733" y1="29.5526" x2="41.6235" y2="87.1383" gradientUnits="userSpaceOnUse">
<stop stop-color="#19FFAB"/>
<stop offset="1" stop-color="#136EFF"/>
</linearGradient>
<clipPath id="clip0_685_53425">
<rect width="62.2051" height="70.3593" fill="white" transform="translate(0.5 20.6721)"/>
</clipPath>
</defs>
</svg>
