<svg width="19" height="18" viewBox="0 0 19 18" fill="none" xmlns="http://www.w3.org/2000/svg">
<g id="x">
<path id="Vector" fill-rule="evenodd" clip-rule="evenodd" d="M4.21297 3.86363C4.38175 3.6949 4.61062 3.60012 4.84927 3.60012C5.08792 3.60012 5.3168 3.6949 5.48557 3.86363L9.34927 7.72733L13.213 3.86363C13.296 3.77767 13.3953 3.7091 13.5051 3.66194C13.6149 3.61477 13.733 3.58994 13.8525 3.5889C13.972 3.58786 14.0905 3.61063 14.2011 3.65589C14.3117 3.70114 14.4122 3.76797 14.4967 3.85247C14.5812 3.93697 14.6481 4.03746 14.6933 4.14807C14.7386 4.25867 14.7613 4.37719 14.7603 4.49669C14.7593 4.61619 14.7344 4.73429 14.6873 4.84409C14.6401 4.95389 14.5715 5.0532 14.4856 5.13623L10.6219 8.99993L14.4856 12.8636C14.6495 13.0334 14.7402 13.2607 14.7382 13.4967C14.7361 13.7327 14.6415 13.9584 14.4746 14.1253C14.3077 14.2921 14.082 14.3868 13.846 14.3888C13.6101 14.3909 13.3827 14.3002 13.213 14.1362L9.34927 10.2725L5.48557 14.1362C5.31583 14.3002 5.08849 14.3909 4.85251 14.3888C4.61653 14.3868 4.3908 14.2921 4.22393 14.1253C4.05707 13.9584 3.96241 13.7327 3.96036 13.4967C3.95831 13.2607 4.04903 13.0334 4.21297 12.8636L8.07667 8.99993L4.21297 5.13623C4.04425 4.96745 3.94946 4.73857 3.94946 4.49993C3.94946 4.26128 4.04425 4.0324 4.21297 3.86363Z" fill="url(#paint0_linear_1186_151684)"/>
</g>
<defs>
<linearGradient id="paint0_linear_1186_151684" x1="0.817028" y1="-15.0893" x2="10.7463" y2="-17.1918" gradientUnits="userSpaceOnUse">
<stop stop-color="#1371FD"/>
<stop offset="1" stop-color="#18E3BB"/>
</linearGradient>
</defs>
</svg>
