<svg width="25" height="25" viewBox="0 0 25 25" fill="none" xmlns="http://www.w3.org/2000/svg">
<path d="M12.8779 5.0459V5.0559M12.8779 12.0459V12.0559M12.8779 19.0459V19.0559M12.8779 6.0459C12.6127 6.0459 12.3584 5.94054 12.1708 5.75301C11.9833 5.56547 11.8779 5.31111 11.8779 5.0459C11.8779 4.78068 11.9833 4.52633 12.1708 4.33879C12.3584 4.15126 12.6127 4.0459 12.8779 4.0459C13.1431 4.0459 13.3975 4.15126 13.585 4.33879C13.7726 4.52633 13.8779 4.78068 13.8779 5.0459C13.8779 5.31111 13.7726 5.56547 13.585 5.75301C13.3975 5.94054 13.1431 6.0459 12.8779 6.0459ZM12.8779 13.0459C12.6127 13.0459 12.3584 12.9405 12.1708 12.753C11.9833 12.5655 11.8779 12.3111 11.8779 12.0459C11.8779 11.7807 11.9833 11.5263 12.1708 11.3388C12.3584 11.1513 12.6127 11.0459 12.8779 11.0459C13.1431 11.0459 13.3975 11.1513 13.585 11.3388C13.7726 11.5263 13.8779 11.7807 13.8779 12.0459C13.8779 12.3111 13.7726 12.5655 13.585 12.753C13.3975 12.9405 13.1431 13.0459 12.8779 13.0459ZM12.8779 20.0459C12.6127 20.0459 12.3584 19.9405 12.1708 19.753C11.9833 19.5655 11.8779 19.3111 11.8779 19.0459C11.8779 18.7807 11.9833 18.5263 12.1708 18.3388C12.3584 18.1513 12.6127 18.0459 12.8779 18.0459C13.1431 18.0459 13.3975 18.1513 13.585 18.3388C13.7726 18.5263 13.8779 18.7807 13.8779 19.0459C13.8779 19.3111 13.7726 19.5655 13.585 19.753C13.3975 19.9405 13.1431 20.0459 12.8779 20.0459Z" stroke="#F9FAFB" stroke-width="2" stroke-linecap="round" stroke-linejoin="round"/>
</svg>
