<svg width="40" height="40" viewBox="0 0 40 40" fill="none" xmlns="http://www.w3.org/2000/svg">
<rect width="40" height="40" rx="20" fill="#4F4F4F"/>
<path fill-rule="evenodd" clip-rule="evenodd" d="M14 14C14 13.4696 14.2107 12.9609 14.5858 12.5858C14.9609 12.2107 15.4696 12 16 12H20.586C21.1164 12.0001 21.625 12.2109 22 12.586L25.414 16C25.7891 16.375 25.9999 16.8836 26 17.414V26C26 26.5304 25.7893 27.0391 25.4142 27.4142C25.0391 27.7893 24.5304 28 24 28H16C15.4696 28 14.9609 27.7893 14.5858 27.4142C14.2107 27.0391 14 26.5304 14 26V14ZM16 20C16 19.7348 16.1054 19.4804 16.2929 19.2929C16.4804 19.1054 16.7348 19 17 19H23C23.2652 19 23.5196 19.1054 23.7071 19.2929C23.8946 19.4804 24 19.7348 24 20C24 20.2652 23.8946 20.5196 23.7071 20.7071C23.5196 20.8946 23.2652 21 23 21H17C16.7348 21 16.4804 20.8946 16.2929 20.7071C16.1054 20.5196 16 20.2652 16 20ZM17 23C16.7348 23 16.4804 23.1054 16.2929 23.2929C16.1054 23.4804 16 23.7348 16 24C16 24.2652 16.1054 24.5196 16.2929 24.7071C16.4804 24.8946 16.7348 25 17 25H23C23.2652 25 23.5196 24.8946 23.7071 24.7071C23.8946 24.5196 24 24.2652 24 24C24 23.7348 23.8946 23.4804 23.7071 23.2929C23.5196 23.1054 23.2652 23 23 23H17Z" fill="#F9FAFB"/>
</svg>
