<svg width="32" height="33" viewBox="0 0 32 33" fill="none" xmlns="http://www.w3.org/2000/svg">
<path fill-rule="evenodd" clip-rule="evenodd" d="M25.8537 9.77197L26.5754 6.29511C26.6811 5.78616 26.3494 5.31517 25.8347 5.24315C25.3199 5.17113 24.8166 5.52687 24.7109 6.03582L23.6729 11.0362L20.4073 12.9294C20.7826 13.4305 21.0692 14.0019 21.2437 14.6203L24.6571 12.6415L29.3818 14.2973C29.8723 14.4692 30.4352 14.221 30.6389 13.7428C30.8427 13.2646 30.6087 12.737 30.1182 12.5651L26.7967 11.401L30.3494 9.34143C30.7991 9.08073 30.9523 8.50484 30.6916 8.05514C30.4309 7.60545 29.8551 7.45224 29.4054 7.71294L25.8537 9.77197ZM17.067 21.1437C16.8045 21.1847 16.5355 21.206 16.2614 21.206C15.8922 21.206 15.532 21.1674 15.1847 21.0939V24.4666L11.2379 27.6981C10.8357 28.0274 10.7766 28.6204 11.1059 29.0226C11.4352 29.4248 12.0286 29.4835 12.4308 29.1542L15.1847 26.8994V31.5588C15.1847 32.0786 15.6061 32.5001 16.1259 32.5001C16.6457 32.5001 17.067 32.0779 17.067 31.5581V27.0927L19.5851 29.1549C19.9873 29.4842 20.5803 29.4252 20.9096 29.023C21.239 28.6209 21.1796 28.0276 20.7774 27.6982L17.067 24.6597V21.1437ZM11.2258 14.8254L7.8765 12.9427L3.1298 14.6626C2.64109 14.8397 2.07765 14.5964 1.87313 14.1185C1.66861 13.6406 1.89901 13.1097 2.38772 12.9326L5.7143 11.7272L1.62083 9.42619C1.16772 9.17148 1.00552 8.59692 1.26022 8.1438C1.51493 7.69069 2.08882 7.52989 2.54193 7.7846L6.60685 10.0696L5.89122 6.64812C5.7848 6.13933 6.11489 5.66261 6.6289 5.58523C7.1429 5.50785 7.64586 5.85761 7.75228 6.3664L8.78265 11.2927L11.9944 13.0981C11.6393 13.614 11.3753 14.1975 11.2258 14.8254Z" fill="#6098CE"/>
<path fill-rule="evenodd" clip-rule="evenodd" d="M6.60925 22.8202L5.89513 26.2601C5.78948 26.7691 6.12113 27.2401 6.63592 27.3121C7.1507 27.3841 7.65399 27.0284 7.75964 26.5194L8.77553 21.6259L12.4906 19.5777C12.0594 19.1198 11.7106 18.5833 11.4682 17.9919L7.91594 19.9503L3.08699 18.2579C2.59645 18.086 2.03358 18.3343 1.82983 18.8125C1.62607 19.2907 1.86005 19.8182 2.35059 19.9901L5.70889 21.1671L1.56123 23.4538C1.10603 23.7048 0.940374 24.2773 1.19134 24.7325C1.4423 25.1877 2.01613 25.3525 2.47132 25.1016L6.60925 22.8202ZM15.183 10.9651C15.5303 10.8916 15.8905 10.853 16.2597 10.853C16.5337 10.853 16.8028 10.8743 17.0653 10.9153V7.56904L20.7768 4.53016C21.179 4.20086 21.2381 3.60786 20.9088 3.20568C20.5795 2.80349 19.9861 2.74473 19.5839 3.07403L17.0653 5.13621L17.0653 1.44118C17.0653 0.921379 16.6439 0.5 16.1241 0.5C15.6043 0.5 15.183 0.921379 15.183 1.44118L15.183 5.32825L12.4296 3.07341C12.0274 2.74408 11.4344 2.80309 11.1051 3.20525C10.7757 3.6074 10.8351 4.20071 11.2373 4.53004L15.183 7.76125V10.9651ZM20.9982 18.1167C20.74 18.702 20.3765 19.2304 19.9317 19.678L23.5848 21.6959L24.619 26.6406C24.7255 27.1494 25.2284 27.4991 25.7424 27.4218C26.2564 27.3444 26.5865 26.8677 26.4801 26.3589L25.7556 22.895L29.3276 24.8682C29.7826 25.1195 30.3552 24.9544 30.6066 24.4994C30.8579 24.0444 30.6928 23.4718 30.2378 23.2205L26.698 21.2651L29.9836 20.0746C30.4723 19.8975 30.7027 19.3666 30.4982 18.8887C30.2937 18.4108 29.7302 18.1675 29.2415 18.3446L24.5127 20.0581L20.9982 18.1167Z" fill="#5DC3B3"/>
</svg>
