<svg width="211" height="112" viewBox="0 0 211 112" fill="none" xmlns="http://www.w3.org/2000/svg">
<g clip-path="url(#clip0_1234_113816)">
<path d="M60.1274 71.664C60.1132 71.6782 60.1002 71.6936 60.0872 71.7089L57.1699 69.7604C57.386 69.3084 57.308 68.7502 56.9338 68.3761C56.458 67.9005 55.6882 67.9005 55.2124 68.3761C55.1971 68.3914 55.1829 68.408 55.1687 68.4245L52.2502 66.4748C52.4639 66.0228 52.386 65.4682 52.0117 65.094C51.5359 64.6184 50.7662 64.6184 50.2904 65.094C50.2762 65.1082 50.2632 65.1236 50.2502 65.1389L47.3317 63.1893C47.5454 62.7372 47.4675 62.1826 47.0932 61.8085C46.6174 61.3328 45.8477 61.3328 45.3719 61.8085C45.1865 61.9937 45.0743 62.2251 45.033 62.4658L43.6954 62.4375C43.6635 62.179 43.549 61.9277 43.3494 61.7294C42.8736 61.2538 42.1039 61.2538 41.6281 61.7294C41.1523 62.205 41.1523 62.9745 41.6281 63.4501C41.8264 63.6483 42.0779 63.7628 42.3365 63.7959L42.3648 65.133C42.2762 65.1483 42.1889 65.1719 42.1027 65.2073C41.8595 65.3077 41.6682 65.4788 41.5384 65.6853L40.3129 65.1472C40.3825 64.8958 40.3719 64.6196 40.2645 64.36C40.0071 63.7392 39.2952 63.4442 38.6741 63.7014C38.0531 63.9587 37.758 64.6704 38.0154 65.2911C38.1228 65.5508 38.3105 65.7526 38.5384 65.8812L38.0531 67.1275C37.9658 67.1074 37.8749 67.0956 37.7816 67.0956C37.5195 67.0956 37.2763 67.1794 37.0779 67.321L36.1523 66.3556C36.3129 66.1491 36.4085 65.8918 36.4085 65.6098C36.4085 64.9383 35.8642 64.393 35.1913 64.393C34.5183 64.393 33.974 64.9371 33.974 65.6098C33.974 65.8907 34.0709 66.1491 34.2302 66.3556L33.3046 67.321C33.2314 67.2691 33.1523 67.2243 33.0661 67.1888C32.8229 67.0885 32.5667 67.0732 32.3294 67.1275L31.8442 65.8812C32.0709 65.7526 32.2586 65.5508 32.3672 65.2911C32.6246 64.6704 32.3294 63.9587 31.7084 63.7014C31.0874 63.4442 30.3755 63.7392 30.1181 64.36C30.0107 64.6196 30.0012 64.8958 30.0697 65.1472L28.8454 65.6853C28.7982 65.6098 28.7415 65.5378 28.6754 65.4717C28.49 65.2864 28.2586 65.1743 28.0178 65.133L28.0461 63.7959C28.3047 63.764 28.5561 63.6495 28.7545 63.4501C29.2303 62.9745 29.2303 62.205 28.7545 61.7294C28.2787 61.2538 27.5089 61.2538 27.0331 61.7294C26.8336 61.9277 26.7202 62.179 26.6872 62.4375L25.3495 62.4658C25.3342 62.3773 25.3106 62.29 25.2752 62.2038C25.1748 61.9607 25.0036 61.7695 24.797 61.6397L25.3354 60.4147C25.5868 60.4843 25.8631 60.4737 26.1228 60.3663C26.7439 60.109 27.039 59.3974 26.7816 58.7766C26.5243 58.1558 25.8123 57.8608 25.1913 58.1181C24.9316 58.2255 24.7297 58.4131 24.601 58.6409L23.3543 58.1558C23.3743 58.0685 23.3861 57.9776 23.3861 57.8844C23.3861 57.6224 23.3023 57.3793 23.1606 57.181L24.1264 56.2558C24.333 56.4163 24.5904 56.5119 24.8726 56.5119C25.5443 56.5119 26.0898 55.9678 26.0898 55.2951C26.0898 54.6224 25.5455 54.0783 24.8726 54.0783C24.5916 54.0783 24.333 54.1751 24.1264 54.3344L23.1606 53.4092C23.2126 53.336 23.2575 53.2569 23.2929 53.1708C23.3932 52.9277 23.4086 52.6716 23.3543 52.4344L24.601 51.9493C24.7297 52.1759 24.9316 52.3636 25.1913 52.4721C25.8123 52.7294 26.5243 52.4344 26.7816 51.8136C27.039 51.1928 26.7439 50.4812 26.1228 50.2239C25.8631 50.1165 25.5868 50.1071 25.3354 50.1755L24.797 48.9517C24.8726 48.9045 24.9446 48.8478 25.0107 48.7817C25.1961 48.5965 25.3082 48.3651 25.3495 48.1244L26.6872 48.1527C26.7191 48.4112 26.8336 48.6625 27.0331 48.8608C27.5089 49.3364 28.2787 49.3364 28.7545 48.8608C29.2303 48.3852 29.2303 47.6157 28.7545 47.1401C28.555 46.9419 28.3047 46.8274 28.0461 46.7943L28.0178 45.4572C28.1063 45.4419 28.1937 45.4183 28.2799 45.3829C28.5231 45.2825 28.7143 45.1114 28.8442 44.9049L30.0697 45.443C30 45.6944 30.0107 45.9706 30.1181 46.2302C30.3755 46.851 31.0874 47.146 31.7084 46.8888C32.3294 46.6315 32.6246 45.9198 32.3672 45.2991C32.2598 45.0394 32.0721 44.8376 31.8442 44.709L32.3294 43.4627C32.4168 43.4828 32.5077 43.4946 32.601 43.4946C32.8631 43.4946 33.1063 43.4108 33.3046 43.2692L34.2302 44.2346C34.0697 44.4411 33.974 44.6984 33.974 44.9804C33.974 45.6519 34.5183 46.1972 35.1913 46.1972C35.8642 46.1972 36.4085 45.6531 36.4085 44.9804C36.4085 44.6995 36.3117 44.4411 36.1523 44.2346L37.0779 43.2692C37.1511 43.3211 37.2302 43.3659 37.3164 43.4014C37.5596 43.5017 37.8158 43.517 38.0531 43.4627L38.5384 44.709C38.3117 44.8376 38.124 45.0394 38.0154 45.2991C37.758 45.9198 38.0531 46.6315 38.6741 46.8888C39.2952 47.146 40.0071 46.851 40.2645 46.2302C40.3719 45.9706 40.3813 45.6944 40.3129 45.443L41.5372 44.9049C41.5844 44.9804 41.6411 45.0524 41.7072 45.1185C41.8925 45.3038 42.1239 45.4159 42.3648 45.4572L42.3365 46.7943C42.0779 46.8262 41.8264 46.9407 41.6281 47.1401C41.1523 47.6157 41.1523 48.3852 41.6281 48.8608C42.1039 49.3364 42.8736 49.3364 43.3494 48.8608C43.5478 48.6625 43.6623 48.4112 43.6954 48.1527L45.033 48.1244C45.0732 48.3651 45.1853 48.5965 45.3719 48.7817C45.8477 49.2574 46.6174 49.2574 47.0932 48.7817C47.4675 48.4076 47.5454 47.853 47.3317 47.4009L50.2502 45.4513C50.2644 45.4667 50.2762 45.482 50.2904 45.4962C50.7662 45.9718 51.5359 45.9718 52.0117 45.4962C52.386 45.122 52.4639 44.5674 52.2502 44.1154L55.1687 42.1657C55.1829 42.1822 55.1971 42.1988 55.2124 42.2141C55.6882 42.6897 56.458 42.6897 56.9338 42.2141C57.308 41.84 57.386 41.2818 57.1699 40.8298L60.0872 38.8813C60.1002 38.8966 60.1132 38.912 60.1274 38.9262C60.6032 39.4018 61.373 39.4018 61.8488 38.9262C62.3245 38.4505 62.3245 37.6811 61.8488 37.2055C61.5772 36.934 61.21 36.8184 60.857 36.8573L59.6953 32.3986C59.8358 32.3396 59.9668 32.2535 60.0802 32.139C60.556 31.6634 60.556 30.8939 60.0802 30.4183C59.6044 29.9427 58.8346 29.9427 58.3588 30.4183C58.2443 30.5328 58.1593 30.6638 58.0991 30.8031L53.6386 29.6418C53.6764 29.2877 53.5607 28.9207 53.2904 28.6504C52.8984 28.2586 52.3081 28.1913 51.8453 28.4439L49.0649 24.7688C49.1711 24.6603 49.2597 24.5305 49.3223 24.3817C49.5796 23.761 49.2845 23.0493 48.6635 22.7921C48.0424 22.5348 47.3305 22.8298 47.0732 23.4506C47.0118 23.5993 46.9822 23.7539 46.9811 23.9061L42.4144 24.5387C42.314 24.1976 42.0673 23.9026 41.7131 23.7563C41.2019 23.545 40.6293 23.7079 40.2987 24.1186L36.3223 21.7866C36.379 21.6461 36.4109 21.4927 36.4109 21.331C36.4109 20.6595 35.8666 20.1143 35.1936 20.1143C34.5207 20.1143 33.9764 20.6583 33.9764 21.331C33.9764 21.4927 34.0083 21.6461 34.065 21.7866L30.0886 24.1186C29.8655 23.8412 29.5243 23.6642 29.1405 23.6642C28.5868 23.6642 28.1205 24.0336 27.9729 24.5399L23.4062 23.9073C23.405 23.7551 23.3755 23.6017 23.3141 23.4518C23.0568 22.831 22.3448 22.536 21.7238 22.7932C21.1028 23.0505 20.8076 23.7622 21.065 24.3829C21.1264 24.5316 21.215 24.6614 21.3224 24.77L18.542 28.4451C18.2303 28.2739 17.8466 28.2409 17.4924 28.3872C16.9812 28.5985 16.692 29.1189 16.7486 29.6429L12.2882 30.8042C12.2292 30.6638 12.143 30.5328 12.0285 30.4195C11.5527 29.9439 10.7829 29.9439 10.3071 30.4195C9.83132 30.8951 9.83132 31.6646 10.3071 32.1402C10.4216 32.2547 10.5527 32.3396 10.692 32.3998L9.53026 36.8585C9.17607 36.8207 8.80889 36.9364 8.53853 37.2066C8.14656 37.5985 8.07926 38.1885 8.33192 38.6512L4.65543 41.4305C4.54681 41.3243 4.41695 41.2357 4.26819 41.1732C3.64717 40.9159 2.93525 41.211 2.67788 41.8317C2.4205 42.4525 2.71566 43.1641 3.33667 43.4214C3.48543 43.4828 3.64009 43.5123 3.79239 43.5135L4.42521 48.0784C4.08401 48.1787 3.78885 48.4253 3.64245 48.7794C3.43112 49.2904 3.59405 49.8628 4.0049 50.1932L1.67198 54.168C1.53148 54.1114 1.378 54.0795 1.21625 54.0795C0.544475 54.0795 -0.000976562 54.6236 -0.000976562 55.2963C-0.000976562 55.969 0.543294 56.513 1.21625 56.513C1.378 56.513 1.53148 56.4812 1.67198 56.4245L4.0049 60.3993C3.72746 60.6224 3.55036 60.9635 3.55036 61.347C3.55036 61.9005 3.9199 62.3667 4.42639 62.5142L3.79357 67.0791C3.64127 67.0803 3.48779 67.1098 3.33785 67.1711C2.71684 67.4284 2.42168 68.1401 2.67906 68.7608C2.93643 69.3816 3.64835 69.6766 4.26937 69.4194C4.41813 69.358 4.548 69.2695 4.65661 69.1621L8.3331 71.9414C8.16191 72.253 8.12885 72.6365 8.27525 72.9906C8.48658 73.5016 9.00724 73.7907 9.53144 73.7341L10.6932 78.1927C10.5527 78.2518 10.4216 78.3379 10.3083 78.4524C9.8325 78.928 9.8325 79.6975 10.3083 80.1731C10.7841 80.6487 11.5539 80.6487 12.0297 80.1731C12.1442 80.0586 12.2292 79.9276 12.2894 79.7883L16.7498 80.9496C16.712 81.3037 16.8277 81.6707 17.0981 81.941C17.4901 82.3328 18.0804 82.4 18.5432 82.1475L21.3236 85.8225C21.2173 85.9311 21.1288 86.0609 21.0674 86.2096C20.81 86.8304 21.1052 87.542 21.7262 87.7993C22.3472 88.0566 23.0591 87.7616 23.3165 87.1408C23.3779 86.9921 23.4074 86.8375 23.4086 86.6852L27.9753 86.0515C28.0756 86.3926 28.3224 86.6876 28.6766 86.8339C29.1878 87.0452 29.7604 86.8823 30.091 86.4716L34.0673 88.8036C34.0106 88.9441 33.9788 89.0975 33.9788 89.2592C33.9788 89.9307 34.523 90.4759 35.196 90.4759C35.869 90.4759 36.4132 89.9319 36.4132 89.2592C36.4132 89.0975 36.3814 88.9441 36.3247 88.8036L40.3011 86.4716C40.5242 86.749 40.8654 86.926 41.2491 86.926C41.8028 86.926 42.2692 86.5566 42.4167 86.0503L46.9834 86.6841C46.9846 86.8363 47.0141 86.9897 47.0755 87.1396C47.3329 87.7604 48.0448 88.0554 48.6658 87.7981C49.2868 87.5409 49.582 86.8292 49.3246 86.2085C49.2632 86.0598 49.1747 85.9299 49.0684 85.8214L51.8488 82.1463C52.1605 82.3174 52.5442 82.3505 52.8984 82.2041C53.4096 81.9929 53.6989 81.4724 53.6422 80.9484L58.1026 79.7872C58.1616 79.9276 58.2478 80.0586 58.3623 80.1719C58.8381 80.6475 59.6079 80.6475 60.0837 80.1719C60.5595 79.6963 60.5595 78.9268 60.0837 78.4512C59.9692 78.3367 59.8381 78.2518 59.6988 78.1916L60.8606 73.7329C61.2148 73.7706 61.5819 73.655 61.8523 73.3847C62.3281 72.9091 62.3281 72.1397 61.8523 71.664C61.3765 71.1884 60.6067 71.1884 60.1309 71.664H60.1274ZM59.8889 72.0039C59.7638 72.2683 59.739 72.5669 59.8145 72.8442L56.0672 74.4858C56.0188 74.4091 55.9633 74.3371 55.8972 74.271C55.7579 74.1318 55.5938 74.035 55.419 73.9772L56.0377 70.4508C56.3612 70.4603 56.687 70.3423 56.9338 70.0968C56.9468 70.0838 56.9586 70.0685 56.9716 70.0543L59.8901 72.0039H59.8889ZM55.2112 40.4958C55.1168 40.5902 55.0412 40.6976 54.9846 40.8109L52.0519 39.849C52.1074 39.528 52.033 39.1905 51.8287 38.9179L54.3104 36.4372C54.5347 36.6036 54.8016 36.6838 55.0684 36.6768L55.687 40.2031C55.5135 40.2609 55.3494 40.3577 55.2112 40.4958ZM50.2904 43.7778C50.1534 43.9147 50.0578 44.0764 49.9988 44.2475L47.8866 43.8628C47.8961 43.5937 47.8158 43.3235 47.6469 43.0969L50.1286 40.6162C50.314 40.7542 50.5289 40.8333 50.7473 40.8522L50.9008 43.4474C50.6764 43.4934 50.4627 43.6032 50.2892 43.7778H50.2904ZM46.1841 46.7094C45.889 46.7212 45.5974 46.838 45.3719 47.0634C45.1735 47.2617 45.059 47.5131 45.0259 47.7715L43.6883 47.7998C43.6576 47.6146 43.582 47.4352 43.4651 47.2782L45.9468 44.7975C46.0755 44.8931 46.2184 44.9604 46.3671 44.9981L46.1841 46.7082V46.7094ZM45.3719 63.5291C45.5974 63.7546 45.889 63.8714 46.1841 63.8832L46.3671 65.5933C46.2184 65.6322 46.0755 65.6983 45.9468 65.7939L43.4651 63.3132C43.582 63.1562 43.6576 62.9768 43.6883 62.7915L45.0259 62.8199C45.0578 63.0783 45.1723 63.3297 45.3719 63.528V63.5291ZM50.2904 66.8147C50.4639 66.9882 50.6776 67.098 50.9019 67.1452L50.7485 69.7404C50.5289 69.7593 50.314 69.8383 50.1298 69.9764L47.6481 67.4957C47.8169 67.2691 47.896 66.9988 47.8878 66.7298L49.9999 66.345C50.0578 66.5161 50.1546 66.6778 50.2916 66.8147H50.2904ZM55.2112 70.0968C55.3494 70.2349 55.5135 70.3316 55.687 70.3895L55.0684 73.9158C54.8016 73.9087 54.5347 73.989 54.3104 74.1554L51.8287 71.6747C52.0318 71.4021 52.1062 71.0645 52.0519 70.7435L54.9846 69.7817C55.0412 69.895 55.1168 70.0024 55.2112 70.0968ZM51.2219 80.9272L47.131 81.0098C47.1157 80.9213 47.092 80.8328 47.0566 80.7454C46.9811 80.5637 46.8665 80.4115 46.7272 80.2911L48.6481 77.2699C48.9433 77.402 49.2892 77.4186 49.6115 77.2852C49.6292 77.2781 49.6457 77.2687 49.6623 77.2604L51.6127 80.1778C51.3966 80.3737 51.2585 80.6404 51.2219 80.926V80.9272ZM41.9905 84.7498C41.7851 84.5904 41.5265 84.4937 41.2456 84.4937C41.2255 84.4937 41.2054 84.496 41.1853 84.4972L40.5006 81.057C40.8359 80.939 41.1039 80.6782 41.2314 80.3465L44.7202 81.1231C44.7072 81.306 44.7331 81.496 44.8087 81.6766C44.8441 81.7628 44.8902 81.843 44.9421 81.9162L41.9905 84.7486V84.7498ZM28.3967 84.7498L25.4452 81.9174C25.4971 81.8442 25.5432 81.7639 25.5786 81.6778C25.6541 81.496 25.6801 81.3072 25.6671 81.1243L29.163 80.3454C29.2775 80.6475 29.5113 80.9036 29.8336 81.037C29.8513 81.044 29.869 81.0499 29.8867 81.0558L29.2019 84.4972C28.9103 84.483 28.6246 84.5739 28.3967 84.7498ZM19.1642 80.9272C19.1312 80.6687 19.0166 80.4185 18.8183 80.2203C18.8041 80.2061 18.7888 80.1931 18.7734 80.1801L20.7226 77.2639C21.0438 77.4174 21.4169 77.4221 21.7415 77.2781L23.6589 80.2934C23.5196 80.4138 23.405 80.5661 23.3295 80.7478C23.2941 80.834 23.2693 80.9225 23.2539 81.0122L19.163 80.9296L19.1642 80.9272ZM5.98128 61.2856L9.42282 60.6011C9.54088 60.9363 9.8018 61.2042 10.1336 61.3317L9.35671 64.8191C9.17371 64.8061 8.98363 64.8321 8.80299 64.9076C8.7168 64.943 8.63652 64.989 8.56332 65.0409L5.72981 62.0905C5.88919 61.8852 5.986 61.6267 5.986 61.3458C5.986 61.3258 5.98364 61.3057 5.98246 61.2856H5.98128ZM5.72863 48.502L8.56214 45.5516C8.63534 45.6035 8.71562 45.6496 8.80181 45.685C8.98363 45.7605 9.17253 45.7865 9.35553 45.7735L10.1347 49.268C9.8325 49.3825 9.5763 49.6161 9.44289 49.9383C9.43581 49.956 9.42991 49.9737 9.424 49.9914L5.98128 49.3069C5.99545 49.0154 5.90454 48.7298 5.72863 48.502ZM19.1654 29.6654L23.2563 29.5828C23.2716 29.6713 23.2952 29.7598 23.3318 29.8471C23.4074 30.0289 23.5219 30.1811 23.6612 30.3015L21.7403 33.3227C21.4452 33.1905 21.0993 33.174 20.777 33.3074C20.7592 33.3144 20.7427 33.3239 20.7262 33.3322L18.7758 30.4148C18.9918 30.2189 19.13 29.9521 19.1666 29.6665L19.1654 29.6654ZM28.3967 25.8428C28.6022 26.0021 28.8607 26.0989 29.1417 26.0989C29.1618 26.0989 29.1819 26.0965 29.2019 26.0954L29.8867 29.5355C29.5514 29.6536 29.2834 29.9144 29.1559 30.246L25.6671 29.4695C25.6801 29.2865 25.6541 29.0965 25.5786 28.916C25.5432 28.8298 25.4971 28.7496 25.4452 28.6764L28.3967 25.844V25.8428ZM41.9905 25.8428L44.9421 28.6752C44.8902 28.7484 44.8441 28.8286 44.8087 28.9148C44.7331 29.0965 44.7072 29.2854 44.7202 29.4683L41.2243 30.2472C41.1098 29.9451 40.876 29.689 40.5537 29.5556C40.536 29.5485 40.5183 29.5426 40.5006 29.5367L41.1853 26.0954C41.477 26.1095 41.7627 26.0186 41.9905 25.8428ZM51.2219 29.6654C51.2549 29.9238 51.3695 30.174 51.5678 30.3723C51.582 30.3865 51.5973 30.3994 51.6127 30.4124L49.6635 33.3286C49.3423 33.1752 48.9692 33.1705 48.6446 33.3144L46.7272 30.2991C46.8665 30.1787 46.9811 30.0265 47.0566 29.8448C47.092 29.7586 47.1168 29.6701 47.1322 29.5804L51.2231 29.663L51.2219 29.6654ZM54.0601 36.1858L51.5784 38.6665C51.3057 38.4635 50.9681 38.3892 50.6469 38.4435L49.6847 35.5119C49.798 35.4553 49.9055 35.3797 49.9999 35.2853C50.1381 35.1473 50.2349 34.9832 50.2927 34.8097L53.8205 35.4281C53.8134 35.6948 53.8937 35.9616 54.0601 36.1858ZM47.3966 42.8467C47.17 42.6779 46.8996 42.5988 46.6304 42.6071L46.2455 40.4958C46.4167 40.438 46.5785 40.3412 46.7154 40.2055C46.889 40.032 46.9988 39.8184 47.046 39.5941L49.6422 39.7487C49.6611 39.9682 49.7402 40.183 49.8783 40.3671L47.3966 42.8479V42.8467ZM43.7461 43.9572C43.6942 43.753 43.5891 43.5607 43.4297 43.4014C43.4156 43.3872 43.4002 43.3742 43.3849 43.3612L45.3353 40.4439C45.5124 40.5276 45.7048 40.5666 45.8972 40.5595L46.2821 42.6708C46.1109 42.7287 45.9492 42.8254 45.8122 42.9623C45.5867 43.1877 45.4699 43.4792 45.458 43.7743L43.7473 43.9572H43.7461ZM37.1665 41.2322L36.0862 39.8939C36.2869 39.6767 36.4097 39.3876 36.4097 39.0701C36.4097 38.8766 36.3636 38.6948 36.2834 38.532L38.0484 37.3105C38.1629 37.4332 38.3058 37.5359 38.4711 37.6044C38.49 37.6126 38.5089 37.6173 38.5277 37.6244L37.843 41.0658C37.6033 41.054 37.3684 41.113 37.1653 41.2322H37.1665ZM33.2196 41.2322C33.039 41.1248 32.8277 41.0623 32.6022 41.0623C32.5821 41.0623 32.562 41.0646 32.5419 41.0658L31.8572 37.6244C32.0414 37.5583 32.2055 37.4498 32.3365 37.3093L34.1027 38.5308C34.0225 38.6937 33.9764 38.8754 33.9764 39.069C33.9764 39.3876 34.1004 39.6767 34.2999 39.8939L33.2196 41.2322ZM26.64 43.956L24.9292 43.7731C24.9174 43.4781 24.8005 43.1866 24.575 42.9612C24.4381 42.8243 24.2763 42.7287 24.1052 42.6696L24.49 40.5583C24.6589 40.5642 24.8312 40.5359 24.9965 40.4675C25.0154 40.4592 25.0331 40.4498 25.0508 40.4415L27.0012 43.3589C26.823 43.5194 26.699 43.7283 26.64 43.956ZM23.2929 47.0622C23.2787 47.0764 23.2657 47.0917 23.2527 47.1071L20.3342 45.1574C20.418 44.9804 20.457 44.7881 20.4499 44.5957L22.5621 44.211C22.6199 44.3821 22.7167 44.5438 22.8537 44.6807C23.0792 44.9061 23.3708 45.0229 23.666 45.0347L23.849 46.7448C23.6447 46.7967 23.4523 46.9017 23.2929 47.0611V47.0622ZM21.1241 53.323L19.7852 54.4029C19.568 54.2023 19.2787 54.0795 18.9611 54.0795C18.7675 54.0795 18.5857 54.1256 18.4228 54.2058L17.2008 52.4415C17.3236 52.327 17.4263 52.1842 17.4948 52.0189C17.5031 52.0001 17.5078 51.9812 17.5149 51.9623L20.9576 52.6468C20.9458 52.8864 21.0048 53.1212 21.1241 53.3242V53.323ZM20.9576 57.9446L17.5149 58.6291C17.4488 58.445 17.3401 58.2809 17.1996 58.1499L18.4216 56.3844C18.5845 56.4646 18.7663 56.5107 18.96 56.5107C19.2787 56.5107 19.568 56.3868 19.784 56.1873L21.1229 57.2672C21.0154 57.4477 20.954 57.659 20.954 57.8844C20.954 57.9045 20.9564 57.9245 20.9576 57.9446ZM23.849 63.8442L23.666 65.5543C23.3708 65.5661 23.0792 65.6829 22.8537 65.9084C22.7167 66.0453 22.6211 66.2069 22.5621 66.3781L20.4499 65.9933C20.4558 65.8246 20.4275 65.6523 20.359 65.487C20.3507 65.4682 20.3413 65.4505 20.333 65.4328L23.2516 63.4831C23.4121 63.6613 23.6211 63.7852 23.849 63.8442ZM26.64 66.633C26.6919 66.8372 26.797 67.0295 26.9564 67.1888C26.9705 67.203 26.9859 67.216 27.0012 67.229L25.0508 70.1463C24.8737 70.0626 24.6813 70.0236 24.4889 70.0295L24.104 67.9182C24.2752 67.8604 24.4369 67.7636 24.5739 67.6267C24.7994 67.4013 24.9162 67.1098 24.9281 66.8147L26.6388 66.6318L26.64 66.633ZM33.2196 69.358L34.2999 70.6963C34.0992 70.9135 33.9764 71.2026 33.9764 71.5212C33.9764 71.7148 34.0225 71.8965 34.1027 72.0594L32.3377 73.2809C32.2232 73.1581 32.0803 73.0555 31.915 72.987C31.8961 72.9788 31.8772 72.974 31.8584 72.967L32.5431 69.5256C32.7828 69.5374 33.0177 69.4784 33.2208 69.3592L33.2196 69.358ZM37.1653 69.358C37.3459 69.4654 37.5573 69.5279 37.7828 69.5279C37.8028 69.5279 37.8229 69.5256 37.843 69.5244L38.5277 72.9658C38.3436 73.0319 38.1795 73.1404 38.0484 73.2809L36.2822 72.0594C36.3625 71.8965 36.4085 71.7148 36.4085 71.5212C36.4085 71.2026 36.2845 70.9135 36.085 70.6963L37.1653 69.358ZM43.745 66.6342L45.4557 66.8171C45.4675 67.1121 45.5844 67.4036 45.8099 67.629C45.9468 67.7659 46.1086 67.8615 46.2798 67.9206L45.8949 70.0319C45.7261 70.026 45.5537 70.0543 45.3884 70.1227C45.3695 70.131 45.3518 70.1404 45.3341 70.1487L43.3837 67.2313C43.562 67.0708 43.6859 66.8619 43.745 66.6342ZM49.8772 70.2254C49.739 70.4107 49.6599 70.6243 49.641 70.8438L47.0448 70.9984C47.0295 70.9253 47.0082 70.8521 46.9787 70.7813C46.8394 70.4438 46.5655 70.2042 46.2444 70.0956L46.6292 67.9843C46.8984 67.9937 47.1688 67.9135 47.3955 67.7447L49.8772 70.2254ZM49.9929 38.781C49.8193 38.9545 49.7095 39.1681 49.6623 39.3923L47.0661 39.2377C47.0425 38.9627 46.9256 38.6937 46.7142 38.4836C46.7001 38.4694 46.6847 38.4564 46.6694 38.4435L48.6198 35.5249C48.8476 35.6323 49.1015 35.6653 49.3459 35.6229L50.3081 38.5532C50.1936 38.6099 50.0861 38.6854 49.9917 38.781H49.9929ZM46.3211 72.371C46.34 72.3627 46.3577 72.3533 46.3754 72.345L48.3258 75.2636C48.1393 75.4335 48.0118 75.6554 47.9574 75.8961L44.8807 75.6636C44.8713 75.5362 44.8429 75.4087 44.7922 75.2848C44.6977 75.057 44.5419 74.8741 44.353 74.7455L45.4887 72.4076C45.752 72.4913 46.0448 72.4854 46.3199 72.3722L46.3211 72.371ZM42.5443 76.2148C42.5962 76.3387 42.6659 76.4496 42.7497 76.5464L40.7414 78.882C40.5537 78.7639 40.3329 78.6943 40.0944 78.6943C40.0732 78.6943 40.0519 78.6967 40.0295 78.6979L39.3447 75.2565C39.6352 75.1526 39.8737 74.9437 40.0153 74.6735L42.4722 75.5244C42.4297 75.7498 42.4486 75.9882 42.5431 76.216L42.5443 76.2148ZM37.9197 74.7773L35.9752 76.5027C35.8064 76.3611 35.5986 76.2655 35.3707 76.2325V72.7238C35.6494 72.6825 35.8973 72.548 36.0815 72.3521L37.8477 73.5736C37.7674 73.7364 37.7214 73.9182 37.7214 74.1117C37.7214 74.3572 37.7946 74.5861 37.9209 74.7773H37.9197ZM35.0154 72.7238V76.2325C34.7875 76.2655 34.5797 76.3611 34.4109 76.5027L32.4664 74.7773C32.5077 74.7148 32.5431 74.6487 32.5726 74.5767C32.712 74.2392 32.6883 73.8769 32.5384 73.5736L34.3046 72.3521C34.4888 72.548 34.7367 72.6837 35.0154 72.7238ZM30.9835 75.2352C31.0024 75.2435 31.0213 75.2482 31.0402 75.2553L30.3554 78.6979C30.1039 78.6861 29.8572 78.7533 29.6482 78.8855L27.6376 76.5464C27.7214 76.4496 27.7911 76.3399 27.843 76.2148C27.9375 75.987 27.9564 75.7486 27.9139 75.5232L30.3708 74.6723C30.4983 74.9178 30.7084 75.1208 30.9847 75.2352H30.9835ZM25.5939 75.2836C25.542 75.4075 25.5136 75.5362 25.5054 75.6625L22.4334 75.895C22.3838 75.679 22.2764 75.4736 22.1087 75.3049C22.0934 75.2895 22.0768 75.2765 22.0603 75.2612L24.0107 72.3438C24.2893 72.476 24.6069 72.4961 24.8974 72.4052L26.0331 74.7431C25.8442 74.8717 25.6884 75.0547 25.5939 75.2824V75.2836ZM23.6707 70.3859C23.4971 70.5594 23.3873 70.7742 23.3401 70.9973L20.7451 70.8426C20.7262 70.6231 20.6471 70.4083 20.5089 70.2242L22.9906 67.7435C23.2173 67.9123 23.4877 67.9914 23.7569 67.9831L24.1418 70.0944C23.9706 70.1522 23.8088 70.249 23.6719 70.3859H23.6707ZM22.7392 67.4933L20.2575 69.974C20.0721 69.836 19.8584 69.7569 19.6388 69.738L19.4842 67.1428C19.5574 67.1275 19.6294 67.1062 19.7014 67.0767C20.0391 66.9375 20.2787 66.6637 20.3873 66.3427L22.4995 66.7274C22.49 66.9965 22.5703 67.2667 22.7392 67.4933ZM18.1111 66.4182C18.1194 66.4371 18.1288 66.4548 18.1371 66.4725L15.2174 68.4221C15.0473 68.2357 14.8254 68.1082 14.5845 68.0539L14.8171 64.9784C14.9446 64.9689 15.0721 64.9406 15.1973 64.8899C15.4252 64.7955 15.6081 64.6397 15.7368 64.4509L18.0757 65.5862C17.9918 65.8494 17.9977 66.142 18.1111 66.417V66.4182ZM14.2658 62.6428C14.1418 62.6948 14.0308 62.7644 13.934 62.8482L11.5975 60.8407C11.7156 60.6531 11.7853 60.4324 11.7853 60.194C11.7853 60.1727 11.7829 60.1515 11.7817 60.1291L15.2244 59.4446C15.3283 59.7349 15.5373 59.9733 15.8077 60.1149L14.9564 62.5708C14.7309 62.5284 14.4925 62.5472 14.2646 62.6417L14.2658 62.6428ZM16.3697 57.8207C16.1241 57.8207 15.895 57.8938 15.7038 58.0201L13.9777 56.0764C14.1194 55.9076 14.215 55.6999 14.2481 55.4721H17.7581C17.7994 55.7506 17.934 55.9985 18.13 56.1826L16.908 57.9481C16.7451 57.8679 16.5633 57.8218 16.3697 57.8218V57.8207ZM17.7569 55.1169H14.2469C14.2138 54.8891 14.1182 54.6814 13.9765 54.5126L15.7026 52.5689C15.7652 52.6102 15.8313 52.6456 15.9033 52.6751C16.241 52.8144 16.6034 52.7908 16.9068 52.6409L18.1288 54.4064C17.9328 54.5905 17.797 54.8384 17.7569 55.1169ZM15.2445 51.0866C15.2362 51.1055 15.2315 51.1244 15.2244 51.1433L11.7805 50.4588C11.7923 50.2074 11.7251 49.9607 11.5928 49.7518L13.9328 47.742C14.0296 47.8258 14.1394 47.8954 14.2646 47.9474C14.4925 48.0418 14.7309 48.0607 14.9564 48.0182L15.8077 50.4741C15.5621 50.6016 15.359 50.8116 15.2445 51.0878V51.0866ZM15.1961 45.6991C15.0721 45.6472 14.9435 45.6189 14.8171 45.6106L14.5845 42.5398C14.8006 42.4903 15.006 42.3829 15.1749 42.2153C15.1902 42.1999 15.2032 42.1834 15.2185 42.1669L18.1371 44.1165C18.0048 44.3951 17.9848 44.7125 18.0757 45.0028L15.7368 46.1382C15.6081 45.9493 15.4252 45.7936 15.1973 45.6991H15.1961ZM20.0957 43.7766C19.9222 43.6032 19.7085 43.4934 19.4842 43.4462L19.6388 40.851C19.8584 40.8321 20.0733 40.7531 20.2575 40.615L22.7392 43.0957C22.5703 43.3223 22.4912 43.5925 22.4995 43.8616L20.3873 44.2464C20.3295 44.0752 20.2327 43.9135 20.0957 43.7766ZM22.9895 42.8455L20.5078 40.3648C20.6459 40.1795 20.725 39.9659 20.7439 39.7464L23.3401 39.5929C23.3554 39.6661 23.3767 39.7381 23.4062 39.8101C23.5455 40.1476 23.8194 40.3872 24.1406 40.4958L23.7557 42.6071C23.4865 42.5977 23.2161 42.6779 22.9895 42.8467V42.8455ZM24.065 38.2192C24.0461 38.2275 24.0284 38.2369 24.0107 38.2452L22.0603 35.3266C22.2468 35.1567 22.3743 34.9348 22.4287 34.6941L25.5054 34.9266C25.5148 35.054 25.5432 35.1815 25.5939 35.3066C25.6884 35.5343 25.8442 35.7173 26.0331 35.8459L24.8974 38.1838C24.6341 38.1 24.3413 38.1059 24.0662 38.2192H24.065ZM27.8419 34.3754C27.7899 34.2515 27.7202 34.1406 27.6364 34.0438L29.6447 31.7082C29.8324 31.8263 30.0532 31.8959 30.2917 31.8959C30.3129 31.8959 30.3342 31.8935 30.3566 31.8923L31.0414 35.3337C30.7509 35.4376 30.5124 35.6465 30.3708 35.9167L27.9139 35.0658C27.9564 34.8404 27.9375 34.602 27.843 34.3742L27.8419 34.3754ZM32.4664 35.8129L34.4109 34.0875C34.5797 34.2291 34.7875 34.3247 35.0154 34.3577V37.8664C34.7367 37.9077 34.4888 38.0422 34.3046 38.2381L32.5384 37.0166C32.6187 36.8538 32.6647 36.672 32.6647 36.4785C32.6647 36.233 32.5915 36.0041 32.4652 35.8129H32.4664ZM35.3707 37.8664V34.3577C35.5986 34.3247 35.8064 34.2291 35.9752 34.0875L37.9197 35.8129C37.8784 35.8754 37.843 35.9415 37.8135 36.0135C37.6741 36.351 37.6978 36.7133 37.8477 37.0166L36.0815 38.2381C35.8973 38.0422 35.6494 37.9065 35.3707 37.8664ZM39.4026 35.355C39.3837 35.3467 39.3648 35.342 39.3459 35.3349L40.0307 31.8923C40.2822 31.9041 40.5289 31.8369 40.7379 31.7047L42.7485 34.0438C42.6647 34.1406 42.595 34.2503 42.5431 34.3754C42.4486 34.6032 42.4297 34.8416 42.4722 35.067L40.0153 35.9179C39.8878 35.6724 39.6777 35.4694 39.4014 35.355H39.4026ZM44.7922 35.3066C44.8441 35.1827 44.8725 35.054 44.8807 34.9266L47.9527 34.6941C48.0023 34.91 48.1097 35.1154 48.2774 35.2842C48.2927 35.2995 48.3093 35.3125 48.3258 35.3278L46.3754 38.2452C46.0968 38.113 45.7792 38.093 45.4887 38.1838L44.353 35.8459C44.5419 35.7173 44.6977 35.5343 44.7922 35.3066ZM48.2774 33.5635C48.0613 33.7794 47.9445 34.058 47.9244 34.34L44.8536 34.5725C44.7815 34.255 44.5832 33.9718 44.2916 33.7971L45.6351 30.5564C45.9055 30.6248 46.183 30.5965 46.4273 30.4879L48.3447 33.5033C48.3223 33.5222 48.2998 33.5422 48.2786 33.5635H48.2774ZM45.3069 30.4207L43.9634 33.6614C43.634 33.5776 43.2928 33.639 43.0177 33.8125L41.0059 31.4722C41.0885 31.3766 41.1594 31.2657 41.2101 31.1418C41.2845 30.9612 41.3117 30.7724 41.2987 30.5906L44.7945 29.8117C44.8902 30.0607 45.0661 30.2767 45.3057 30.4195L45.3069 30.4207ZM39.621 31.8015C39.6411 31.8097 39.6611 31.8156 39.6824 31.8227L38.9976 35.2641C38.6895 35.2487 38.3884 35.3514 38.1547 35.5461L36.2102 33.8207C36.3353 33.6296 36.4097 33.4006 36.4097 33.1551C36.4097 33.0206 36.3873 32.8919 36.3471 32.7704L39.0968 31.3802C39.2243 31.5607 39.4026 31.7094 39.6222 31.8003L39.621 31.8015ZM34.1748 33.8219L32.2303 35.5473C32.0189 35.3691 31.7462 35.2617 31.4487 35.2617C31.4286 35.2617 31.4085 35.2641 31.3885 35.2653L30.7037 31.8227C30.941 31.7377 31.1429 31.5808 31.2858 31.379L34.039 32.7716C33.9988 32.8931 33.9764 33.0218 33.9764 33.1563C33.9764 33.4018 34.0496 33.6307 34.1759 33.8219H34.1748ZM29.3743 31.4781L27.3672 33.8137C27.0921 33.6402 26.7509 33.58 26.4215 33.6626L25.078 30.4219C25.3177 30.2791 25.4936 30.0619 25.5892 29.8141L29.078 30.5906C29.0756 30.6201 29.0732 30.6496 29.0732 30.6803C29.0732 30.986 29.1866 31.2657 29.3731 31.4793L29.3743 31.4781ZM24.7498 30.5576L26.0933 33.7983C25.8017 33.973 25.6034 34.2562 25.5314 34.5737L22.4534 34.3412C22.444 34.2149 22.4157 34.0875 22.3649 33.9635C22.2905 33.783 22.176 33.6307 22.0379 33.5115L23.9588 30.4903C24.202 30.5989 24.4794 30.6272 24.751 30.5588L24.7498 30.5576ZM21.7061 35.5532C21.7262 35.545 21.7451 35.5343 21.764 35.5261L23.7144 38.4435C23.4853 38.65 23.3448 38.9356 23.3188 39.2389L20.7226 39.3935C20.6766 39.1693 20.5668 38.9557 20.3921 38.7822C20.2964 38.6866 20.189 38.6122 20.0757 38.5544L21.0367 35.6288C21.2551 35.6665 21.4865 35.6453 21.7061 35.5544V35.5532ZM18.6719 40.5017C18.8454 40.6752 19.0591 40.7849 19.2835 40.8321L19.1288 43.4273C18.8537 43.4509 18.5845 43.5678 18.3744 43.779C18.3602 43.7932 18.3472 43.8085 18.3342 43.8239L15.4145 41.8742C15.522 41.6464 15.555 41.3927 15.5125 41.1496L18.444 40.1878C18.5007 40.3022 18.5763 40.4096 18.6719 40.504V40.5017ZM13.4535 42.2153C13.6696 42.4313 13.9482 42.5481 14.2304 42.5682L14.4629 45.6378C14.1453 45.7098 13.862 45.908 13.6873 46.1995L10.4452 44.8565C10.5137 44.5862 10.4854 44.3089 10.3768 44.0646L13.3933 42.148C13.4122 42.1704 13.4322 42.1929 13.4535 42.2141V42.2153ZM10.3095 45.1846L13.5515 46.5276C13.4677 46.8569 13.5291 47.198 13.7026 47.4729L11.3614 49.4839C11.2658 49.4013 11.1548 49.3305 11.0308 49.2798C10.8502 49.2054 10.6613 49.1783 10.4795 49.1913L9.70027 45.6968C9.94938 45.6012 10.1654 45.4253 10.3083 45.1858L10.3095 45.1846ZM11.6908 50.8683C11.6991 50.8482 11.705 50.8282 11.7121 50.8069L15.1548 51.4914C15.1394 51.7994 15.2422 52.1004 15.437 52.3341L13.7109 54.2778C13.5196 54.1527 13.2906 54.0783 13.045 54.0783C12.9104 54.0783 12.7817 54.1008 12.6601 54.1409L11.2693 51.3923C11.45 51.2648 11.5987 51.0866 11.6896 50.8671L11.6908 50.8683ZM13.045 56.5119C13.2906 56.5119 13.5196 56.4387 13.7109 56.3124L15.437 58.2561C15.2587 58.4674 15.1512 58.74 15.1512 59.0374C15.1512 59.0575 15.1536 59.0775 15.1548 59.0976L11.7109 59.7821C11.6259 59.5449 11.4689 59.3431 11.267 59.2003L12.6601 56.4481C12.7817 56.4883 12.9104 56.5107 13.045 56.5107V56.5119ZM10.568 61.4119C10.8738 61.4119 11.1536 61.2986 11.3673 61.111L13.7038 63.1173C13.5302 63.3922 13.47 63.7333 13.5527 64.0626L10.3107 65.4056C10.1678 65.166 9.95056 64.9902 9.70263 64.8946L10.4795 61.4072C10.509 61.4096 10.5385 61.4119 10.5692 61.4119H10.568ZM10.4452 65.7337L13.6873 64.3907C13.862 64.6822 14.1453 64.8804 14.4629 64.9524L14.2304 68.0291C14.104 68.0386 13.9765 68.0669 13.8526 68.1176C13.6719 68.192 13.5196 68.3065 13.4004 68.4445L10.378 66.5244C10.4866 66.2813 10.5149 66.004 10.4464 65.7325L10.4452 65.7337ZM15.4429 68.7762C15.4346 68.7561 15.424 68.7372 15.4157 68.7183L18.3342 66.7687C18.5408 66.9965 18.8265 67.1381 19.13 67.1641L19.2846 69.7593C19.0603 69.8053 18.8466 69.915 18.6731 70.0897C18.5774 70.1853 18.5031 70.2927 18.4452 70.406L15.5184 69.4453C15.5562 69.227 15.5349 68.9957 15.444 68.7762H15.4429ZM20.3932 71.8092C20.5668 71.6357 20.6766 71.4221 20.7238 71.1979L23.32 71.3525C23.3436 71.6275 23.4605 71.8965 23.6719 72.1066C23.686 72.1208 23.7014 72.1338 23.7167 72.1467L21.7663 75.0653C21.5385 74.9579 21.2846 74.9249 21.0402 74.9673L20.078 72.037C20.1925 71.9803 20.3 71.9048 20.3944 71.8092H20.3932ZM22.1075 77.0256C22.3236 76.8096 22.4405 76.5311 22.4605 76.249L25.5314 76.0165C25.6034 76.334 25.8017 76.6172 26.0933 76.7919L24.7498 80.0326C24.4794 79.9642 24.202 79.9925 23.9576 80.1011L22.0402 77.0857C22.0627 77.0669 22.0851 77.0468 22.1063 77.0256H22.1075ZM25.078 80.1683L26.4215 76.9276C26.7509 77.0114 27.0921 76.95 27.3672 76.7765L29.379 79.1168C29.2964 79.2124 29.2255 79.3233 29.1748 79.4461C29.1004 79.6266 29.0732 79.8155 29.0862 79.9972L25.5904 80.7761C25.4948 80.5271 25.3188 80.3111 25.0792 80.1683H25.078ZM30.7639 78.7875C30.7438 78.7793 30.7238 78.7734 30.7025 78.7663L31.3873 75.3249C31.6954 75.3403 31.9965 75.2376 32.2303 75.0429L34.1748 76.7683C34.0496 76.9595 33.9752 77.1884 33.9752 77.4339C33.9752 77.5684 33.9977 77.6971 34.0378 77.8186L31.2881 79.2089C31.1606 79.0283 30.9823 78.8796 30.7627 78.7887L30.7639 78.7875ZM36.2102 76.7671L38.1547 75.0417C38.366 75.2199 38.6387 75.3273 38.9362 75.3273C38.9563 75.3273 38.9764 75.3249 38.9965 75.3237L39.6812 78.7663C39.4439 78.8513 39.242 79.0082 39.0992 79.21L36.3459 77.8174C36.3861 77.6959 36.4085 77.5673 36.4085 77.4327C36.4085 77.1872 36.3353 76.9583 36.209 76.7671H36.2102ZM41.0106 79.1109L43.0177 76.7754C43.2928 76.9488 43.634 77.009 43.9634 76.9264L45.3069 80.1672C45.0673 80.31 44.8913 80.5271 44.7957 80.775L41.3069 79.9984C41.3093 79.9689 41.3117 79.9394 41.3117 79.9087C41.3117 79.603 41.1983 79.3233 41.0106 79.1097V79.1109ZM45.6351 80.0314L44.2916 76.7907C44.5832 76.616 44.7815 76.3328 44.8536 76.0153L47.9315 76.2478C47.9409 76.3741 47.9693 76.5016 48.02 76.6255C48.0944 76.806 48.2089 76.9583 48.3471 77.0787L46.4262 80.0999C46.183 79.9913 45.9055 79.963 45.634 80.0314H45.6351ZM48.6788 75.0358C48.6587 75.044 48.6399 75.0547 48.621 75.0629L46.6706 72.1456C46.8996 71.939 47.0401 71.6534 47.0661 71.3501L49.6623 71.1955C49.7083 71.4198 49.8181 71.6334 49.9929 71.8068C50.0885 71.9024 50.1959 71.9768 50.3093 72.0346L49.3482 74.9603C49.1298 74.9225 48.8984 74.9437 48.6788 75.0346V75.0358ZM44.7296 71.7101C44.824 71.9378 44.9799 72.1208 45.1688 72.2494L44.033 74.5873C43.8229 74.5212 43.5938 74.5118 43.3707 74.5684L42.0271 71.3277C42.2692 71.1837 42.4463 70.9642 42.5407 70.7117L44.6399 71.1648C44.6281 71.3454 44.6552 71.5319 44.7284 71.7101H44.7296ZM41.7001 71.4634L43.0437 74.7042C42.8453 74.8222 42.6907 74.9898 42.5891 75.1857L40.1322 74.3348C40.1464 74.2616 40.1535 74.1861 40.1535 74.1082C40.1535 73.7435 39.9917 73.4166 39.7379 73.1935L40.902 71.3902C41.1476 71.5012 41.4274 71.5319 41.7013 71.4622L41.7001 71.4634ZM30.3235 73.6432C30.2291 73.871 30.2102 74.1094 30.2527 74.3348L27.7958 75.1857C27.6943 74.9898 27.5384 74.8222 27.3413 74.7042L28.6848 71.4634C28.9587 71.5319 29.2385 71.5024 29.4841 71.3914L30.6482 73.1947C30.5113 73.3139 30.3991 73.465 30.3247 73.6432H30.3235ZM28.3554 71.3277L27.0119 74.5684C26.7887 74.5118 26.5597 74.5212 26.3495 74.5873L25.2138 72.2494C25.2752 72.2069 25.3342 72.1597 25.3897 72.1054C25.6482 71.847 25.7639 71.5024 25.7427 71.1648L27.8419 70.7117C27.9363 70.963 28.1134 71.1825 28.3554 71.3277ZM18.7687 64.8285C18.5408 64.9229 18.3578 65.0787 18.2291 65.2675L15.8903 64.1322C15.9564 63.9221 15.9659 63.6932 15.9092 63.4701L19.1512 62.1271C19.2953 62.369 19.5149 62.5461 19.7675 62.6405L19.3141 64.7388C19.1335 64.727 18.947 64.7542 18.7687 64.8273V64.8285ZM19.0154 61.8002L15.7734 63.1432C15.6554 62.945 15.4877 62.7904 15.2917 62.6889L16.143 60.2329C16.2162 60.2471 16.2917 60.2542 16.3697 60.2542C16.7345 60.2542 17.0615 60.0925 17.2846 59.8388L19.0886 61.0024C18.9777 61.2479 18.947 61.5276 19.0166 61.8014L19.0154 61.8002ZM16.8348 50.4281C16.607 50.3337 16.3685 50.3148 16.143 50.3573L15.2917 47.9013C15.4877 47.7998 15.6554 47.6441 15.7734 47.447L19.0154 48.79C18.947 49.0638 18.9765 49.3435 19.0875 49.589L17.2835 50.7526C17.1642 50.6157 17.0131 50.5036 16.8348 50.4293V50.4281ZM19.1512 48.4607L15.9092 47.1177C15.9659 46.8947 15.9564 46.6657 15.8903 46.4556L18.2291 45.3203C18.2717 45.3817 18.3189 45.4407 18.3732 45.4962C18.6317 45.7546 18.9765 45.8703 19.3141 45.849L19.7675 47.9474C19.516 48.0418 19.2964 48.2188 19.1512 48.4607ZM25.653 38.8778C25.5585 38.65 25.4027 38.4671 25.2138 38.3384L26.3495 36.0005C26.5597 36.0666 26.7887 36.076 27.0119 36.0194L28.3554 39.2601C28.1134 39.4041 27.9363 39.6236 27.8419 39.8762L25.7427 39.423C25.7545 39.2424 25.7273 39.056 25.6541 38.8778H25.653ZM28.6825 39.1244L27.3389 35.8837C27.5372 35.7657 27.6919 35.5981 27.7934 35.4022L30.2503 36.2531C30.2362 36.3262 30.2291 36.4018 30.2291 36.4797C30.2291 36.8443 30.3908 37.1712 30.6447 37.3943L29.4806 39.1976C29.235 39.0867 28.9552 39.056 28.6813 39.1256L28.6825 39.1244ZM40.059 36.9447C40.1535 36.7169 40.1724 36.4785 40.1299 36.2531L42.5868 35.4022C42.6883 35.5981 42.8441 35.7657 43.0413 35.8837L41.6977 39.1244C41.4238 39.056 41.144 39.0855 40.8985 39.1964L39.7343 37.3931C39.8713 37.2739 39.9835 37.1229 40.0578 36.9447H40.059ZM42.0271 39.2601L43.3707 36.0194C43.5938 36.076 43.8229 36.0666 44.033 36.0005L45.1688 38.3384C45.1074 38.3809 45.0484 38.4281 44.9929 38.4824C44.7343 38.7409 44.6186 39.0855 44.6399 39.423L42.5407 39.8762C42.4463 39.6248 42.2692 39.4053 42.0271 39.2601ZM38.961 30.2118C38.8442 30.495 38.8418 30.796 38.9327 31.065L36.1842 32.4541C35.9965 32.1886 35.7049 32.0021 35.3684 31.9525V28.4439C35.6446 28.4038 35.8902 28.2704 36.0732 28.078L38.9988 30.1304C38.9858 30.1563 38.9717 30.1835 38.961 30.2106V30.2118ZM35.013 28.4451V31.9537C34.6765 32.0033 34.3849 32.1886 34.1972 32.4553L31.4428 31.0627C31.4829 30.9423 31.5054 30.8137 31.5054 30.6803C31.5054 30.4844 31.4581 30.3003 31.3755 30.1374L34.307 28.0804C34.49 28.2739 34.7356 28.4061 35.0118 28.4463L35.013 28.4451ZM20.1134 34.8935C20.2303 35.1768 20.4428 35.3904 20.6967 35.5166L19.7356 38.4423C19.4145 38.3868 19.0768 38.4612 18.8041 38.6653L16.3224 36.1846C16.4889 35.9604 16.5692 35.6937 16.5621 35.427L20.0827 34.8097C20.0922 34.838 20.1016 34.8664 20.1123 34.8935H20.1134ZM16.0721 36.4348L18.5538 38.9155C18.3508 39.1882 18.2764 39.5257 18.3307 39.8467L15.398 40.8085C15.3413 40.6952 15.2658 40.5878 15.1713 40.4934C15.0332 40.3553 14.8691 40.2586 14.6955 40.2007L15.3142 36.6744C15.581 36.6815 15.8478 36.6012 16.0721 36.4348ZM13.2008 41.8483L10.1843 43.7648C10.0639 43.6256 9.9116 43.5111 9.72979 43.4356C9.6436 43.4002 9.55505 43.3754 9.46532 43.3612L9.54797 39.2719C9.80653 39.2389 10.0568 39.1244 10.2552 38.9262C10.2693 38.912 10.2823 38.8966 10.2953 38.8813L13.2126 40.8298C13.0592 41.1508 13.0544 41.5237 13.1985 41.8483H13.2008ZM10.0981 51.5256C10.3815 51.6425 10.6826 51.6448 10.9517 51.554L12.3413 54.3014C12.0757 54.489 11.8892 54.7805 11.8396 55.1169H8.32956C8.28942 54.8407 8.156 54.5953 7.96356 54.4123L10.0167 51.4879C10.0427 51.5009 10.0698 51.515 10.097 51.5256H10.0981ZM8.33074 55.4721H11.8408C11.8903 55.8085 12.0757 56.1 12.3425 56.2876L10.9494 59.041C10.829 59.0008 10.7003 58.9784 10.5669 58.9784C10.3709 58.9784 10.1867 59.0256 10.0238 59.1082L7.96592 56.1779C8.15955 55.9949 8.29178 55.7495 8.33192 55.4733L8.33074 55.4721ZM9.54915 71.3171L9.46651 67.2278C9.55505 67.2125 9.6436 67.1888 9.73097 67.1523C9.91278 67.0767 10.0651 66.9622 10.1855 66.823L13.2079 68.7431C13.0757 69.0382 13.0592 69.384 13.1926 69.7061C13.1997 69.7239 13.2091 69.7404 13.2174 69.7569L10.2989 71.7065C10.1029 71.4906 9.83604 71.3525 9.55033 71.3159L9.54915 71.3171ZM14.7817 70.3659C15.0651 70.249 15.2788 70.0366 15.4051 69.7829L18.3319 70.7435C18.2764 71.0645 18.3508 71.4021 18.555 71.6747L16.0733 74.1554C15.849 73.989 15.5822 73.9087 15.3154 73.9158L14.6979 70.3965C14.7262 70.3871 14.7546 70.3777 14.7817 70.367V70.3659ZM16.3236 74.4056L18.8053 71.9249C19.078 72.1279 19.4157 72.2022 19.7368 72.1479L20.699 75.0795C20.5857 75.1361 20.4783 75.2116 20.3838 75.306C20.2457 75.4441 20.1489 75.6082 20.091 75.7817L16.5633 75.1632C16.5704 74.8965 16.4901 74.6298 16.3236 74.4056ZM31.4203 80.3772C31.5372 80.094 31.5396 79.7931 31.4487 79.524L34.1972 78.1349C34.3849 78.4005 34.6765 78.5869 35.013 78.6365V82.1451C34.7367 82.1853 34.4912 82.3186 34.3082 82.511L31.3826 80.4587C31.3955 80.4327 31.4097 80.4056 31.4203 80.3784V80.3772ZM35.3684 82.144V78.6353C35.7049 78.5857 35.9965 78.4005 36.1842 78.1337L38.9386 79.5263C38.8985 79.6467 38.876 79.7753 38.876 79.9087C38.876 80.1046 38.9233 80.2887 39.0059 80.4528L36.0744 82.5098C35.8914 82.3163 35.6458 82.1841 35.3696 82.144H35.3684ZM50.2679 75.6955C50.1511 75.4123 49.9385 75.1987 49.6847 75.0724L50.6457 72.1467C50.9669 72.2022 51.3045 72.1279 51.5773 71.9237L54.0589 74.4044C53.8925 74.6286 53.8122 74.8953 53.8193 75.1621L50.2986 75.7793C50.2892 75.751 50.2797 75.7226 50.2691 75.6955H50.2679ZM43.2125 63.5634L45.6942 66.0441C45.5985 66.1727 45.5312 66.3155 45.4935 66.4642L43.7827 66.2813C43.7768 66.142 43.7485 66.0004 43.6918 65.8635C43.5183 65.4457 43.1381 65.1755 42.719 65.1224L42.6907 63.7852C42.876 63.7546 43.0543 63.679 43.2125 63.5622V63.5634ZM43.033 67.4532C43.0519 67.4449 43.0696 67.4355 43.0873 67.4272L45.0377 70.3446C44.8925 70.4756 44.7827 70.6397 44.7154 70.819L42.6163 70.3659C42.6281 70.1853 42.6009 69.9988 42.5277 69.8206C42.4061 69.5268 42.1806 69.3061 41.9126 69.1833L42.3979 67.5335C42.6056 67.563 42.8241 67.5405 43.033 67.4544V67.4532ZM40.2786 70.7518C40.353 70.93 40.4652 71.081 40.6021 71.2002L39.438 73.0035C39.2845 72.9339 39.1145 72.8938 38.9351 72.8938C38.915 72.8938 38.8949 72.8961 38.8748 72.8973L38.1901 69.4559C38.4156 69.3757 38.6104 69.2305 38.7521 69.0429L40.2621 69.8666C40.1606 70.144 40.157 70.4579 40.2786 70.7518ZM36.8878 69.1349L35.8076 70.4733C35.6753 70.3954 35.5266 70.3411 35.3684 70.3187V66.81C35.5632 66.7817 35.7415 66.7073 35.8949 66.5988L36.8205 67.5641C36.66 67.7707 36.5644 68.0279 36.5644 68.31C36.5644 68.6287 36.6883 68.9178 36.8878 69.1338V69.1349ZM35.013 66.81V70.3187C34.8548 70.3423 34.706 70.3954 34.5738 70.4733L33.4935 69.1349C33.588 69.0323 33.6683 68.9131 33.7249 68.7762C33.8985 68.3584 33.8206 67.8993 33.5608 67.5653L34.4864 66.5999C34.6399 66.7085 34.8182 66.7829 35.013 66.8112V66.81ZM32.1346 69.4335C32.1535 69.4418 32.1724 69.4465 32.1913 69.4536L31.5065 72.895C31.3105 72.8855 31.1181 72.9233 30.9434 73.0024L29.7793 71.1991C29.9162 71.0799 30.0284 70.9288 30.1028 70.7506C30.2244 70.4567 30.2208 70.1416 30.1193 69.8655L31.6293 69.0417C31.7556 69.2093 31.9268 69.3486 32.1346 69.4347V69.4335ZM27.8537 69.8194C27.7793 69.9988 27.7521 70.1841 27.7651 70.3647L25.6671 70.8179C25.6081 70.6597 25.516 70.511 25.3885 70.3847C25.3743 70.3706 25.359 70.3576 25.3436 70.3446L27.294 67.4272C27.5113 67.5299 27.7509 67.5653 27.9835 67.5323L28.4688 69.1822C28.2008 69.3061 27.9764 69.5256 27.8537 69.8194ZM26.954 65.4682C26.7285 65.6936 26.6116 65.9851 26.5998 66.2801L24.8891 66.463C24.8501 66.3143 24.784 66.1715 24.6884 66.0429L27.1701 63.5622C27.3271 63.679 27.5065 63.7546 27.6919 63.7852L27.6636 65.1224C27.405 65.1542 27.1535 65.2687 26.9552 65.4682H26.954ZM26.9186 63.3108L24.4369 65.7915C24.3082 65.6959 24.1654 65.6287 24.0166 65.5909L24.1996 63.8808C24.3389 63.8749 24.4806 63.8466 24.6175 63.79C25.0355 63.6165 25.3059 63.2365 25.359 62.8175L26.6966 62.7892C26.7273 62.9745 26.8029 63.1538 26.9198 63.3108H26.9186ZM23.0272 63.1314C23.0355 63.1503 23.0449 63.168 23.0532 63.1857L20.1347 65.1354C20.0036 64.9902 19.8395 64.8804 19.6601 64.8132L20.1134 62.7148C20.2941 62.7266 20.4806 62.6995 20.6589 62.6263C20.9529 62.5048 21.1736 62.2793 21.2964 62.0114L22.947 62.4965C22.9174 62.7042 22.9399 62.9225 23.0261 63.1314H23.0272ZM19.7274 60.3781C19.5491 60.4524 19.398 60.5646 19.2787 60.7015L17.4747 59.5378C17.5444 59.3844 17.5845 59.2144 17.5845 59.0351C17.5845 59.015 17.5822 58.9949 17.581 58.9749L21.0237 58.2904C21.104 58.5158 21.2492 58.7105 21.4369 58.8521L20.6128 60.3616C20.3354 60.2589 20.0213 60.2565 19.7274 60.3781ZM22.1689 56.6653C21.8501 56.6653 21.5609 56.7892 21.3448 56.9886L20.006 55.9088C20.0839 55.7766 20.1382 55.6279 20.1607 55.4698H23.6707C23.699 55.6645 23.7734 55.8427 23.882 55.9961L22.9163 56.9214C22.7096 56.7609 22.4523 56.6653 22.1701 56.6653H22.1689ZM23.6695 55.1157H20.1595C20.1359 54.9576 20.0827 54.8089 20.0048 54.6767L21.3437 53.5968C21.4464 53.6913 21.5656 53.7715 21.7026 53.8282C22.1205 54.0016 22.5798 53.9237 22.9139 53.6641L23.8797 54.5894C23.771 54.7428 23.6967 54.921 23.6683 55.1157H23.6695ZM21.045 52.2385C21.0367 52.2573 21.032 52.2762 21.0249 52.2951L17.5822 51.6106C17.5916 51.4147 17.5538 51.2223 17.4747 51.0477L19.2787 49.884C19.398 50.0209 19.5491 50.133 19.7274 50.2074C20.0213 50.3289 20.3366 50.3254 20.6128 50.2239L21.4369 51.7334C21.2693 51.8596 21.13 52.0308 21.0438 52.2385H21.045ZM20.6589 47.9592C20.4806 47.8848 20.2941 47.8577 20.1134 47.8707L19.6601 45.7735C19.8183 45.7145 19.9659 45.6224 20.0934 45.495C20.1075 45.4808 20.1205 45.4655 20.1335 45.4501L23.052 47.3998C22.9493 47.6169 22.9139 47.8565 22.947 48.089L21.2964 48.574C21.1725 48.3061 20.9529 48.0819 20.6589 47.9592ZM25.0119 47.0599C24.7864 46.8345 24.4948 46.7176 24.1996 46.7058L24.0166 44.9958C24.1654 44.9568 24.3082 44.8907 24.4369 44.7951L26.9186 47.2759C26.8017 47.4328 26.7262 47.6122 26.6955 47.7975L25.3578 47.7692C25.3259 47.5107 25.2114 47.2593 25.0119 47.0611V47.0599ZM27.1701 47.0245L24.6884 44.5438C24.784 44.4151 24.8513 44.2723 24.8891 44.1236L26.5998 44.3065C26.6057 44.4458 26.6341 44.5874 26.6907 44.7231C26.8643 45.1409 27.2444 45.4112 27.6636 45.4643L27.6919 46.8014C27.5065 46.8321 27.3271 46.9076 27.1701 47.0245ZM27.3495 43.1346C27.3306 43.1429 27.3129 43.1523 27.2952 43.1606L25.3448 40.2432C25.49 40.1122 25.5998 39.9482 25.6671 39.7688L27.7663 40.222C27.7545 40.4025 27.7816 40.589 27.8548 40.7672C27.9764 41.0611 28.2019 41.2818 28.4699 41.4045L27.9847 43.0544C27.7769 43.0249 27.5585 43.0473 27.3495 43.1335V43.1346ZM30.1039 39.8361C30.0296 39.6579 29.9174 39.5068 29.7804 39.3876L30.9445 37.5843C31.098 37.6539 31.268 37.6941 31.4475 37.6941C31.4676 37.6941 31.4876 37.6917 31.5077 37.6905L32.1925 41.1319C31.967 41.2121 31.7722 41.3573 31.6305 41.5449L30.1205 40.7212C30.2232 40.4439 30.2255 40.1299 30.1039 39.8361ZM33.4947 41.4529L34.575 40.1146C34.7072 40.1925 34.856 40.2468 35.0142 40.2692V43.7778C34.8194 43.8062 34.6411 43.8805 34.4876 43.9891L33.562 43.0237C33.7226 42.8172 33.8182 42.5599 33.8182 42.2778C33.8182 41.9592 33.6942 41.67 33.4947 41.4541V41.4529ZM35.3696 43.7766V40.268C35.5278 40.2444 35.6765 40.1913 35.8088 40.1134L36.889 41.4517C36.7946 41.5544 36.7143 41.6736 36.6576 41.8105C36.4841 42.2283 36.562 42.6874 36.8217 43.0213L35.8961 43.9867C35.7426 43.8781 35.5644 43.8038 35.3696 43.7755V43.7766ZM38.2479 41.1531C38.229 41.1449 38.2102 41.1402 38.1913 41.1331L38.876 37.6917C39.072 37.7011 39.2645 37.6634 39.4392 37.5843L40.6033 39.3876C40.4663 39.5068 40.3542 39.6579 40.2798 39.8361C40.1582 40.1299 40.1617 40.445 40.2633 40.7212L38.7532 41.5449C38.6269 41.3774 38.4557 41.2393 38.2479 41.152V41.1531ZM42.5289 40.7672C42.6033 40.589 42.6304 40.4025 42.6175 40.222L44.7154 39.77C44.7745 39.9281 44.8666 40.0756 44.9941 40.2031C45.0082 40.2173 45.0236 40.2302 45.0389 40.2432L43.0885 43.1606C42.8725 43.0579 42.6316 43.0225 42.399 43.0556L41.9138 41.4057C42.1818 41.2818 42.4061 41.0623 42.5289 40.7684V40.7672ZM43.4285 45.1185C43.654 44.8931 43.7709 44.6016 43.7827 44.3065L45.4935 44.1236C45.5324 44.2723 45.5985 44.4151 45.6942 44.5438L43.2125 47.0245C43.0555 46.9076 42.876 46.8321 42.6907 46.8014L42.719 45.4643C42.9775 45.4324 43.229 45.3179 43.4274 45.1185H43.4285ZM54.1746 34.5973C54.0353 34.7366 53.9385 34.9006 53.8807 35.0753L50.3529 34.4569C50.3624 34.1335 50.2443 33.8078 49.9988 33.5611C49.9858 33.5481 49.9704 33.5363 49.9563 33.5233L51.9067 30.606C52.1711 30.7311 52.4698 30.7558 52.7473 30.6803L54.3895 34.4262C54.3128 34.4746 54.2408 34.53 54.1746 34.5961V34.5973ZM51.2278 29.3066L47.1369 29.224C47.0909 28.8617 46.8819 28.5289 46.5549 28.3341L47.8984 25.0934C48.203 25.1701 48.5159 25.1253 48.7792 24.9813L51.5596 28.6563C51.3777 28.8416 51.2679 29.0694 51.2278 29.3066ZM47.5702 24.9565L46.2266 28.1972C45.8571 28.104 45.4746 28.1913 45.1853 28.4144L42.2337 25.582C42.2857 25.5088 42.3317 25.4286 42.3672 25.3424C42.4286 25.1937 42.4581 25.0391 42.4592 24.8869L47.0259 24.2543C47.1098 24.5423 47.2998 24.7948 47.569 24.9565H47.5702ZM40.778 26.0009C40.7969 26.0092 40.8158 26.0139 40.8347 26.021L40.1499 29.4612C39.7946 29.4423 39.4475 29.5804 39.2031 29.8389L36.2775 27.7865C36.3601 27.6225 36.4073 27.4372 36.4073 27.2413C36.4073 27.1481 36.3955 27.056 36.3755 26.9687L40.1865 25.4805C40.3152 25.7071 40.5171 25.8947 40.7768 26.0021L40.778 26.0009ZM34.1051 27.7865L31.1736 29.8424C30.9516 29.6075 30.6376 29.46 30.2893 29.46C30.2704 29.46 30.2515 29.4624 30.2326 29.4624L29.5479 26.021C29.8229 25.9231 30.052 25.7295 30.1948 25.4793L34.0059 26.9675C33.9859 27.0548 33.974 27.1457 33.974 27.2401C33.974 27.436 34.0213 27.6213 34.1039 27.7854L34.1051 27.7865ZM28.1488 25.582L25.1972 28.4144C24.908 28.1902 24.5255 28.104 24.1559 28.1972L22.8124 24.9565C23.0815 24.796 23.2716 24.5423 23.3555 24.2543L27.9221 24.8869C27.9245 25.1453 28.0083 25.3849 28.1476 25.5808L28.1488 25.582ZM22.4853 25.0922L23.8289 28.333C23.5018 28.5277 23.2929 28.8605 23.2468 29.2228L19.1559 29.3054C19.1406 29.2169 19.117 29.1284 19.0804 29.0411C19.019 28.8924 18.9304 28.7625 18.823 28.654L21.6034 24.9789C21.8667 25.1229 22.1795 25.1677 22.4841 25.091L22.4853 25.0922ZM18.4216 30.6319C18.4405 30.6237 18.4582 30.6142 18.4759 30.606L20.4251 33.5222C20.1607 33.7606 20.0131 34.1028 20.0225 34.458L16.5019 35.0753C16.444 34.9006 16.3472 34.7366 16.2079 34.5973C16.1418 34.5312 16.0686 34.4746 15.993 34.4273L17.6353 30.6815C17.8868 30.7499 18.1619 30.7405 18.4216 30.6331V30.6319ZM14.4877 36.3168C14.627 36.4561 14.7912 36.5528 14.9659 36.6107L14.3472 40.137C14.0237 40.1276 13.6979 40.2456 13.4511 40.4911C13.4381 40.504 13.4263 40.5194 13.4134 40.5335L10.4948 38.5839C10.62 38.3195 10.6448 38.021 10.5692 37.7436L14.3165 36.102C14.3649 36.1787 14.4204 36.2507 14.4865 36.3168H14.4877ZM9.19496 39.2625L9.11232 43.3518C8.74986 43.3978 8.41692 43.6067 8.22212 43.9336L4.98011 42.5906C5.05685 42.2861 5.01198 41.9733 4.86795 41.7102L8.54443 38.9309C8.72861 39.1126 8.95765 39.2224 9.19496 39.2625ZM4.84315 42.9187L8.08517 44.2617C7.9919 44.6311 8.07926 45.0135 8.3024 45.3026L5.46889 48.253C5.39569 48.2011 5.31541 48.1551 5.22922 48.1197C5.08046 48.0583 4.9258 48.0288 4.7735 48.0276L4.14068 43.4627C4.42875 43.3789 4.68141 43.1889 4.84315 42.9198V42.9187ZM5.88801 49.7082C5.89628 49.6893 5.901 49.6704 5.90808 49.6515L9.34962 50.336C9.33073 50.6913 9.47005 51.0382 9.72742 51.2825L7.67431 54.207C7.5102 54.1244 7.32484 54.0772 7.12886 54.0772C7.03559 54.0772 6.9435 54.089 6.85613 54.109L5.36735 50.2994C5.59403 50.1708 5.78175 49.969 5.88919 49.7094L5.88801 49.7082ZM7.12767 56.5095C7.32366 56.5095 7.50902 56.4623 7.67313 56.3797L9.72979 59.31C9.49484 59.5319 9.34726 59.8458 9.34726 60.194C9.34726 60.2129 9.34962 60.2317 9.34962 60.2506L5.9069 60.9351C5.80891 60.6601 5.61529 60.4312 5.36499 60.2884L6.85377 56.4788C6.94113 56.4989 7.03204 56.5107 7.12649 56.5107L7.12767 56.5095ZM5.46889 62.3325L8.3024 65.2829C8.07808 65.572 7.9919 65.9544 8.08517 66.3238L4.84315 67.6668C4.68259 67.3977 4.42875 67.2077 4.14068 67.1239L4.7735 62.559C5.03205 62.5567 5.27172 62.4729 5.46771 62.3336L5.46889 62.3325ZM4.97893 67.9937L8.22094 66.6507C8.41574 66.9776 8.74868 67.1865 9.11114 67.2325L9.19378 71.3218C9.10523 71.3371 9.01668 71.3607 8.92932 71.3973C8.78056 71.4587 8.65069 71.5472 8.54207 71.6546L4.86558 68.8753C5.00962 68.6121 5.05449 68.2994 4.97775 67.9949L4.97893 67.9937ZM10.5208 72.0559C10.5125 72.037 10.5031 72.0193 10.4948 72.0016L13.4122 70.0531C13.6507 70.3175 13.993 70.465 14.3484 70.4556L14.9659 73.9748C14.7912 74.0326 14.627 74.1294 14.4877 74.2687C14.4216 74.3348 14.3649 74.4079 14.3177 74.4835L10.5704 72.8419C10.6389 72.5905 10.6294 72.3155 10.522 72.0559H10.5208ZM16.2079 75.9882C16.3472 75.8489 16.444 75.6849 16.5019 75.5102L20.0296 76.1286C20.0202 76.452 20.1382 76.7777 20.3838 77.0244C20.3968 77.0374 20.4121 77.0492 20.4263 77.0621L18.4759 79.9795C18.2114 79.8544 17.9127 79.8296 17.6353 79.9052L15.993 76.1593C16.0698 76.1109 16.1418 76.0555 16.2079 75.9894V75.9882ZM19.1536 81.2789L23.2445 81.3615C23.2905 81.7238 23.4995 82.0566 23.8265 82.2513L22.483 85.4921C22.1784 85.4154 21.8655 85.4602 21.6022 85.6042L18.8218 81.9292C19.0036 81.7451 19.1134 81.5161 19.1536 81.2789ZM22.8112 85.6278L24.1547 82.3871C24.5243 82.4803 24.9068 82.393 25.1961 82.1699L28.1476 85.0023C28.0957 85.0755 28.0496 85.1557 28.0142 85.2419C27.9528 85.3906 27.9233 85.5452 27.9221 85.6974L23.3555 86.3312C23.2716 86.0432 23.0815 85.7907 22.8124 85.629L22.8112 85.6278ZM29.6034 84.5834C29.5845 84.5751 29.5656 84.5704 29.5467 84.5633L30.2314 81.1231C30.5868 81.142 30.9339 81.0027 31.1783 80.7454L34.1039 82.7978C34.0213 82.9618 33.974 83.1471 33.974 83.343C33.974 83.4362 33.9859 83.5271 34.0059 83.6156L30.1948 85.1038C30.0662 84.8772 29.8643 84.6896 29.6045 84.5822L29.6034 84.5834ZM36.2763 82.7978L39.2078 80.7419C39.4297 80.9768 39.7438 81.1243 40.0921 81.1243C40.111 81.1243 40.1299 81.1219 40.1488 81.1219L40.8335 84.5633C40.5584 84.6613 40.3294 84.8548 40.1865 85.105L36.3755 83.6168C36.3955 83.5295 36.4073 83.4386 36.4073 83.3442C36.4073 83.1483 36.3601 82.963 36.2775 82.7989L36.2763 82.7978ZM42.2326 85.0023L45.1841 82.1699C45.4734 82.3941 45.8559 82.4803 46.2255 82.3871L47.569 85.6278C47.2998 85.7883 47.1098 86.042 47.0259 86.33L42.4592 85.6963C42.4569 85.4378 42.3731 85.1982 42.2337 85.0023H42.2326ZM47.8961 85.4921L46.5525 82.2513C46.8795 82.0566 47.0885 81.7238 47.1345 81.3615L51.2254 81.2789C51.2408 81.3674 51.2644 81.4559 51.2998 81.5421C51.3612 81.6908 51.4498 81.8206 51.5572 81.9292L48.7768 85.6042C48.5135 85.4602 48.2007 85.4154 47.8961 85.4921ZM51.9598 79.9524C51.9409 79.9606 51.9232 79.9701 51.9055 79.9783L49.9563 77.0621C50.2207 76.8237 50.3683 76.4815 50.3588 76.1263L53.8795 75.509C53.9373 75.6837 54.0342 75.8477 54.1735 75.987C54.2396 76.0531 54.3128 76.1097 54.3883 76.1569L52.7461 79.9028C52.4946 79.8344 52.2195 79.8438 51.9598 79.9512V79.9524ZM54.968 68.716C54.8606 68.9438 54.8275 69.1975 54.87 69.4418L51.9385 70.4036C51.8819 70.2891 51.8063 70.1818 51.7107 70.0873C51.5371 69.9139 51.3234 69.8041 51.0991 69.7569L51.2526 67.1617C51.5277 67.1381 51.7969 67.0213 52.007 66.81C52.0212 66.7958 52.0342 66.7805 52.0471 66.7652L54.9669 68.7148L54.968 68.716ZM50.0483 65.4304C49.9645 65.6074 49.9256 65.7998 49.9326 65.9922L47.8205 66.3769C47.7626 66.2058 47.6658 66.0441 47.5289 65.9072C47.3034 65.6818 47.0118 65.5649 46.7166 65.5531L46.5336 63.8431C46.7379 63.7911 46.9303 63.6861 47.0897 63.5268C47.1039 63.5126 47.1168 63.4973 47.1298 63.4819L50.0483 65.4316V65.4304ZM41.3931 66.0063C41.3235 66.2577 41.3341 66.5339 41.4415 66.7935C41.5631 67.0873 41.7875 67.3069 42.0567 67.4308L41.5714 69.0807C41.4191 69.0594 41.2609 69.0665 41.1062 69.1054L39.7627 65.8647C39.9315 65.7644 40.0685 65.6275 40.1688 65.4682L41.3943 66.0063H41.3931ZM38.8666 66.0063C39.0496 66.0488 39.2432 66.0476 39.4345 66.0004L40.778 69.2412C40.6399 69.3238 40.5242 69.43 40.4309 69.5527L38.9209 68.729C38.9693 68.598 38.9965 68.4563 38.9965 68.3088C38.9965 67.8556 38.7485 67.4615 38.3813 67.2526L38.8666 66.0063ZM31.9977 67.2526C31.771 67.3812 31.5833 67.583 31.4747 67.8427C31.353 68.1365 31.3566 68.4504 31.4581 68.7278L29.9481 69.5515C29.856 69.4288 29.7391 69.3226 29.601 69.24L30.9445 65.9992C31.1346 66.0476 31.3283 66.0476 31.5124 66.0051L31.9977 67.2514V67.2526ZM30.2114 65.467C30.3117 65.6263 30.4487 65.7632 30.6175 65.8635L29.274 69.1043C29.1181 69.0653 28.9611 69.0582 28.8088 69.0795L28.3235 67.4296C28.4511 67.3706 28.5703 67.2903 28.6742 67.1865C28.9941 66.8667 29.098 66.4123 28.9871 66.0051L30.2114 65.467ZM24.4723 61.4933C24.2209 61.4237 23.9446 61.4343 23.6848 61.5417C23.3909 61.6633 23.1713 61.8887 23.0473 62.1566L21.3968 61.6716C21.418 61.5193 21.411 61.3612 21.372 61.2066L24.614 59.8635C24.7144 60.0323 24.8513 60.1692 25.0107 60.2695L24.4723 61.4945V61.4933ZM24.4723 58.9678C24.4298 59.1507 24.431 59.3443 24.4782 59.5354L21.2362 60.8785C21.1536 60.7404 21.0473 60.6247 20.9245 60.5315L21.7486 59.0221C21.8797 59.0705 22.0213 59.0976 22.1689 59.0976C22.6223 59.0976 23.0166 58.8498 23.2256 58.4827L24.4723 58.9678ZM23.2256 52.1016C23.0969 51.875 22.895 51.6873 22.6353 51.5787C22.3413 51.4572 22.0272 51.4607 21.7498 51.5622L20.9257 50.0528C21.0485 49.9607 21.1548 49.8439 21.2374 49.7058L24.4794 51.0489C24.431 51.2389 24.431 51.4324 24.4735 51.6165L23.2268 52.1016H23.2256ZM25.0119 50.316C24.8525 50.4151 24.7155 50.5532 24.6152 50.7219L21.3732 49.3789C21.4121 49.2231 21.4192 49.0662 21.398 48.9139L23.0485 48.4289C23.1075 48.5563 23.1878 48.6755 23.2917 48.7794C23.6116 49.0992 24.0662 49.2031 24.4735 49.0921L25.0119 50.316ZM28.9871 44.5792C29.0567 44.3278 29.0461 44.0516 28.9387 43.792C28.8171 43.4981 28.5927 43.2786 28.3235 43.1547L28.8088 41.5048C28.9611 41.5261 29.1193 41.519 29.274 41.48L30.6175 44.7208C30.4487 44.8211 30.3117 44.958 30.2114 45.1173L28.9859 44.5792H28.9871ZM31.5136 44.5792C31.3306 44.5367 31.137 44.5379 30.9457 44.5851L29.6022 41.3443C29.7403 41.2617 29.856 41.1555 29.9493 41.0328L31.4593 41.8565C31.4109 41.9875 31.3837 42.1291 31.3837 42.2767C31.3837 42.7298 31.6317 43.124 31.9989 43.3329L31.5136 44.5792ZM38.3825 43.3329C38.6092 43.2043 38.7969 43.0025 38.9055 42.7428C39.0271 42.449 39.0236 42.135 38.9221 41.8577L40.4321 41.0339C40.5242 41.1567 40.6411 41.2629 40.7792 41.3455L39.4356 44.5862C39.2456 44.5379 39.0519 44.5379 38.8678 44.5803L38.3825 43.3341V43.3329ZM40.1688 45.1185C40.0685 44.9592 39.9315 44.8223 39.7627 44.722L41.1062 41.4812C41.2621 41.5202 41.4191 41.5272 41.5714 41.506L42.0567 43.1559C41.9303 43.2149 41.8099 43.2951 41.706 43.399C41.3861 43.7188 41.2822 44.1732 41.3931 44.5803L40.1688 45.1185ZM47.131 47.1047C47.118 47.0894 47.105 47.074 47.0909 47.0599C46.9315 46.9006 46.7379 46.7955 46.5348 46.7436L46.7178 45.0335C47.0129 45.0217 47.3046 44.9049 47.5301 44.6795C47.667 44.5426 47.7626 44.3809 47.8217 44.2098L49.9338 44.5945C49.9279 44.7869 49.9657 44.9792 50.0495 45.1563L47.131 47.1059V47.1047ZM52.0495 43.8191C52.0353 43.8038 52.0235 43.7885 52.0094 43.7743C51.7992 43.5642 51.53 43.4474 51.2549 43.4226L51.1015 40.8274C51.3258 40.7814 51.5395 40.6716 51.713 40.497C51.8087 40.4014 51.883 40.294 51.9409 40.1807L54.8724 41.1425C54.8299 41.3868 54.863 41.6394 54.9704 41.8683L52.0507 43.818L52.0495 43.8191ZM56.968 40.5335C56.955 40.5194 56.9432 40.5052 56.9302 40.4911C56.6835 40.2444 56.3576 40.1276 56.0341 40.137L55.4155 36.6107C55.5902 36.5528 55.7543 36.4561 55.8937 36.3168C55.9598 36.2507 56.0164 36.1775 56.0637 36.102L59.811 37.7436C59.7354 38.0221 59.7602 38.3207 59.8854 38.5839L56.9668 40.5335H56.968ZM60.5099 36.9447C60.3694 37.0037 60.2384 37.0898 60.125 37.2043C60.0589 37.2704 60.0022 37.3435 59.955 37.4191L56.2077 35.7775C56.3033 35.4246 56.2372 35.0375 56.0105 34.733L58.4922 32.2523C58.7437 32.4399 59.0507 32.5178 59.3494 32.486L60.5111 36.9447H60.5099ZM58.007 31.1453C57.9751 31.4427 58.053 31.7495 58.2407 32.0009L55.7591 34.4816C55.4533 34.2539 55.0672 34.189 54.7142 34.2845L53.0719 30.5387C53.1487 30.4903 53.2207 30.4348 53.2868 30.3687C53.4013 30.2543 53.4863 30.1233 53.5466 29.984L58.007 31.1453ZM40.1157 24.4231C40.0189 24.6626 40.0047 24.9164 40.059 25.1512L36.2479 26.6394C36.0661 26.3219 35.7462 26.0954 35.3696 26.0399V22.5312C35.6801 22.4852 35.9528 22.3247 36.1405 22.091L40.1169 24.4231H40.1157ZM34.2432 22.091C34.431 22.3247 34.7037 22.4864 35.0142 22.5312V26.0399C34.6376 26.0954 34.3176 26.3219 34.1358 26.6394L30.3247 25.1512C30.3448 25.0639 30.3566 24.973 30.3566 24.8786C30.3566 24.7169 30.3247 24.5635 30.268 24.4231L34.2444 22.091H34.2432ZM16.836 29.984C16.9375 30.2224 17.1064 30.4112 17.3106 30.5387L15.6684 34.2845C15.3154 34.189 14.9281 34.255 14.6235 34.4816L12.1418 32.0009C12.3295 31.7495 12.4075 31.4427 12.3756 31.1441L16.836 29.9828V29.984ZM11.0344 32.486C11.3319 32.5178 11.6389 32.4399 11.8903 32.2523L14.372 34.733C14.1442 35.0387 14.0792 35.4246 14.1749 35.7775L10.4275 37.4191C10.3791 37.3424 10.3236 37.2704 10.2575 37.2043C10.143 37.0898 10.012 37.0048 9.87264 36.9447L11.0344 32.486ZM4.30951 50.3703C4.54918 50.467 4.80301 50.4812 5.03796 50.4269L6.52673 54.2365C6.20914 54.4182 5.98246 54.7381 5.92697 55.1145H2.41696C2.37091 54.8041 2.21035 54.5315 1.97658 54.3439L4.30951 50.3691V50.3703ZM1.97658 56.2404C2.21035 56.0528 2.37209 55.7802 2.41696 55.4698H5.92697C5.98246 55.8462 6.20914 56.1661 6.52673 56.3478L5.03796 60.1574C4.95059 60.1373 4.85968 60.1255 4.76523 60.1255C4.60349 60.1255 4.45 60.1574 4.30951 60.214L1.97658 56.2392V56.2404ZM9.87264 73.6408C10.1111 73.5393 10.3 73.3706 10.4275 73.1664L14.1749 74.808C14.0792 75.1609 14.1453 75.548 14.372 75.8525L11.8903 78.3332C11.6389 78.1455 11.3319 78.0676 11.0332 78.0995L9.87146 73.6408H9.87264ZM12.3756 79.4402C12.4075 79.1428 12.3295 78.8359 12.1418 78.5834L14.6235 76.1027C14.9293 76.3304 15.3154 76.3953 15.6684 76.2998L17.3106 80.0456C17.2339 80.094 17.1619 80.1495 17.0957 80.2156C16.9812 80.33 16.8962 80.461 16.836 80.6003L12.3756 79.439V79.4402ZM30.2669 86.1624C30.3637 85.9229 30.3778 85.6691 30.3235 85.4343L34.1346 83.9461C34.3164 84.2635 34.6364 84.4901 35.013 84.5456V88.0542C34.7025 88.1003 34.4298 88.2608 34.2421 88.4944L30.2657 86.1624H30.2669ZM36.1393 88.4944C35.9516 88.2608 35.6789 88.0991 35.3684 88.0542V84.5456C35.745 84.4901 36.0649 84.2635 36.2468 83.9461L40.0578 85.4343C40.0378 85.5216 40.026 85.6125 40.026 85.7069C40.026 85.8686 40.0578 86.022 40.1145 86.1624L36.1381 88.4944H36.1393ZM53.5466 80.6015C53.445 80.3631 53.2762 80.1742 53.0719 80.0468L54.7142 76.3009C55.0672 76.3965 55.4545 76.3304 55.7591 76.1038L58.2407 78.5846C58.053 78.8359 57.9751 79.1428 58.007 79.4414L53.5466 80.6026V80.6015ZM59.3482 78.0995C59.0507 78.0676 58.7437 78.1455 58.491 78.3332L56.0093 75.8525C56.2372 75.5468 56.3033 75.1609 56.2065 74.808L59.9538 73.1664C60.0022 73.2431 60.0577 73.3151 60.1239 73.3812C60.2384 73.4957 60.3694 73.5806 60.5087 73.6408L59.347 78.0995H59.3482Z" fill="url(#paint0_linear_1234_113816)"/>
</g>
<path d="M102.082 32.5808H94.9795C94.8498 31.6619 94.5849 30.8457 94.1849 30.1322C93.7849 29.4079 93.2714 28.7917 92.6444 28.2836C92.0174 27.7755 91.2931 27.3863 90.4715 27.116C89.6607 26.8458 88.7796 26.7106 87.8283 26.7106C86.1094 26.7106 84.6122 27.1377 83.3365 27.9917C82.0609 28.8349 81.0717 30.0673 80.369 31.6889C79.6664 33.2997 79.315 35.2564 79.315 37.559C79.315 39.9265 79.6664 41.9157 80.369 43.5264C81.0825 45.1372 82.0771 46.3534 83.3528 47.175C84.6284 47.9966 86.104 48.4074 87.7797 48.4074C88.7202 48.4074 89.5904 48.2831 90.3904 48.0344C91.2012 47.7858 91.9201 47.4236 92.5471 46.948C93.1741 46.4615 93.693 45.8723 94.1038 45.1804C94.5254 44.4886 94.8173 43.6994 94.9795 42.8129L102.082 42.8454C101.898 44.3696 101.439 45.8399 100.704 47.2561C99.9793 48.6614 99.001 49.9209 97.7686 51.0343C96.547 52.137 95.0876 53.0127 93.3903 53.6613C91.7039 54.2991 89.7958 54.618 87.6662 54.618C84.7041 54.618 82.0555 53.9478 79.7204 52.6073C77.3962 51.2668 75.5584 49.3263 74.207 46.7858C72.8665 44.2453 72.1963 41.1697 72.1963 37.559C72.1963 33.9375 72.8774 30.8565 74.2395 28.316C75.6016 25.7755 77.4502 23.8405 79.7853 22.5108C82.1204 21.1703 84.7473 20.5 87.6662 20.5C89.5904 20.5 91.3742 20.7703 93.0174 21.3108C94.6714 21.8513 96.1362 22.6405 97.4118 23.6783C98.6875 24.7053 99.7253 25.9647 100.525 27.4566C101.336 28.9484 101.855 30.6565 102.082 32.5808Z" fill="white"/>
<path d="M111.683 54.164V20.954H124.786C127.294 20.954 129.434 21.4027 131.207 22.3C132.991 23.1864 134.348 24.4458 135.277 26.0782C136.218 27.6998 136.688 29.6079 136.688 31.8024C136.688 34.0078 136.212 35.905 135.261 37.4941C134.31 39.0725 132.931 40.2833 131.126 41.1265C129.332 41.9697 127.159 42.3913 124.607 42.3913H115.835V36.7482H123.472C124.813 36.7482 125.926 36.5644 126.813 36.1969C127.699 35.8293 128.359 35.278 128.791 34.5429C129.234 33.8078 129.456 32.8943 129.456 31.8024C129.456 30.6997 129.234 29.77 128.791 29.0133C128.359 28.2566 127.694 27.6836 126.796 27.2944C125.91 26.8944 124.791 26.6944 123.44 26.6944H118.705V54.164H111.683ZM129.618 39.0509L137.872 54.164H130.121L122.045 39.0509H129.618Z" fill="white"/>
<path d="M142.888 20.954H150.753L158.326 35.2564H158.65L166.223 20.954H174.087L161.974 42.4238V54.164H155.001V42.4238L142.888 20.954Z" fill="white"/>
<path d="M211 37.559C211 41.1805 210.314 44.2615 208.941 46.802C207.579 49.3425 205.719 51.283 203.363 52.6235C201.017 53.9532 198.379 54.618 195.449 54.618C192.498 54.618 189.849 53.9478 187.504 52.6073C185.158 51.2668 183.304 49.3263 181.942 46.7858C180.579 44.2453 179.898 41.1697 179.898 37.559C179.898 33.9375 180.579 30.8565 181.942 28.316C183.304 25.7755 185.158 23.8405 187.504 22.5108C189.849 21.1703 192.498 20.5 195.449 20.5C198.379 20.5 201.017 21.1703 203.363 22.5108C205.719 23.8405 207.579 25.7755 208.941 28.316C210.314 30.8565 211 33.9375 211 37.559ZM203.882 37.559C203.882 35.2131 203.53 33.2348 202.827 31.624C202.136 30.0133 201.157 28.7917 199.892 27.9593C198.628 27.1269 197.147 26.7106 195.449 26.7106C193.752 26.7106 192.271 27.1269 191.006 27.9593C189.741 28.7917 188.758 30.0133 188.055 31.624C187.363 33.2348 187.017 35.2131 187.017 37.559C187.017 39.9049 187.363 41.8832 188.055 43.494C188.758 45.1048 189.741 46.3264 191.006 47.1588C192.271 47.9912 193.752 48.4074 195.449 48.4074C197.147 48.4074 198.628 47.9912 199.892 47.1588C201.157 46.3264 202.136 45.1048 202.827 43.494C203.53 41.8832 203.882 39.9049 203.882 37.559Z" fill="white"/>
<path d="M72.623 90.9743V66.9141H86.5446V68.8878H74.82V77.9456H85.4521V79.9193H74.82V90.9743H72.623Z" fill="white"/>
<path d="M110.69 66.9141H112.887V82.8446C112.887 84.4815 112.504 85.9461 111.736 87.2384C110.968 88.5229 109.899 89.5371 108.529 90.2812C107.166 91.0174 105.58 91.3855 103.771 91.3855C101.969 91.3855 100.383 91.0135 99.0127 90.2694C97.6421 89.5254 96.573 88.5111 95.8055 87.2267C95.0379 85.9422 94.6542 84.4815 94.6542 82.8446V66.9141H96.8511V82.6919C96.8511 83.9685 97.1369 85.1081 97.7087 86.1106C98.2804 87.1053 99.0832 87.8885 100.117 88.4602C101.159 89.032 102.377 89.3178 103.771 89.3178C105.165 89.3178 106.383 89.032 107.424 88.4602C108.466 87.8885 109.269 87.1053 109.833 86.1106C110.405 85.1081 110.69 83.9685 110.69 82.6919V66.9141Z" fill="white"/>
<path d="M120.462 68.8878V66.9141H137.908V68.8878H130.284V90.9743H128.087V68.8878H120.462Z" fill="white"/>
<path d="M161.537 66.9141H163.734V82.8446C163.734 84.4815 163.35 85.9461 162.583 87.2384C161.815 88.5229 160.746 89.5371 159.376 90.2812C158.013 91.0174 156.427 91.3855 154.618 91.3855C152.816 91.3855 151.23 91.0135 149.86 90.2694C148.489 89.5254 147.42 88.5111 146.652 87.2267C145.885 85.9422 145.501 84.4815 145.501 82.8446V66.9141H147.698V82.6919C147.698 83.9685 147.984 85.1081 148.555 86.1106C149.127 87.1053 149.93 87.8885 150.964 88.4602C152.006 89.032 153.223 89.3178 154.618 89.3178C156.012 89.3178 157.23 89.032 158.271 88.4602C159.313 87.8885 160.116 87.1053 160.68 86.1106C161.251 85.1081 161.537 83.9685 161.537 82.6919V66.9141Z" fill="white"/>
<path d="M172.766 90.9743V66.9141H180.531C182.239 66.9141 183.664 67.2234 184.808 67.8422C185.959 68.4531 186.825 69.3029 187.404 70.3915C187.992 71.4724 188.285 72.7137 188.285 74.1157C188.285 75.5176 187.992 76.7551 187.404 77.8281C186.825 78.9011 185.963 79.7392 184.82 80.3422C183.676 80.9453 182.258 81.2468 180.567 81.2468H173.952V79.2379H180.508C181.761 79.2379 182.803 79.0303 183.633 78.6152C184.471 78.2001 185.094 77.6088 185.501 76.8413C185.916 76.0737 186.124 75.1652 186.124 74.1157C186.124 73.0662 185.916 72.1498 185.501 71.3666C185.086 70.5756 184.459 69.9647 183.621 69.5339C182.791 69.1031 181.742 68.8878 180.473 68.8878H174.963V90.9743H172.766ZM183.375 80.119L189.296 90.9743H186.758L180.896 80.119H183.375Z" fill="white"/>
<path d="M196.283 90.9743V66.9141H210.24V68.8878H198.48V77.9456H209.5V79.9193H198.48V89.0006H210.475V90.9743H196.283Z" fill="white"/>
<defs>
<linearGradient id="paint0_linear_1234_113816" x1="26.0733" y1="28.9962" x2="41.1235" y2="86.5819" gradientUnits="userSpaceOnUse">
<stop stop-color="#19FFAB"/>
<stop offset="1" stop-color="#136EFF"/>
</linearGradient>
<clipPath id="clip0_1234_113816">
<rect width="62.2051" height="70.3593" fill="white" transform="translate(0 20.6152)"/>
</clipPath>
</defs>
</svg>
