<svg width="16" height="17" viewBox="0 0 16 17" fill="none" xmlns="http://www.w3.org/2000/svg">
<path d="M12.8001 4.08594L12.8002 4.08594C13.081 4.08589 13.3511 4.19317 13.5553 4.38581C13.6824 4.50576 13.778 4.65316 13.836 4.81497L8.00014 7.73253L2.16428 4.81497C2.22225 4.65316 2.31785 4.50576 2.445 4.38581C2.64919 4.19317 2.91932 4.08589 3.20005 4.08594H3.20014L12.8001 4.08594Z" fill="#9CA3AF" stroke="#9CA3AF"/>
<path d="M14.4001 6.87988L8.0001 10.0799L1.6001 6.87988V11.5855C1.6001 12.0098 1.76867 12.4168 2.06873 12.7169C2.36878 13.0169 2.77575 13.1855 3.2001 13.1855H12.8001C13.2244 13.1855 13.6314 13.0169 13.9315 12.7169C14.2315 12.4168 14.4001 12.0098 14.4001 11.5855V6.87988Z" fill="#9CA3AF"/>
</svg>
