<svg width="21" height="20" viewBox="0 0 21 20" fill="none" xmlns="http://www.w3.org/2000/svg">
<path d="M14.086 3.58616C14.2705 3.39514 14.4912 3.24278 14.7352 3.13796C14.9792 3.03314 15.2416 2.97797 15.5072 2.97566C15.7728 2.97335 16.0361 3.02396 16.2819 3.12452C16.5277 3.22508 16.751 3.37359 16.9388 3.56137C17.1266 3.74916 17.2751 3.97246 17.3756 4.21825C17.4762 4.46405 17.5268 4.72741 17.5245 4.99296C17.5222 5.25852 17.467 5.52096 17.3622 5.76497C17.2574 6.00898 17.105 6.22967 16.914 6.41416L16.121 7.20716L13.293 4.37916L14.086 3.58616ZM11.879 5.79316L3.5 14.1722V17.0002H6.328L14.708 8.62116L11.878 5.79316H11.879Z" fill="white"/>
</svg>
