<svg width="16" height="17" viewBox="0 0 16 17" fill="none" xmlns="http://www.w3.org/2000/svg">
<path d="M5.5033 6.20215L4.9113 2.65415C4.88024 2.46735 4.78393 2.29762 4.63949 2.17516C4.49506 2.0527 4.31186 1.98544 4.1225 1.98535H2.4001C2.18792 1.98535 1.98444 2.06964 1.83441 2.21967C1.68438 2.3697 1.6001 2.57318 1.6001 2.78535V4.38535C1.6001 10.1294 6.2561 14.7854 12.0001 14.7854H13.6001C13.8123 14.7854 14.0158 14.7011 14.1658 14.551C14.3158 14.401 14.4001 14.1975 14.4001 13.9854V12.263M5.5033 6.20215L14.4001 12.263M5.5033 6.20215C5.53158 6.37113 5.50488 6.54472 5.42711 6.69738C5.34934 6.85003 5.22462 6.97369 5.0713 7.05015M5.5033 6.20215L5.0713 7.05015M14.4001 12.263H13.9001V12.2632L14.4001 12.263ZM5.0713 7.05015L3.8329 7.66855M5.0713 7.05015L3.8329 7.66855M3.8329 7.66855C4.27698 8.76907 4.93836 9.76878 5.77752 10.6079C6.61667 11.4471 7.61638 12.1085 8.7169 12.5526L3.8329 7.66855ZM10.1012 11.3754L10.1833 10.8822L10.101 11.3753L10.1012 11.3754ZM4.12227 2.48535C4.1223 2.48535 4.12233 2.48535 4.12236 2.48535H4.1225V1.98561L4.12227 2.48535Z" fill="#9CA3AF" stroke="#9CA3AF"/>
</svg>
