<svg width="27" height="28" viewBox="0 0 27 28" fill="none" xmlns="http://www.w3.org/2000/svg">
<path d="M13.4989 10.8162V14.14M13.4989 14.14V17.4639M13.4989 14.14H16.8228M13.4989 14.14H10.175M23.4705 14.14C23.4705 15.4495 23.2125 16.7462 22.7114 17.956C22.2103 19.1658 21.4758 20.265 20.5499 21.191C19.6239 22.1169 18.5247 22.8514 17.3149 23.3525C16.105 23.8537 14.8084 24.1116 13.4989 24.1116C12.1894 24.1116 10.8928 23.8537 9.68295 23.3525C8.47315 22.8514 7.37389 22.1169 6.44795 21.191C5.522 20.265 4.7875 19.1658 4.28638 17.956C3.78527 16.7462 3.52734 15.4495 3.52734 14.14C3.52734 11.4954 4.57792 8.95909 6.44795 7.08906C8.31797 5.21903 10.8543 4.16846 13.4989 4.16846C16.1435 4.16846 18.6798 5.21903 20.5499 7.08906C22.4199 8.95909 23.4705 11.4954 23.4705 14.14Z" stroke="#828282" stroke-width="1.81556" stroke-linecap="round" stroke-linejoin="round"/>
</svg>