<svg width="26" height="26" viewBox="0 0 26 26" fill="none" xmlns="http://www.w3.org/2000/svg">
<path d="M16.4766 7.14062L21.2812 11.9453C21.5547 12.2188 21.75 12.6094 21.75 13C21.75 13.4297 21.5547 13.8203 21.2812 14.0938L16.4766 18.8984C16.2422 19.1328 15.8906 19.25 15.5391 19.25C14.8359 19.25 14.25 18.6641 14.25 17.9609V15.5H9.25C8.54688 15.5 8 14.9531 8 14.25V11.75C8 11.0859 8.54688 10.5 9.25 10.5H14.25V8.07812C14.25 7.375 14.8359 6.75 15.5391 6.75C15.8906 6.75 16.2422 6.90625 16.4766 7.14062ZM6.75 6.75V19.25C6.75 19.9531 6.16406 20.5 5.5 20.5C4.79688 20.5 4.25 19.9531 4.25 19.25V6.75C4.25 6.08594 4.79688 5.5 5.5 5.5C6.16406 5.5 6.75 6.08594 6.75 6.75Z" fill="#4F4F4F"/>
</svg>
