<svg width="46" height="31" viewBox="0 0 46 31" fill="none" xmlns="http://www.w3.org/2000/svg">
<g clip-path="url(#clip0_1234_114204)">
<path d="M41.9438 0.571289H4.57568C2.51189 0.571289 0.838867 2.24432 0.838867 4.3081V26.729C0.838867 28.7927 2.51189 30.4658 4.57568 30.4658H41.9438C44.0076 30.4658 45.6806 28.7927 45.6806 26.729V4.3081C45.6806 2.24432 44.0076 0.571289 41.9438 0.571289Z" fill="#016FD0"/>
<path fill-rule="evenodd" clip-rule="evenodd" d="M26.5547 25.5959V14.9434L45.5144 14.9604V17.9029L43.323 20.2448L45.5144 22.6081V25.613H42.0156L40.1562 23.5612L38.31 25.6208L26.5547 25.5959Z" fill="#FFFFFE"/>
<path fill-rule="evenodd" clip-rule="evenodd" d="M27.8213 24.4295V16.1172H34.8695V18.0321H30.1033V19.3319H34.7558V21.2149H30.1033V22.4916H34.8695V24.4295H27.8213Z" fill="#016FD0"/>
<path fill-rule="evenodd" clip-rule="evenodd" d="M34.8351 24.4293L38.7351 20.2684L34.835 16.1172H37.8536L40.2368 18.7517L42.6267 16.1172H45.5155V16.1826L41.6986 20.2684L45.5155 24.3114V24.4293H42.5976L40.1722 21.7684L37.7717 24.4293H34.8351Z" fill="#016FD0"/>
<path fill-rule="evenodd" clip-rule="evenodd" d="M27.439 5.48828H32.0093L33.6145 9.13326V5.48828H39.2568L40.2298 8.21908L41.206 5.48828H45.5145V16.1408H22.7451L27.439 5.48828Z" fill="#FFFFFE"/>
<path fill-rule="evenodd" clip-rule="evenodd" d="M28.3054 6.64746L24.6172 14.9528H27.1468L27.8427 13.2897H31.613L32.3083 14.9528H34.9009L31.228 6.64746H28.3054ZM28.6224 11.4258L29.7285 8.78186L30.8338 11.4258H28.6224Z" fill="#016FD0"/>
<path fill-rule="evenodd" clip-rule="evenodd" d="M34.8662 14.9507V6.64551L38.422 6.65773L40.2517 11.7636L42.0932 6.64551H45.5154V14.9507L43.3133 14.9702V9.26532L41.2346 14.9507H39.2245L37.1027 9.24583V14.9507H34.8662Z" fill="#016FD0"/>
</g>
<defs>
<clipPath id="clip0_1234_114204">
<rect width="44.8417" height="29.8945" fill="white" transform="translate(0.838867 0.571289)"/>
</clipPath>
</defs>
</svg>
