<svg width="46" height="32" viewBox="0 0 46 32" fill="none" xmlns="http://www.w3.org/2000/svg">
<g clip-path="url(#clip0_1234_114200)">
<path opacity="0.8" d="M30.731 2.92871H3.71611C2.45323 2.92871 0.970703 4.38378 0.970703 5.67412V26.2647C0.970703 27.5551 2.45323 29.0101 3.71611 29.0101H38.0338C39.2967 29.0101 40.7792 27.5551 40.7792 26.2647V15.9282C39.6228 16.9685 38.1946 17.6587 36.6611 17.9187V18.0285C36.6611 18.9345 36.1669 19.4012 35.2884 19.4012H5.08882C4.21029 19.4012 3.71611 18.9345 3.71611 18.0285V16.6558C3.71611 15.7498 4.21029 15.2831 5.08882 15.2831H29.1524C28.36 14.4049 27.7667 13.3659 27.4132 12.2372C27.0597 11.1084 26.9543 9.91659 27.1042 8.74332C27.2541 7.57005 27.6558 6.44303 28.2818 5.43944C28.9078 4.43585 29.7432 3.5794 30.731 2.92871V2.92871Z" fill="white"/>
<path d="M27.5188 7.04688H0.970703V11.165H27.1619C26.9313 9.78417 27.0541 8.36744 27.5188 7.04688Z" fill="white"/>
</g>
<path d="M36.2027 19.2179C33.6542 19.2179 31.2102 18.2055 29.4081 16.4035C27.6061 14.6015 26.5938 12.1574 26.5938 9.60894C26.5938 7.06049 27.6061 4.61642 29.4081 2.81439C31.2102 1.01237 33.6542 0 36.2027 0C38.7511 0 41.1952 1.01237 42.9972 2.81439C44.7993 4.61642 45.8116 7.06049 45.8116 9.60894C45.8116 12.1574 44.7993 14.6015 42.9972 16.4035C41.1952 18.2055 38.7511 19.2179 36.2027 19.2179ZM32.3866 5.62809H31.3021L28.6528 6.97335V8.34605L30.753 7.24789V13.5898H32.4003V5.62809H32.3866ZM35.5438 6.72626C36.3262 6.72626 36.8753 7.16553 36.8753 7.79697C36.8753 8.48332 36.2301 8.96377 35.2967 8.96377H34.8849V10.1306H35.3791C36.3674 10.1306 37.04 10.6247 37.04 11.3386C37.04 12.0249 36.3811 12.4916 35.4477 12.4916C34.7614 12.4916 34.075 12.272 33.3612 11.8465V13.2192C34.1299 13.5486 34.8986 13.7271 35.6536 13.7271C37.4519 13.7271 38.6873 12.8073 38.6873 11.4758C38.6873 10.5424 38.1108 9.78739 37.1499 9.4854C37.9735 9.21086 38.5088 8.48332 38.5088 7.6597C38.5088 6.36936 37.3695 5.49082 35.7222 5.49082C34.9797 5.49906 34.2465 5.65784 33.5671 5.95754V7.3028C34.226 6.93217 34.8986 6.72626 35.5438 6.72626ZM41.4739 9.71876C42.476 9.71876 43.176 10.309 43.176 11.0777C43.176 11.8876 42.476 12.4504 41.4739 12.4504C40.8699 12.4504 40.2384 12.2583 39.5933 11.8602V13.2741C40.2659 13.5761 40.9523 13.7271 41.6249 13.7271C41.9818 13.7271 42.3112 13.6722 42.627 13.5898C43.3408 12.423 43.7526 11.0777 43.7526 9.6364L43.7251 9.05986C43.2147 8.75776 42.6296 8.60552 42.0367 8.62059C41.7896 8.62059 41.5288 8.63432 41.2543 8.6755V6.89098H43.2309C43.0595 6.4516 42.8481 6.02887 42.5995 5.62809H39.8266V9.95212C40.3757 9.81485 40.9248 9.71876 41.4739 9.71876Z" fill="white"/>
<defs>
<clipPath id="clip0_1234_114200">
<rect width="43.9266" height="28.8268" fill="white" transform="translate(0.970703 2.92871)"/>
</clipPath>
</defs>
</svg>
