<svg width="46" height="30" viewBox="0 0 46 30" fill="none" xmlns="http://www.w3.org/2000/svg">
<g clip-path="url(#clip0_1234_114201)">
<path d="M41.5907 29.4279L41.5947 29.4279C43.3792 29.4432 44.8432 27.9843 44.8655 26.1661L44.8656 3.74926C44.8584 2.86996 44.5084 2.03008 43.8935 1.41468C43.2801 0.800852 42.4533 0.460578 41.5907 0.467906L4.22891 0.467889C3.37029 0.460578 2.54349 0.800852 1.9301 1.41468C1.31514 2.03008 0.965179 2.86996 0.958023 3.74545L0.958008 26.1466C0.965179 27.0259 1.31514 27.8657 1.9301 28.4811C2.54349 29.095 3.37029 29.4352 4.23289 29.4279H41.5907ZM41.5887 30.3621C41.5881 30.3621 41.5874 30.3621 41.5867 30.3621L41.5907 30.3621H41.5887Z" fill="white" stroke="black" stroke-opacity="0.2" stroke-width="0.934203"/>
<path d="M19.1794 3.83458V3.80469H26.653V3.83458C32.5113 4.26327 37.0453 9.14119 37.0453 15.0151C37.0453 20.889 32.5113 25.767 26.653 26.1957V26.2256H19.1794V26.1957C13.3211 25.767 8.78711 20.889 8.78711 15.0151C8.78711 9.14119 13.3211 4.26327 19.1794 3.83458Z" fill="#0165AC"/>
<path d="M22.1687 21.3531C24.8504 20.3997 26.6418 17.8617 26.6418 15.0155C26.6418 12.1694 24.8504 9.63131 22.1687 8.67788V21.3531ZM17.6846 8.67788C15.0029 9.63131 13.2115 12.1694 13.2115 15.0155C13.2115 17.8617 15.0029 20.3997 17.6846 21.3531V8.67788ZM19.9266 24.7312C14.5608 24.7312 10.2109 20.3814 10.2109 15.0155C10.2109 9.64967 14.5608 5.2998 19.9266 5.2998C25.2925 5.2998 29.6424 9.64967 29.6424 15.0155C29.6424 20.3814 25.2925 24.7312 19.9266 24.7312Z" fill="white"/>
</g>
<defs>
<clipPath id="clip0_1234_114201">
<rect width="44.8417" height="29.8945" fill="white" transform="translate(0.490234)"/>
</clipPath>
</defs>
</svg>
