<svg width="46" height="31" viewBox="0 0 46 31" fill="none" xmlns="http://www.w3.org/2000/svg">
<g clip-path="url(#clip0_1234_114202)">
<path d="M41.9003 30.0002L41.9043 30.0002C43.6887 30.0155 45.1528 28.5565 45.1751 26.7384L45.1751 4.32152C45.168 3.44223 44.818 2.60235 44.203 1.98695C43.5896 1.37312 42.7629 1.03284 41.9003 1.04017L4.53848 1.04015C3.67986 1.03284 2.85306 1.37312 2.23967 1.98695C1.62471 2.60235 1.27475 3.44223 1.26759 4.31771L1.26758 26.7188C1.27475 27.5981 1.62471 28.438 2.23967 29.0534C2.85306 29.6672 3.67986 30.0075 4.54246 30.0002H41.9003ZM41.8983 30.9344C41.8976 30.9344 41.8969 30.9344 41.8963 30.9344L41.9003 30.9344H41.8983Z" fill="white" stroke="black" stroke-opacity="0.2" stroke-width="0.934203"/>
<path d="M24.3652 30.4678H41.8999C42.8841 30.4761 43.8313 30.093 44.5331 29.4028C45.2349 28.7126 45.6337 27.772 45.6419 26.7877V22.3809C39.0205 26.1818 31.8396 28.9112 24.3652 30.4678Z" fill="#F27712"/>
<path d="M44.0949 17.9435H42.5022L40.7086 15.5777H40.5385V17.9435H39.2396V12.0677H41.157C42.6569 12.0677 43.5228 12.6862 43.5228 13.7995C43.5228 14.7118 42.9816 15.2994 42.0074 15.485L44.0949 17.9435ZM42.1775 13.8459C42.1775 13.2738 41.7446 12.98 40.9405 12.98H40.5385V14.7582H40.9096C41.7446 14.7582 42.1775 14.449 42.1775 13.8459ZM34.6936 12.0677H38.3737V13.0573H35.9925V14.3716H38.2809V15.3767H35.9925V16.9694H38.3737V17.959H34.6936V12.0677ZM30.5187 18.0982L27.7045 12.0522H29.127L30.9052 16.0107L32.6989 12.0522H34.0906L31.2454 18.0982H30.5496H30.5187ZM18.7516 18.0827C16.7724 18.0827 15.2261 16.7374 15.2261 14.9902C15.2261 13.2893 16.8033 11.9131 18.7825 11.9131C19.3392 11.9131 19.8031 12.0213 20.3752 12.2687V13.6294C19.9419 13.2038 19.359 12.965 18.7516 12.9645C17.5146 12.9645 16.5714 13.8614 16.5714 14.9902C16.5714 16.1808 17.4991 17.0312 18.8134 17.0312C19.401 17.0312 19.8494 16.8457 20.3752 16.3818V17.7425C19.7876 17.9899 19.2928 18.0827 18.7516 18.0827ZM14.8241 16.1499C14.8241 17.2941 13.8809 18.0827 12.5201 18.0827C11.5305 18.0827 10.8192 17.7425 10.2162 16.9694L11.0666 16.2426C11.3604 16.7684 11.8552 17.0312 12.4737 17.0312C13.0613 17.0312 13.4788 16.6756 13.4788 16.2117C13.4788 15.9488 13.3551 15.7478 13.0923 15.5932C12.804 15.4533 12.5039 15.3395 12.1954 15.253C10.9739 14.8665 10.5564 14.449 10.5564 13.6294C10.5564 12.6708 11.4532 11.944 12.6284 11.944C13.3706 11.944 14.0355 12.176 14.5921 12.6089L13.9118 13.382C13.6421 13.0864 13.2604 12.918 12.8603 12.9182C12.3037 12.9182 11.9016 13.1965 11.9016 13.5676C11.9016 13.8768 12.1336 14.0469 12.9067 14.3098C14.3911 14.7737 14.8241 15.2066 14.8241 16.1653V16.1499ZM8.43799 12.0677H9.73686V17.959H8.43799V12.0677ZM4.26307 17.959H2.3457V12.0677H4.26307C6.366 12.0677 7.81949 13.2738 7.81949 15.0056C7.81949 15.887 7.38653 16.722 6.62886 17.2786C5.97943 17.7425 5.25268 17.959 4.24761 17.959H4.26307ZM5.77841 13.5367C5.34546 13.1965 4.85065 13.0728 4.00021 13.0728H3.64457V16.9694H4.00021C4.83519 16.9694 5.36092 16.8148 5.77841 16.5055C6.22683 16.1344 6.4897 15.5777 6.4897 15.0056C6.4897 14.4335 6.22683 13.8923 5.77841 13.5367Z" fill="black"/>
<path d="M23.9949 11.9131C22.294 11.9131 20.9023 13.2738 20.9023 14.9592C20.9023 16.7529 22.2321 18.0982 23.9949 18.0982C25.7267 18.0982 27.0874 16.7374 27.0874 15.0056C27.0874 13.2738 25.7422 11.9131 23.9949 11.9131Z" fill="#F27712"/>
</g>
<defs>
<clipPath id="clip0_1234_114202">
<rect width="44.8417" height="29.8945" fill="white" transform="translate(0.798828 0.571289)"/>
</clipPath>
</defs>
</svg>
