<svg width="44" height="30" viewBox="0 0 44 30" fill="none" xmlns="http://www.w3.org/2000/svg">
<g clip-path="url(#clip0_1234_114198)">
<path d="M1.18262 29.8945H9.62381C11.5442 29.8945 13.8444 27.6624 13.8444 25.9086V0H5.40321C3.48284 0 1.18262 2.23212 1.18262 5.9789V29.8945Z" fill="#047AB1"/>
<path d="M5.97299 20.2077C4.35246 20.208 2.73991 19.9933 1.18262 19.57V17.3777C2.39108 18.0834 3.77241 18.4816 5.19218 18.5336C6.81711 18.5336 7.72454 17.4574 7.72454 15.9826V9.96387H11.7341V15.9826C11.7341 18.3343 10.4257 20.2077 5.97299 20.2077Z" fill="white"/>
<path d="M15.9551 29.8945H24.3963C26.3166 29.8945 28.6169 27.6624 28.6169 25.9086V0H20.1757C18.2553 0 15.9551 2.23212 15.9551 5.9789V29.8945Z" fill="#D42D06"/>
<path d="M15.9551 11.3604C17.1791 10.2443 19.2893 9.54677 22.708 9.70621C24.5651 9.78593 26.5066 10.3041 26.5066 10.3041V12.5163C25.3961 11.882 24.1479 11.4936 22.8557 11.3803C20.2601 11.1611 18.6774 12.5362 18.6774 14.9477C18.6774 17.3592 20.2601 18.7343 22.8557 18.535C24.1487 18.4116 25.3961 18.0167 26.5066 17.3791V19.5714C26.5066 19.5714 24.5651 20.1095 22.708 20.1892C19.2893 20.3486 17.1791 19.6511 15.9551 18.535V11.3604Z" fill="white"/>
<path d="M30.7266 29.8945H39.1678C41.0881 29.8945 43.3883 27.6624 43.3883 25.9086V0H34.9472C33.0268 0 30.7266 2.23212 30.7266 5.9789V29.8945Z" fill="#67B637"/>
<path d="M41.278 17.3378C41.278 18.9322 39.9697 19.9287 38.2181 19.9287H30.7266V9.96387H37.5428L38.0282 9.9838C39.5687 10.0635 40.7083 10.9205 40.7083 12.3953C40.7083 13.5512 39.9275 14.5477 38.5136 14.7868V14.8466C40.0752 14.9463 41.278 15.883 41.278 17.3378ZM35.8968 11.5383C35.806 11.5255 35.7143 11.5188 35.6225 11.5184H33.0901V14.0295H35.8968C36.4244 13.9099 36.8675 13.4516 36.8675 12.7739C36.8675 12.0963 36.4244 11.638 35.8968 11.5383ZM36.2133 15.604C36.1017 15.5874 35.9886 15.5807 35.8757 15.584H33.0901V18.3144H35.8757L36.2133 18.2745C36.7409 18.155 37.1841 17.6368 37.1841 16.9392C37.1841 16.2417 36.762 15.7435 36.2133 15.604Z" fill="white"/>
</g>
<defs>
<clipPath id="clip0_1234_114198">
<rect width="42.9733" height="29.8945" fill="white" transform="translate(0.798828)"/>
</clipPath>
</defs>
</svg>
