<svg width="46" height="31" viewBox="0 0 46 31" fill="none" xmlns="http://www.w3.org/2000/svg">
<g clip-path="url(#clip0_1234_114205)">
<path d="M41.4643 0.571289H4.09619C2.0324 0.571289 0.359375 2.24432 0.359375 4.3081V26.729C0.359375 28.7927 2.0324 30.4658 4.09619 30.4658H41.4643C43.5281 30.4658 45.2011 28.7927 45.2011 26.729V4.3081C45.2011 2.24432 43.5281 0.571289 41.4643 0.571289Z" fill="#252525"/>
<path d="M17.175 24.8608C22.3345 24.8608 26.5171 20.6782 26.5171 15.5188C26.5171 10.3593 22.3345 6.17676 17.175 6.17676C12.0156 6.17676 7.83301 10.3593 7.83301 15.5188C7.83301 20.6782 12.0156 24.8608 17.175 24.8608Z" fill="#EB001B"/>
<path d="M28.385 24.8608C33.5445 24.8608 37.727 20.6782 37.727 15.5188C37.727 10.3593 33.5445 6.17676 28.385 6.17676C23.2255 6.17676 19.043 10.3593 19.043 15.5188C19.043 20.6782 23.2255 24.8608 28.385 24.8608Z" fill="#F79E1B"/>
<path fill-rule="evenodd" clip-rule="evenodd" d="M22.7798 8.04492C25.0489 9.74929 26.5166 12.4629 26.5166 15.5192C26.5166 18.5756 25.0489 21.2892 22.7798 22.9935C20.5107 21.2892 19.043 18.5756 19.043 15.5192C19.043 12.4629 20.5107 9.74929 22.7798 8.04492Z" fill="#FF5F00"/>
</g>
<defs>
<clipPath id="clip0_1234_114205">
<rect width="44.8417" height="29.8945" fill="white" transform="translate(0.359375 0.571289)"/>
</clipPath>
</defs>
</svg>
