<svg width="143" height="52" viewBox="0 0 143 52" fill="none" xmlns="http://www.w3.org/2000/svg">
<path fill-rule="evenodd" clip-rule="evenodd" d="M142.576 26.8678C142.576 17.9813 137.68 10.9692 128.321 10.9692C118.923 10.9692 113.237 17.9813 113.237 26.7983C113.237 37.2469 119.95 42.5233 129.585 42.5233C134.284 42.5233 137.838 41.5861 140.523 40.267V33.3244C137.838 34.5046 134.758 35.2336 130.849 35.2336C127.018 35.2336 123.622 34.0534 123.188 29.9572H142.497C142.497 29.506 142.576 27.7009 142.576 26.8678ZM123.07 23.57C123.07 19.6475 125.794 18.016 128.282 18.016C130.691 18.016 133.257 19.6475 133.257 23.57H123.07Z" fill="white"/>
<path fill-rule="evenodd" clip-rule="evenodd" d="M97.9957 10.9692C94.1259 10.9692 91.6382 12.566 90.2562 13.6768L89.7428 11.5246H81.0557V52L90.9275 50.1602L90.9669 40.3364C92.3885 41.2389 94.4813 42.5233 97.9562 42.5233C105.024 42.5233 111.461 37.5246 111.461 26.5206C111.421 16.4539 104.906 10.9692 97.9957 10.9692ZM95.6264 34.8865C93.2967 34.8865 91.9146 34.1575 90.9669 33.255L90.9275 20.3764C91.9541 19.3698 93.3757 18.6755 95.6264 18.6755C99.2198 18.6755 101.707 22.2162 101.707 26.7636C101.707 31.4152 99.2593 34.8865 95.6264 34.8865Z" fill="white"/>
<path fill-rule="evenodd" clip-rule="evenodd" d="M67.4717 8.92123L77.383 7.04673V0L67.4717 1.83979V8.92123Z" fill="white"/>
<path d="M77.383 11.5596H67.4717V41.9334H77.383V11.5596Z" fill="white"/>
<path fill-rule="evenodd" clip-rule="evenodd" d="M56.8505 14.1278L56.2187 11.559H47.6895V41.9328H57.5612V21.3481C59.891 18.6752 63.8397 19.1611 65.0638 19.543V11.559C63.8002 11.1425 59.1802 10.3788 56.8505 14.1278Z" fill="white"/>
<path fill-rule="evenodd" clip-rule="evenodd" d="M37.106 4.02686L27.4711 5.83193L27.4316 33.637C27.4316 38.7745 31.8147 42.5582 37.6588 42.5582C40.8968 42.5582 43.266 42.0375 44.5691 41.4127V34.366C43.3055 34.8172 37.0665 36.414 37.0665 31.2765V18.9534H44.5691V11.5596H37.0665L37.106 4.02686Z" fill="white"/>
<path fill-rule="evenodd" clip-rule="evenodd" d="M10.4131 20.3764C10.4131 19.0226 11.6767 18.502 13.7695 18.502C16.7705 18.502 20.5613 19.3003 23.5623 20.7236V12.566C20.2849 11.4205 17.047 10.9692 13.7695 10.9692C5.75362 10.9692 0.422852 14.6488 0.422852 20.793C0.422852 30.3738 15.428 28.8464 15.428 32.9773C15.428 34.574 13.8485 35.0947 11.6372 35.0947C8.35978 35.0947 4.17413 33.9145 0.85721 32.3177V40.5794C4.52952 41.9679 8.24131 42.558 11.6372 42.558C19.8505 42.558 25.4972 38.9826 25.4972 32.769C25.4577 22.4245 10.4131 24.2643 10.4131 20.3764Z" fill="white"/>
</svg>
