<svg width="46" height="31" viewBox="0 0 46 31" fill="none" xmlns="http://www.w3.org/2000/svg">
<g clip-path="url(#clip0_1234_114203)">
<path d="M8.81285 0.571289H19.638C21.1491 0.571289 22.0889 1.92712 21.7364 3.59607L16.6965 27.4156C16.3409 29.0787 14.8279 30.4357 13.3158 30.4357H2.49171C0.982731 30.4357 0.0407744 29.0787 0.393283 27.4156L5.43526 3.59607C5.78777 1.92712 7.29991 0.571289 8.81285 0.571289Z" fill="#DD2423"/>
<path d="M18.738 0.571289H31.1866C32.6974 0.571289 32.0161 1.92712 31.6607 3.59607L26.6216 27.4156C26.2681 29.0787 26.3784 30.4357 24.8644 30.4357H12.4158C10.9018 30.4357 9.96482 29.0787 10.3205 27.4156L15.3593 3.59607C15.7171 1.92712 17.2261 0.571289 18.738 0.571289Z" fill="#16315E"/>
<path d="M30.6925 0.571289H41.5176C43.0308 0.571289 43.9707 1.92712 43.6153 3.59607L38.5762 27.4156C38.2205 29.0787 36.7065 30.4357 35.1936 30.4357H24.3735C22.8595 30.4357 21.9204 29.0787 22.2751 27.4156L27.3149 3.59607C27.6674 1.92712 29.1785 0.571289 30.6925 0.571289Z" fill="#036862"/>
<path d="M11.6411 8.20514C10.528 8.21763 10.1992 8.20514 10.0942 8.17784C10.0538 8.389 9.30261 12.2035 9.3005 12.2067C9.13876 12.9785 9.02108 13.5286 8.62134 13.8838C8.39443 14.0903 8.12952 14.1899 7.8224 14.1899C7.32873 14.1899 7.04113 13.9201 6.99284 13.4083L6.98361 13.2326C6.98361 13.2326 7.134 12.1989 7.134 12.1931C7.134 12.1931 7.9224 8.71692 8.06356 8.25743C8.07095 8.23128 8.07306 8.21763 8.0749 8.20514C6.54033 8.21996 6.2683 8.20514 6.24956 8.17784C6.23927 8.21531 6.20128 8.43082 6.20128 8.43082L5.39626 12.3487L5.32713 12.681L5.19336 13.7679C5.19336 14.0903 5.25088 14.3535 5.36539 14.5759C5.73215 15.2815 6.77833 15.3872 7.37015 15.3872C8.13269 15.3872 8.84799 15.2088 9.33137 14.8832C10.1704 14.3375 10.39 13.4844 10.5857 12.7263L10.6765 12.3374C10.6765 12.3374 11.4886 8.72709 11.6266 8.25743C11.6319 8.23128 11.634 8.21763 11.6411 8.20514ZM14.4044 11.1176C14.2086 11.1176 13.8508 11.1699 13.5295 11.3433C13.4128 11.4092 13.3026 11.4853 13.1862 11.5612L13.2912 11.1438L13.2337 11.0735C12.5522 11.2254 12.3996 11.2457 11.7701 11.3433L11.7173 11.3819C11.6442 12.0491 11.5793 12.5507 11.3083 13.8621C11.2052 14.3454 11.0981 14.8334 10.9907 15.3156L11.0197 15.3768C11.6648 15.3394 11.8606 15.3394 12.4213 15.3495L12.4667 15.2952C12.5379 14.8935 12.5471 14.7994 12.7049 13.9859C12.7791 13.6001 12.9337 12.7526 13.0099 12.4508C13.15 12.3794 13.2883 12.3091 13.4202 12.3091C13.7345 12.3091 13.6962 12.6109 13.6841 12.7311C13.6706 12.933 13.5561 13.5923 13.4387 14.1584L13.3603 14.5238C13.3057 14.7936 13.2458 15.0559 13.1912 15.3234L13.215 15.3768C13.8508 15.3394 14.0448 15.3394 14.5878 15.3495L14.6516 15.2952C14.7498 14.6678 14.7786 14.5 14.9527 13.5865L15.0403 13.1668C15.2105 12.3454 15.296 11.9289 15.1672 11.5896C15.0311 11.2094 14.7044 11.1176 14.4044 11.1176ZM17.4913 11.9776C17.1533 12.0491 16.9377 12.0967 16.7235 12.1275C16.5111 12.165 16.3039 12.199 15.9773 12.2489L15.9514 12.2748L15.9277 12.2954C15.8936 12.5632 15.8699 12.7947 15.8248 13.0668C15.7865 13.3483 15.7277 13.6681 15.6319 14.1276C15.5578 14.4793 15.5195 14.6019 15.4773 14.7256C15.4361 14.8493 15.3907 14.9696 15.3074 15.3155L15.3269 15.3475L15.3433 15.3768C15.6485 15.3608 15.8483 15.3495 16.0535 15.3475C16.2586 15.3393 16.471 15.3475 16.7997 15.3495L16.8285 15.3237L16.8594 15.2952C16.9068 14.9832 16.914 14.8993 16.943 14.7471C16.9718 14.5839 17.0214 14.3579 17.143 13.7543C17.2005 13.4709 17.2646 13.1882 17.3243 12.899C17.3863 12.6108 17.4512 12.3271 17.5129 12.0436L17.5037 12.0093L17.4913 11.9776ZM17.4985 10.8181C17.1914 10.6185 16.6523 10.6819 16.2895 10.9575C15.9278 11.2276 15.8866 11.611 16.1927 11.8132C16.4945 12.0072 17.0357 11.9494 17.3953 11.6714C17.7563 11.3955 17.8014 11.0156 17.4985 10.8181ZM19.3559 15.4393C19.9773 15.4393 20.6142 15.2508 21.0936 14.6914C21.4625 14.2377 21.6316 13.5627 21.6902 13.2848C21.881 12.3634 21.7324 11.9333 21.5459 11.6713C21.2625 11.2719 20.7617 11.1438 20.2422 11.1438C19.9298 11.1438 19.1857 11.1778 18.6044 11.7677C18.187 12.1932 17.9941 12.7707 17.8778 13.3243C17.7604 13.8883 17.6253 14.9037 18.4736 15.2816C18.7353 15.4054 19.1126 15.4393 19.3559 15.4393ZM19.3073 13.3664C19.4506 12.6687 19.6197 12.0832 20.0514 12.0832C20.3897 12.0832 20.4142 12.5188 20.2638 13.2188C20.2369 13.3742 20.1134 13.9519 19.9464 14.1979C19.8298 14.3795 19.6918 14.4896 19.5393 14.4896C19.4939 14.4896 19.224 14.4896 19.2197 14.0484C19.2176 13.8305 19.258 13.608 19.3073 13.3664ZM23.2435 15.3496L23.292 15.2953C23.3609 14.8936 23.3723 14.7992 23.5248 13.9859C23.601 13.6002 23.7588 12.7527 23.833 12.4509C23.9733 12.3792 24.1092 12.3089 24.2454 12.3089C24.5575 12.3089 24.5195 12.6107 24.5071 12.7309C24.4958 12.9331 24.3812 13.5921 24.2617 14.1582L24.1876 14.5236C24.1308 14.7937 24.0691 15.0557 24.0145 15.3235L24.0382 15.3769C24.6762 15.3395 24.8628 15.3395 25.4089 15.3496L25.4749 15.2953C25.5707 14.6676 25.5965 14.4998 25.776 13.5866L25.8615 13.1666C26.0324 12.3452 26.119 11.929 25.9923 11.5897C25.8522 11.2095 25.5235 11.1177 25.2277 11.1177C25.0316 11.1177 24.672 11.1697 24.3525 11.3434C24.2382 11.4093 24.1237 11.4851 24.0113 11.5612L24.1092 11.1439L24.0567 11.0733C23.3754 11.2255 23.2198 11.2458 22.591 11.3434L22.5427 11.382C22.4665 12.0492 22.4044 12.5505 22.1335 13.8622C22.0303 14.3455 21.9232 14.8335 21.8161 15.3156L21.8448 15.3769C22.491 15.3395 22.6839 15.3395 23.2435 15.3496ZM27.931 15.3768C27.9711 15.1613 28.2094 13.8839 28.2115 13.8839C28.2115 13.8839 28.4144 12.9466 28.4268 12.9126C28.4268 12.9126 28.4906 12.815 28.5545 12.7764H28.6484C29.5347 12.7764 30.5355 12.7764 31.3199 12.1411C31.8537 11.7055 32.2186 11.0621 32.3814 10.2802C32.4236 10.0885 32.4548 9.86049 32.4548 9.63249C32.4548 9.33303 32.4001 9.03677 32.2424 8.80528C31.8424 8.18923 31.0458 8.1779 30.1263 8.17325C30.1234 8.17325 29.673 8.1779 29.673 8.1779C28.4959 8.19387 28.0239 8.18923 27.8299 8.16309C27.8136 8.25748 27.7827 8.42536 27.7827 8.42536C27.7827 8.42536 27.3611 10.5765 27.3611 10.5799C27.3611 10.5799 26.3521 15.1534 26.3046 15.3689C27.3323 15.3553 27.7537 15.3553 27.931 15.3768ZM28.7123 11.5556C28.7123 11.5556 29.1605 9.40884 29.1584 9.41697L29.173 9.30689L29.1793 9.22295L29.3584 9.24328C29.3584 9.24328 30.283 9.33071 30.3046 9.33303C30.6695 9.48842 30.8199 9.88896 30.7149 10.4118C30.6191 10.8896 30.3376 11.2913 29.9759 11.4853C29.678 11.6497 29.3131 11.6633 28.9371 11.6633H28.6938L28.7123 11.5556ZM31.5034 13.4061C31.3849 13.9621 31.2488 14.9775 32.0929 15.3394C32.362 15.4655 32.6032 15.5029 32.8483 15.4893C33.1071 15.4739 33.347 15.331 33.5691 15.1253C33.5491 15.2099 33.529 15.2944 33.509 15.3792L33.5472 15.4335C34.1543 15.4053 34.3427 15.4053 35.0005 15.4109L35.0602 15.3609C35.1562 14.7393 35.2467 14.1358 35.4963 12.9466C35.6179 12.3771 35.7393 11.813 35.8641 11.2458L35.8446 11.1833C35.1654 11.3219 34.9839 11.3515 34.3306 11.4534L34.281 11.4979C34.2744 11.5557 34.2675 11.6111 34.2612 11.6666C34.1596 11.486 34.0124 11.3317 33.7852 11.2356C33.4947 11.1098 32.8124 11.2719 32.2258 11.8598C31.8137 12.2795 31.6158 12.8546 31.5034 13.4061ZM32.9298 13.4401C33.0752 12.7549 33.2422 12.1752 33.6749 12.1752C33.9485 12.1752 34.0926 12.4532 34.0633 12.9272C34.0401 13.0454 34.015 13.17 33.9852 13.3109C33.9419 13.5145 33.895 13.7163 33.8493 13.9185C33.8029 14.0568 33.7488 14.1872 33.6894 14.274C33.5781 14.4477 33.3132 14.5555 33.1607 14.5555C33.1174 14.5555 32.8504 14.5555 32.8411 14.1221C32.839 13.9063 32.8794 13.6841 32.9298 13.4401ZM40.3785 11.1778L40.326 11.1118C39.654 11.2617 39.5323 11.2855 38.9149 11.3773L38.8695 11.4273C38.8674 11.4354 38.8656 11.4479 38.8624 11.4592L38.8603 11.4479C38.4007 12.6152 38.4141 12.3634 38.04 13.2824C38.0379 13.2406 38.0379 13.2144 38.0358 13.17L37.9421 11.1778L37.8833 11.1118C37.1793 11.2617 37.1627 11.2855 36.5125 11.3773L36.4619 11.4273C36.4548 11.4511 36.4548 11.4772 36.4505 11.5057L36.4548 11.5158C36.536 11.973 36.5165 11.8711 36.598 12.5926C36.636 12.9466 36.6867 13.3027 36.7247 13.6524C36.7888 14.2377 36.8247 14.5258 36.903 15.419C36.464 16.2165 36.36 16.5183 35.9373 17.2183L35.9402 17.2253L35.6426 17.7435C35.6086 17.7981 35.5777 17.8355 35.5344 17.8515C35.4869 17.8774 35.4252 17.882 35.3394 17.882H35.1745L34.9294 18.7795L35.7703 18.7955C36.264 18.7931 36.5743 18.539 36.7413 18.1974L37.2701 17.2H37.2616L37.3173 17.1297C37.673 16.2868 40.3785 11.1778 40.3785 11.1778ZM31.5034 22.9651H31.1467L32.467 18.1578H32.905L33.044 17.6626L33.0575 18.2133C33.0411 18.5537 33.2844 18.8555 33.9234 18.8055H34.6625L34.9169 17.8798H34.6388C34.4789 17.8798 34.4047 17.8354 34.414 17.7401L34.4005 17.1798H33.0319V17.1827C32.5894 17.1929 31.268 17.2295 31.0005 17.3079C30.6767 17.3997 30.3356 17.6698 30.3356 17.6698L30.4696 17.174H29.1894L28.9226 18.1578L27.5846 23.0386H27.325L27.0704 23.9576H29.6203L29.5348 24.264H30.7912L30.8746 23.9576H31.2271L31.5034 22.9651ZM30.4572 19.1346C30.2522 19.197 29.8707 19.3864 29.8707 19.3864L30.21 18.1578H31.2271L30.9817 19.053C30.9817 19.053 30.6675 19.0733 30.4572 19.1346ZM30.4767 20.8898C30.4767 20.8898 30.1572 20.9339 29.9469 20.9862C29.7398 21.0553 29.3514 21.2732 29.3514 21.2732L29.7018 19.9946H30.7242L30.4767 20.8898ZM29.9068 22.9764H28.8865L29.1823 21.8974H30.1994L29.9068 22.9764ZM32.364 19.9946H33.8347L33.6233 20.748H32.1331L31.9093 21.5718H33.2133L32.226 23.1022C32.1568 23.2146 32.0948 23.2544 32.026 23.286C31.9568 23.3247 31.8661 23.37 31.7611 23.37H31.3993L31.1508 24.2721H32.0969C32.5888 24.2721 32.8793 24.0258 33.0938 23.7025L33.7708 22.6825L33.9162 23.7182C33.9471 23.9122 34.0737 24.0258 34.1595 24.07C34.2542 24.1222 34.3521 24.212 34.4904 24.2254C34.6387 24.2323 34.7458 24.2378 34.817 24.2378H35.2819L35.5611 23.2282H35.3777C35.2724 23.2282 35.0912 23.2088 35.0603 23.1725C35.0294 23.1283 35.0294 23.0603 35.0128 22.9569L34.8653 21.9189H34.2613L34.5262 21.5718H36.0136L36.2424 20.748H34.8653L35.0798 19.9946H36.4526L36.7073 19.0654H32.6144L32.364 19.9946ZM19.9422 23.1862L20.2855 21.9291H21.6963L21.9541 20.9941H20.542L20.7575 20.2204H22.1375L22.3932 19.315H18.9404L18.69 20.2204H19.4744L19.2652 20.9941H18.4786L18.2179 21.9451H19.0021L18.5446 23.6082C18.4828 23.8284 18.5736 23.9123 18.6311 24.0146C18.69 24.1142 18.7496 24.1801 18.8836 24.2176C19.0219 24.2516 19.1166 24.2719 19.2454 24.2719H20.8359L21.1193 23.2362L20.4143 23.3428C20.2781 23.3428 19.9011 23.3247 19.9422 23.1862ZM20.104 17.1684L19.7465 17.8797C19.67 18.0351 19.6011 18.1315 19.5391 18.1759C19.4845 18.2134 19.3763 18.2291 19.2196 18.2291H19.0331L18.7837 19.1391H19.4032C19.7011 19.1391 19.9299 19.0188 20.0391 18.9587C20.1565 18.8896 20.1874 18.9291 20.2782 18.8327L20.4874 18.6331H22.422L22.6787 17.6857H21.2626L21.5099 17.1684H20.104ZM22.9601 23.2045C22.9271 23.1522 22.9509 23.0601 23.0013 22.8684L23.53 20.9418H25.411C25.6852 20.9375 25.8831 20.934 26.0118 20.9238C26.1501 20.9079 26.3005 20.8535 26.4643 20.7559C26.6335 20.6537 26.72 20.5459 26.7931 20.4222C26.8746 20.2988 27.0055 20.0287 27.1179 19.6121L27.7825 17.1741L25.8306 17.1866C25.8306 17.1866 25.2295 17.2842 24.9649 17.3919C24.6978 17.5122 24.3163 17.8479 24.3163 17.8479L24.4926 17.1796H23.2867L21.5986 23.3427C21.5387 23.5821 21.4986 23.7557 21.4894 23.86C21.4862 23.9724 21.6181 24.0837 21.7036 24.1676C21.8047 24.2515 21.954 24.2379 22.0973 24.2515C22.248 24.264 22.4622 24.2719 22.758 24.2719H23.6846L23.9691 23.2146L23.1395 23.3009C23.0509 23.3009 22.9867 23.2486 22.9601 23.2045ZM23.8712 19.6406H25.8469L25.7213 20.074C25.7036 20.0841 25.6614 20.0525 25.4604 20.0786H23.7495L23.8712 19.6406ZM24.267 18.1872H26.2593L26.116 18.7091C26.116 18.7091 25.177 18.699 25.0266 18.7295C24.3649 18.8555 23.9783 19.2447 23.9783 19.2447L24.267 18.1872ZM25.7655 21.5252C25.7492 21.5899 25.7233 21.6294 25.6872 21.6591C25.6471 21.6875 25.5822 21.6977 25.4853 21.6977H25.2038L25.2204 21.1699H24.0494L24.0019 23.75C24.0001 23.9362 24.0165 24.044 24.1402 24.1302C24.264 24.238 24.6452 24.2516 25.1584 24.2516H25.8922L26.1571 23.2859L25.5183 23.3245L25.3059 23.3382C25.2769 23.3245 25.2492 23.312 25.2183 23.278C25.1914 23.2487 25.146 23.2667 25.1534 23.0805L25.1584 22.4192L25.8283 22.3887C26.1901 22.3887 26.3447 22.2591 26.4766 22.1357C26.6025 22.0175 26.6437 21.8815 26.6911 21.6977L26.8035 21.1121H25.883L25.7655 21.5252Z" fill="#FEFEFE"/>
</g>
<defs>
<clipPath id="clip0_1234_114203">
<rect width="44.8417" height="29.8945" fill="white" transform="translate(0.319336 0.571289)"/>
</clipPath>
</defs>
</svg>
