<svg xmlns="http://www.w3.org/2000/svg" width="25" height="25" viewBox="0 0 25 25" fill="none">
  <g clip-path="url(#clip0_2372_18498)">
    <path d="M24.5689 20.6896H0.431054C0.193017 20.6896 0 20.4966 0 20.2586V4.74136C0 4.50332 0.193017 4.3103 0.431054 4.3103H24.5689C24.807 4.3103 25 4.50332 25 4.74136V20.2586C25 20.4967 24.8069 20.6896 24.5689 20.6896Z" fill="#F5F5F5"/>
    <path d="M25 5.57031H0V4.74136C0 4.50332 0.193017 4.3103 0.431054 4.3103H24.5689C24.807 4.3103 25 4.50332 25 4.74136L25 5.57031Z" fill="#FF4B55"/>
    <path d="M25 9.3501H0V10.6101H25V9.3501Z" fill="#FF4B55"/>
    <path d="M25 6.83008H0V8.09004H25V6.83008Z" fill="#FF4B55"/>
    <path d="M25 13.1299H0.431054C0.193017 13.1299 0 12.9369 0 12.6988V11.8699H25V13.1299Z" fill="#FF4B55"/>
    <path d="M25 16.9102H0V18.1701H25V16.9102Z" fill="#FF4B55"/>
    <path d="M24.5689 20.6896H0.431054C0.193017 20.6896 0 20.4966 0 20.2586V19.4297H25V20.2586C25 20.4967 24.8069 20.6896 24.5689 20.6896Z" fill="#FF4B55"/>
    <path d="M25 14.3901H0V15.6501H25V14.3901Z" fill="#FF4B55"/>
    <path d="M11.2069 4.3103H0.431054C0.193017 4.3103 0 4.50327 0 4.74131V12.6988C0 12.9368 0.193017 13.1299 0.431054 13.1299H11.2069C11.4449 13.1299 11.638 12.9368 11.638 12.6988V4.74131C11.6379 4.50327 11.4449 4.3103 11.2069 4.3103Z" fill="#41479B"/>
    <path d="M1.211 5.29976L1.30641 5.58589L1.60802 5.58819C1.64709 5.58853 1.66325 5.63834 1.63185 5.66153L1.38923 5.84073L1.48024 6.12828C1.49206 6.16548 1.44963 6.19634 1.41784 6.17359L1.17248 5.99825L0.927117 6.17364C0.89533 6.19634 0.852996 6.16553 0.864714 6.12832L0.95573 5.84078L0.713103 5.66158C0.681707 5.63834 0.697869 5.58858 0.736931 5.58824L1.03854 5.58594L1.13395 5.29981C1.14626 5.2627 1.1986 5.2627 1.211 5.29976Z" fill="#F5F5F5"/>
    <path d="M1.21051 6.79655L1.30592 7.08268L1.60754 7.08498C1.6466 7.08532 1.66276 7.13513 1.63136 7.15832L1.38874 7.33752L1.47975 7.62507C1.49157 7.66227 1.44914 7.69313 1.41735 7.67038L1.17199 7.49504L0.926628 7.67043C0.894841 7.69313 0.852507 7.66232 0.864226 7.62511L0.955242 7.33757L0.712615 7.15837C0.681219 7.13513 0.697381 7.08537 0.736443 7.08503L1.03805 7.08273L1.13346 6.7966C1.14577 6.75954 1.19811 6.75954 1.21051 6.79655Z" fill="#F5F5F5"/>
    <path d="M1.21051 8.29338L1.30592 8.57951L1.60754 8.5818C1.6466 8.58215 1.66276 8.63195 1.63136 8.65514L1.38874 8.83434L1.47975 9.12189C1.49157 9.1591 1.44914 9.18996 1.41735 9.1672L1.17199 8.99186L0.926628 9.16725C0.894841 9.18996 0.852507 9.15915 0.864226 9.12194L0.955242 8.83439L0.712615 8.65519C0.681219 8.63195 0.697381 8.5822 0.736443 8.58185L1.03805 8.57956L1.13346 8.29343C1.14577 8.25637 1.19811 8.25637 1.21051 8.29338Z" fill="#F5F5F5"/>
    <path d="M1.21051 9.79024L1.30592 10.0764L1.60754 10.0787C1.6466 10.079 1.66276 10.1288 1.63136 10.152L1.38874 10.3312L1.47975 10.6188C1.49157 10.656 1.44914 10.6868 1.41735 10.6641L1.17199 10.4887L0.926628 10.6641C0.894841 10.6868 0.852507 10.656 0.864226 10.6188L0.955242 10.3313L0.712615 10.1521C0.681219 10.1288 0.697381 10.0791 0.736443 10.0787L1.03805 10.0764L1.13346 9.79029C1.14577 9.75318 1.19811 9.75318 1.21051 9.79024Z" fill="#F5F5F5"/>
    <path d="M1.21051 11.2869L1.30592 11.573L1.60754 11.5753C1.6466 11.5756 1.66276 11.6254 1.63136 11.6486L1.38874 11.8278L1.47975 12.1154C1.49157 12.1526 1.44914 12.1834 1.41735 12.1607L1.17199 11.9853L0.926628 12.1607C0.894841 12.1834 0.852507 12.1526 0.864226 12.1154L0.955242 11.8279L0.712615 11.6487C0.681219 11.6254 0.697381 11.5757 0.736443 11.5753L1.03805 11.573L1.13346 11.2869C1.14577 11.2497 1.19811 11.2497 1.21051 11.2869Z" fill="#F5F5F5"/>
    <path d="M2.37214 6.03362L2.46755 6.31975L2.76916 6.32205C2.80822 6.32239 2.82438 6.37219 2.79298 6.39539L2.55036 6.57458L2.64137 6.86213C2.65319 6.89934 2.61076 6.9302 2.57897 6.90744L2.33361 6.73205L2.08825 6.90744C2.05646 6.93015 2.01413 6.89934 2.02585 6.86213L2.11686 6.57458L1.87424 6.39539C1.84284 6.37214 1.859 6.32239 1.89806 6.32205L2.19967 6.31975L2.29508 6.03362C2.30734 5.99661 2.35978 5.99661 2.37214 6.03362Z" fill="#F5F5F5"/>
    <path d="M2.37214 7.53048L2.46755 7.81661L2.76916 7.81891C2.80822 7.81925 2.82438 7.86905 2.79298 7.89225L2.55036 8.07145L2.64137 8.35899C2.65319 8.3962 2.61076 8.42706 2.57897 8.40431L2.33361 8.22892L2.08825 8.40431C2.05646 8.42701 2.01413 8.39625 2.02585 8.35899L2.11686 8.07145L1.87424 7.89225C1.84284 7.869 1.859 7.81925 1.89806 7.81891L2.19967 7.81661L2.29508 7.53048C2.30734 7.49342 2.35978 7.49342 2.37214 7.53048Z" fill="#F5F5F5"/>
    <path d="M2.37214 9.02731L2.46755 9.31344L2.76916 9.31573C2.80822 9.31608 2.82438 9.36588 2.79298 9.38907L2.55036 9.56827L2.64137 9.85582C2.65319 9.89303 2.61076 9.92389 2.57897 9.90113L2.33361 9.72574L2.08825 9.90113C2.05646 9.92384 2.01413 9.89303 2.02585 9.85582L2.11686 9.56827L1.87424 9.38907C1.84284 9.36583 1.859 9.31608 1.89806 9.31573L2.19967 9.31344L2.29508 9.02731C2.30734 8.99025 2.35978 8.99025 2.37214 9.02731Z" fill="#F5F5F5"/>
    <path d="M2.37214 10.5239L2.46755 10.81L2.76916 10.8123C2.80822 10.8126 2.82438 10.8624 2.79298 10.8856L2.55036 11.0648L2.64137 11.3524C2.65319 11.3896 2.61076 11.4204 2.57897 11.3977L2.33361 11.2223L2.08825 11.3977C2.05646 11.4204 2.01413 11.3896 2.02585 11.3524L2.11686 11.0648L1.87424 10.8856C1.84284 10.8624 1.859 10.8126 1.89806 10.8123L2.19967 10.81L2.29508 10.5239C2.30734 10.4868 2.35978 10.4868 2.37214 10.5239Z" fill="#F5F5F5"/>
    <path d="M3.534 5.29977L3.62941 5.5859L3.93102 5.58819C3.97008 5.58854 3.98625 5.63834 3.95485 5.66153L3.71222 5.84073L3.80324 6.12828C3.81506 6.16549 3.77262 6.19635 3.74084 6.17359L3.49548 5.9982L3.25011 6.17359C3.21833 6.1963 3.17599 6.16549 3.18771 6.12828L3.27873 5.84073L3.0361 5.66153C3.00471 5.63829 3.02087 5.58854 3.05993 5.58819L3.36154 5.5859L3.45695 5.29977C3.46925 5.26271 3.52165 5.26271 3.534 5.29977Z" fill="#F5F5F5"/>
    <path d="M3.534 6.79656L3.62941 7.08269L3.93102 7.08498C3.97008 7.08533 3.98625 7.13513 3.95485 7.15832L3.71222 7.33752L3.80324 7.62507C3.81506 7.66228 3.77262 7.69314 3.74084 7.67038L3.49548 7.49499L3.25011 7.67038C3.21833 7.69309 3.17599 7.66228 3.18771 7.62507L3.27873 7.33752L3.0361 7.15832C3.00471 7.13508 3.02087 7.08533 3.05993 7.08498L3.36154 7.08269L3.45695 6.79656C3.46925 6.75955 3.52165 6.75955 3.534 6.79656Z" fill="#F5F5F5"/>
    <path d="M3.534 8.29338L3.62941 8.57952L3.93102 8.58181C3.97008 8.58215 3.98625 8.63196 3.95485 8.65515L3.71222 8.83435L3.80324 9.1219C3.81506 9.15911 3.77262 9.18997 3.74084 9.16721L3.49548 8.99182L3.25011 9.16721C3.21833 9.18992 3.17599 9.15911 3.18771 9.1219L3.27873 8.83435L3.0361 8.65515C3.00471 8.63191 3.02087 8.58215 3.05993 8.58181L3.36154 8.57952L3.45695 8.29338C3.46925 8.25637 3.52165 8.25637 3.534 8.29338Z" fill="#F5F5F5"/>
    <path d="M3.534 9.79025L3.62941 10.0764L3.93102 10.0787C3.97008 10.079 3.98625 10.1288 3.95485 10.152L3.71222 10.3312L3.80324 10.6188C3.81506 10.656 3.77262 10.6868 3.74084 10.6641L3.49548 10.4887L3.25011 10.6641C3.21833 10.6868 3.17599 10.656 3.18771 10.6188L3.27873 10.3312L3.0361 10.152C3.00471 10.1288 3.02087 10.079 3.05993 10.0787L3.36154 10.0764L3.45695 9.79025C3.46925 9.75319 3.52165 9.75319 3.534 9.79025Z" fill="#F5F5F5"/>
    <path d="M3.534 11.2869L3.62941 11.573L3.93102 11.5753C3.97008 11.5756 3.98625 11.6254 3.95485 11.6486L3.71222 11.8278L3.80324 12.1154C3.81506 12.1526 3.77262 12.1834 3.74084 12.1607L3.49548 11.9853L3.25011 12.1607C3.21833 12.1834 3.17599 12.1526 3.18771 12.1154L3.27873 11.8278L3.0361 11.6486C3.00471 11.6254 3.02087 11.5756 3.05993 11.5753L3.36154 11.573L3.45695 11.2869C3.46925 11.2498 3.52165 11.2498 3.534 11.2869Z" fill="#F5F5F5"/>
    <path d="M4.69587 6.03362L4.79128 6.31975L5.09289 6.32205C5.13195 6.32239 5.14811 6.37219 5.11671 6.39539L4.87409 6.57458L4.9651 6.86213C4.97692 6.89934 4.93449 6.9302 4.9027 6.90744L4.65734 6.73205L4.41198 6.90744C4.38019 6.93015 4.33786 6.89934 4.34958 6.86213L4.44059 6.57458L4.19797 6.39539C4.16657 6.37214 4.18273 6.32239 4.22179 6.32205L4.52341 6.31975L4.61882 6.03362C4.63107 5.99661 4.68351 5.99661 4.69587 6.03362Z" fill="#F5F5F5"/>
    <path d="M4.69587 7.53048L4.79128 7.81661L5.09289 7.81891C5.13195 7.81925 5.14811 7.86905 5.11671 7.89225L4.87409 8.07145L4.9651 8.35899C4.97692 8.3962 4.93449 8.42706 4.9027 8.40431L4.65734 8.22892L4.41198 8.40431C4.38019 8.42701 4.33786 8.39625 4.34958 8.35899L4.44059 8.07145L4.19797 7.89225C4.16657 7.869 4.18273 7.81925 4.22179 7.81891L4.52341 7.81661L4.61882 7.53048C4.63107 7.49342 4.68351 7.49342 4.69587 7.53048Z" fill="#F5F5F5"/>
    <path d="M4.69587 9.02731L4.79128 9.31344L5.09289 9.31573C5.13195 9.31608 5.14811 9.36588 5.11671 9.38907L4.87409 9.56827L4.9651 9.85582C4.97692 9.89303 4.93449 9.92389 4.9027 9.90113L4.65734 9.72574L4.41198 9.90113C4.38019 9.92384 4.33786 9.89303 4.34958 9.85582L4.44059 9.56827L4.19797 9.38907C4.16657 9.36583 4.18273 9.31608 4.22179 9.31573L4.52341 9.31344L4.61882 9.02731C4.63107 8.99025 4.68351 8.99025 4.69587 9.02731Z" fill="#F5F5F5"/>
    <path d="M4.69587 10.5239L4.79128 10.81L5.09289 10.8123C5.13195 10.8126 5.14811 10.8624 5.11671 10.8856L4.87409 11.0648L4.9651 11.3524C4.97692 11.3896 4.93449 11.4204 4.9027 11.3977L4.65734 11.2223L4.41198 11.3977C4.38019 11.4204 4.33786 11.3896 4.34958 11.3524L4.44059 11.0648L4.19797 10.8856C4.16657 10.8624 4.18273 10.8126 4.22179 10.8123L4.52341 10.81L4.61882 10.5239C4.63107 10.4868 4.68351 10.4868 4.69587 10.5239Z" fill="#F5F5F5"/>
    <path d="M5.85754 5.29977L5.95295 5.5859L6.25456 5.58819C6.29362 5.58854 6.30978 5.63834 6.27838 5.66153L6.03576 5.84073L6.12677 6.12828C6.13859 6.16549 6.09616 6.19635 6.06437 6.17359L5.81896 5.9982L5.5736 6.17359C5.54181 6.1963 5.49948 6.16549 5.5112 6.12828L5.60221 5.84073L5.35959 5.66153C5.32819 5.63829 5.34435 5.58854 5.38342 5.58819L5.68503 5.5859L5.78044 5.29977C5.79279 5.26271 5.84518 5.26271 5.85754 5.29977Z" fill="#F5F5F5"/>
    <path d="M5.85754 6.79656L5.95295 7.08269L6.25456 7.08498C6.29362 7.08533 6.30978 7.13513 6.27838 7.15832L6.03576 7.33752L6.12677 7.62507C6.13859 7.66228 6.09616 7.69314 6.06437 7.67038L5.81896 7.49499L5.5736 7.67038C5.54181 7.69309 5.49948 7.66228 5.5112 7.62507L5.60221 7.33752L5.35959 7.15832C5.32819 7.13508 5.34435 7.08533 5.38342 7.08498L5.68503 7.08269L5.78044 6.79656C5.79279 6.75955 5.84518 6.75955 5.85754 6.79656Z" fill="#F5F5F5"/>
    <path d="M5.85754 8.29338L5.95295 8.57952L6.25456 8.58181C6.29362 8.58215 6.30978 8.63196 6.27838 8.65515L6.03576 8.83435L6.12677 9.1219C6.13859 9.15911 6.09616 9.18997 6.06437 9.16721L5.81896 8.99182L5.5736 9.16721C5.54181 9.18992 5.49948 9.15911 5.5112 9.1219L5.60221 8.83435L5.35959 8.65515C5.32819 8.63191 5.34435 8.58215 5.38342 8.58181L5.68503 8.57952L5.78044 8.29338C5.79279 8.25637 5.84518 8.25637 5.85754 8.29338Z" fill="#F5F5F5"/>
    <path d="M5.85754 9.79025L5.95295 10.0764L6.25456 10.0787C6.29362 10.079 6.30978 10.1288 6.27838 10.152L6.03576 10.3312L6.12677 10.6188C6.13859 10.656 6.09616 10.6868 6.06437 10.6641L5.81896 10.4887L5.5736 10.6641C5.54181 10.6868 5.49948 10.656 5.5112 10.6188L5.60221 10.3312L5.35959 10.152C5.32819 10.1288 5.34435 10.079 5.38342 10.0787L5.68503 10.0764L5.78044 9.79025C5.79279 9.75319 5.84518 9.75319 5.85754 9.79025Z" fill="#F5F5F5"/>
    <path d="M5.85754 11.2869L5.95295 11.573L6.25456 11.5753C6.29362 11.5756 6.30978 11.6254 6.27838 11.6486L6.03576 11.8278L6.12677 12.1154C6.13859 12.1526 6.09616 12.1834 6.06437 12.1607L5.81896 11.9853L5.5736 12.1607C5.54181 12.1834 5.49948 12.1526 5.5112 12.1154L5.60221 11.8278L5.35959 11.6486C5.32819 11.6254 5.34435 11.5756 5.38342 11.5753L5.68503 11.573L5.78044 11.2869C5.79279 11.2498 5.84518 11.2498 5.85754 11.2869Z" fill="#F5F5F5"/>
    <path d="M7.01935 6.03362L7.11476 6.31975L7.41637 6.32205C7.45544 6.32239 7.4716 6.37219 7.4402 6.39539L7.19758 6.57458L7.28859 6.86213C7.30041 6.89934 7.25798 6.9302 7.22619 6.90744L6.98083 6.73205L6.73547 6.90744C6.70368 6.93015 6.66135 6.89934 6.67306 6.86213L6.76408 6.57458L6.52145 6.39539C6.49006 6.37214 6.50622 6.32239 6.54528 6.32205L6.84689 6.31975L6.9423 6.03362C6.95466 5.99661 7.007 5.99661 7.01935 6.03362Z" fill="#F5F5F5"/>
    <path d="M7.01935 7.53048L7.11476 7.81661L7.41637 7.81891C7.45544 7.81925 7.4716 7.86905 7.4402 7.89225L7.19758 8.07145L7.28859 8.35899C7.30041 8.3962 7.25798 8.42706 7.22619 8.40431L6.98083 8.22892L6.73547 8.40431C6.70368 8.42701 6.66135 8.39625 6.67306 8.35899L6.76408 8.07145L6.52145 7.89225C6.49006 7.869 6.50622 7.81925 6.54528 7.81891L6.84689 7.81661L6.9423 7.53048C6.95466 7.49342 7.007 7.49342 7.01935 7.53048Z" fill="#F5F5F5"/>
    <path d="M7.01935 9.02731L7.11476 9.31344L7.41637 9.31573C7.45544 9.31608 7.4716 9.36588 7.4402 9.38907L7.19758 9.56827L7.28859 9.85582C7.30041 9.89303 7.25798 9.92389 7.22619 9.90113L6.98083 9.72574L6.73547 9.90113C6.70368 9.92384 6.66135 9.89303 6.67306 9.85582L6.76408 9.56827L6.52145 9.38907C6.49006 9.36583 6.50622 9.31608 6.54528 9.31573L6.84689 9.31344L6.9423 9.02731C6.95466 8.99025 7.007 8.99025 7.01935 9.02731Z" fill="#F5F5F5"/>
    <path d="M7.01935 10.5239L7.11476 10.81L7.41637 10.8123C7.45544 10.8126 7.4716 10.8624 7.4402 10.8856L7.19758 11.0648L7.28859 11.3524C7.30041 11.3896 7.25798 11.4204 7.22619 11.3977L6.98083 11.2223L6.73547 11.3977C6.70368 11.4204 6.66135 11.3896 6.67306 11.3524L6.76408 11.0648L6.52145 10.8856C6.49006 10.8624 6.50622 10.8126 6.54528 10.8123L6.84689 10.81L6.9423 10.5239C6.95466 10.4868 7.007 10.4868 7.01935 10.5239Z" fill="#F5F5F5"/>
    <path d="M8.18122 5.29977L8.27663 5.5859L8.57824 5.58819C8.6173 5.58854 8.63346 5.63834 8.60207 5.66153L8.35944 5.84073L8.45046 6.12828C8.46227 6.16549 8.41984 6.19635 8.38805 6.17359L8.14269 5.9982L7.89733 6.17359C7.86554 6.1963 7.82321 6.16549 7.83493 6.12828L7.92595 5.84073L7.68332 5.66153C7.65192 5.63829 7.66808 5.58854 7.70715 5.58819L8.00876 5.5859L8.10417 5.29977C8.11642 5.26271 8.16886 5.26271 8.18122 5.29977Z" fill="#F5F5F5"/>
    <path d="M8.18122 6.79656L8.27663 7.08269L8.57824 7.08498C8.6173 7.08533 8.63346 7.13513 8.60207 7.15832L8.35944 7.33752L8.45046 7.62507C8.46227 7.66228 8.41984 7.69314 8.38805 7.67038L8.14269 7.49499L7.89733 7.67038C7.86554 7.69309 7.82321 7.66228 7.83493 7.62507L7.92595 7.33752L7.68332 7.15832C7.65192 7.13508 7.66808 7.08533 7.70715 7.08498L8.00876 7.08269L8.10417 6.79656C8.11642 6.75955 8.16886 6.75955 8.18122 6.79656Z" fill="#F5F5F5"/>
    <path d="M8.18122 8.29338L8.27663 8.57952L8.57824 8.58181C8.6173 8.58215 8.63346 8.63196 8.60207 8.65515L8.35944 8.83435L8.45046 9.1219C8.46227 9.15911 8.41984 9.18997 8.38805 9.16721L8.14269 8.99182L7.89733 9.16721C7.86554 9.18992 7.82321 9.15911 7.83493 9.1219L7.92595 8.83435L7.68332 8.65515C7.65192 8.63191 7.66808 8.58215 7.70715 8.58181L8.00876 8.57952L8.10417 8.29338C8.11642 8.25637 8.16886 8.25637 8.18122 8.29338Z" fill="#F5F5F5"/>
    <path d="M8.18122 9.79025L8.27663 10.0764L8.57824 10.0787C8.6173 10.079 8.63346 10.1288 8.60207 10.152L8.35944 10.3312L8.45046 10.6188C8.46227 10.656 8.41984 10.6868 8.38805 10.6641L8.14269 10.4887L7.89733 10.6641C7.86554 10.6868 7.82321 10.656 7.83493 10.6188L7.92595 10.3312L7.68332 10.152C7.65192 10.1288 7.66808 10.079 7.70715 10.0787L8.00876 10.0764L8.10417 9.79025C8.11642 9.75319 8.16886 9.75319 8.18122 9.79025Z" fill="#F5F5F5"/>
    <path d="M8.18122 11.2869L8.27663 11.573L8.57824 11.5753C8.6173 11.5756 8.63346 11.6254 8.60207 11.6486L8.35944 11.8278L8.45046 12.1154C8.46227 12.1526 8.41984 12.1834 8.38805 12.1607L8.14269 11.9853L7.89733 12.1607C7.86554 12.1834 7.82321 12.1526 7.83493 12.1154L7.92595 11.8278L7.68332 11.6486C7.65192 11.6254 7.66808 11.5756 7.70715 11.5753L8.00876 11.573L8.10417 11.2869C8.11642 11.2498 8.16886 11.2498 8.18122 11.2869Z" fill="#F5F5F5"/>
    <path d="M9.34308 6.03362L9.43849 6.31975L9.7401 6.32205C9.77917 6.32239 9.79533 6.37219 9.76393 6.39539L9.5213 6.57458L9.61232 6.86213C9.62414 6.89934 9.58171 6.9302 9.54992 6.90744L9.30456 6.73205L9.0592 6.90744C9.02741 6.93015 8.98508 6.89934 8.99679 6.86213L9.08781 6.57458L8.84518 6.39539C8.81379 6.37214 8.82995 6.32239 8.86901 6.32205L9.17062 6.31975L9.26603 6.03362C9.27834 5.99661 9.33078 5.99661 9.34308 6.03362Z" fill="#F5F5F5"/>
    <path d="M9.34308 7.53048L9.43849 7.81661L9.7401 7.81891C9.77917 7.81925 9.79533 7.86905 9.76393 7.89225L9.5213 8.07145L9.61232 8.35899C9.62414 8.3962 9.58171 8.42706 9.54992 8.40431L9.30456 8.22892L9.0592 8.40431C9.02741 8.42701 8.98508 8.39625 8.99679 8.35899L9.08781 8.07145L8.84518 7.89225C8.81379 7.869 8.82995 7.81925 8.86901 7.81891L9.17062 7.81661L9.26603 7.53048C9.27834 7.49342 9.33078 7.49342 9.34308 7.53048Z" fill="#F5F5F5"/>
    <path d="M9.34308 9.02731L9.43849 9.31344L9.7401 9.31573C9.77917 9.31608 9.79533 9.36588 9.76393 9.38907L9.5213 9.56827L9.61232 9.85582C9.62414 9.89303 9.58171 9.92389 9.54992 9.90113L9.30456 9.72574L9.0592 9.90113C9.02741 9.92384 8.98508 9.89303 8.99679 9.85582L9.08781 9.56827L8.84518 9.38907C8.81379 9.36583 8.82995 9.31608 8.86901 9.31573L9.17062 9.31344L9.26603 9.02731C9.27834 8.99025 9.33078 8.99025 9.34308 9.02731Z" fill="#F5F5F5"/>
    <path d="M9.34308 10.5239L9.43849 10.81L9.7401 10.8123C9.77917 10.8126 9.79533 10.8624 9.76393 10.8856L9.5213 11.0648L9.61232 11.3524C9.62414 11.3896 9.58171 11.4204 9.54992 11.3977L9.30456 11.2223L9.0592 11.3977C9.02741 11.4204 8.98508 11.3896 8.99679 11.3524L9.08781 11.0648L8.84518 10.8856C8.81379 10.8624 8.82995 10.8126 8.86901 10.8123L9.17062 10.81L9.26603 10.5239C9.27834 10.4868 9.33078 10.4868 9.34308 10.5239Z" fill="#F5F5F5"/>
    <path d="M10.5047 5.29977L10.6001 5.5859L10.9017 5.58819C10.9408 5.58854 10.9569 5.63834 10.9256 5.66153L10.6829 5.84073L10.7739 6.12828C10.7858 6.16549 10.7433 6.19635 10.7115 6.17359L10.4662 5.9982L10.2208 6.17359C10.189 6.1963 10.1467 6.16549 10.1584 6.12828L10.2494 5.84073L10.0068 5.66153C9.97541 5.63829 9.99157 5.58854 10.0306 5.58819L10.3322 5.5859L10.4277 5.29977C10.44 5.26271 10.4923 5.26271 10.5047 5.29977Z" fill="#F5F5F5"/>
    <path d="M10.5047 6.79656L10.6001 7.08269L10.9017 7.08498C10.9408 7.08533 10.9569 7.13513 10.9256 7.15832L10.6829 7.33752L10.7739 7.62507C10.7858 7.66228 10.7433 7.69314 10.7115 7.67038L10.4662 7.49499L10.2208 7.67038C10.189 7.69309 10.1467 7.66228 10.1584 7.62507L10.2494 7.33752L10.0068 7.15832C9.97541 7.13508 9.99157 7.08533 10.0306 7.08498L10.3322 7.08269L10.4277 6.79656C10.44 6.75955 10.4923 6.75955 10.5047 6.79656Z" fill="#F5F5F5"/>
    <path d="M10.5047 8.29338L10.6001 8.57952L10.9017 8.58181C10.9408 8.58215 10.9569 8.63196 10.9256 8.65515L10.6829 8.83435L10.7739 9.1219C10.7858 9.15911 10.7433 9.18997 10.7115 9.16721L10.4662 8.99182L10.2208 9.16721C10.189 9.18992 10.1467 9.15911 10.1584 9.1219L10.2494 8.83435L10.0068 8.65515C9.97541 8.63191 9.99157 8.58215 10.0306 8.58181L10.3322 8.57952L10.4277 8.29338C10.44 8.25637 10.4923 8.25637 10.5047 8.29338Z" fill="#F5F5F5"/>
    <path d="M10.5047 9.79025L10.6001 10.0764L10.9017 10.0787C10.9408 10.079 10.9569 10.1288 10.9256 10.152L10.6829 10.3312L10.7739 10.6188C10.7858 10.656 10.7433 10.6868 10.7115 10.6641L10.4662 10.4887L10.2208 10.6641C10.189 10.6868 10.1467 10.656 10.1584 10.6188L10.2494 10.3312L10.0068 10.152C9.97541 10.1288 9.99157 10.079 10.0306 10.0787L10.3322 10.0764L10.4277 9.79025C10.44 9.75319 10.4923 9.75319 10.5047 9.79025Z" fill="#F5F5F5"/>
    <path d="M10.5047 11.2869L10.6001 11.573L10.9017 11.5753C10.9408 11.5756 10.9569 11.6254 10.9256 11.6486L10.6829 11.8278L10.7739 12.1154C10.7858 12.1526 10.7433 12.1834 10.7115 12.1607L10.4662 11.9853L10.2208 12.1607C10.189 12.1834 10.1467 12.1526 10.1584 12.1154L10.2494 11.8278L10.0068 11.6486C9.97541 11.6254 9.99157 11.5756 10.0306 11.5753L10.3322 11.573L10.4277 11.2869C10.44 11.2498 10.4923 11.2498 10.5047 11.2869Z" fill="#F5F5F5"/>
  </g>
  <defs>
    <clipPath id="clip0_2372_18498">
      <rect width="25" height="25" fill="white"/>
    </clipPath>
  </defs>
</svg>