<svg width="46" height="30" viewBox="0 0 46 30" fill="none" xmlns="http://www.w3.org/2000/svg">
<g clip-path="url(#clip0_1234_114199)">
<path d="M41.0897 0.46875H4.65576C2.59197 0.46875 0.918945 2.14178 0.918945 4.20556V25.6922C0.918945 27.756 2.59197 29.429 4.65576 29.429H41.0897C43.1534 29.429 44.8265 27.756 44.8265 25.6922V4.20556C44.8265 2.14178 43.1534 0.46875 41.0897 0.46875Z" fill="white" stroke="black" stroke-opacity="0.2" stroke-width="0.934203"/>
<path d="M5.66052 11.0523C4.68308 10.5162 3.56755 10.085 2.32031 9.7858L2.37263 9.55279H7.48641C8.17956 9.57709 8.74201 9.78564 8.92503 10.5222L10.0364 15.8207L10.3768 17.4166L13.4896 9.55279H16.8505L11.8546 21.0727H8.49346L5.66052 11.0523ZM19.3228 21.0849H16.1443L18.1323 9.55279H21.3106L19.3228 21.0849ZM30.8449 9.83472L30.4126 12.325L30.1251 12.2025C29.55 11.9693 28.7908 11.7363 27.7575 11.7609C26.5026 11.7609 25.9398 12.2636 25.9268 12.7544C25.9268 13.2943 26.6076 13.6501 27.7193 14.1778C29.5505 14.9998 30.3999 16.0057 30.3872 17.3185C30.3615 19.7109 28.1903 21.2568 24.8552 21.2568C23.4293 21.2444 22.0559 20.9617 21.3104 20.6431L21.7552 18.0543L22.1737 18.2386C23.207 18.6684 23.887 18.852 25.1559 18.852C26.071 18.852 27.0522 18.4959 27.0647 17.7233C27.0647 17.2203 26.6467 16.8519 25.417 16.2876C24.2139 15.7353 22.6053 14.8153 22.6314 13.159C22.6449 10.914 24.8552 9.34375 27.994 9.34375C29.2236 9.34375 30.2179 9.60138 30.8449 9.83472ZM35.0693 16.9995H37.7111C37.5804 16.4229 36.9785 13.6625 36.9785 13.6625L36.7564 12.6688C36.5995 13.0982 36.325 13.7975 36.3382 13.7729C36.3382 13.7729 35.331 16.337 35.0693 16.9995ZM38.9926 9.55279L41.5568 21.0848H38.6139C38.6139 21.0848 38.3259 19.7598 38.2347 19.3549H34.1538C34.0358 19.6614 33.4867 21.0848 33.4867 21.0848H30.1517L34.8729 10.5096C35.2 9.76118 35.776 9.55279 36.5341 9.55279H38.9926Z" fill="#171E6C"/>
</g>
<defs>
<clipPath id="clip0_1234_114199">
<rect width="44.8417" height="29.8945" fill="white" transform="translate(0.450195)"/>
</clipPath>
</defs>
</svg>
